M48
INCH,TZ
T1C0.012
T2C0.031
T3C0.039
%
G90
G05
T1
X4.8465Y-4.002
X4.8524Y-4.128
X4.8799Y-3.9783
X4.9213Y-3.6476
X5.0413Y-4.0236
X5.0768Y-4.0472
X5.0984Y-3.6417
X5.0984Y-3.6831
X5.1319Y-3.8406
X5.1319Y-3.9508
X5.1339Y-3.7559
X5.1378Y-3.7992
X5.1457Y-3.9094
X5.1594Y-3.872
X5.1732Y-3.9429
X5.2283Y-3.6476
X5.2461Y-3.7874
X5.2559Y-3.8484
X5.2697Y-3.9724
X5.2756Y-3.6457
X5.2913Y-3.7795
X5.2953Y-3.8957
X5.2992Y-3.8543
X5.311Y-3.9724
X5.3287Y-3.8248
X5.3366Y-3.7638
X5.3366Y-3.8839
X5.3799Y-4.1299
X5.3898Y-3.6811
X5.4272Y-4.0472
X5.4291Y-3.7008
X5.4705Y-3.7677
X5.4941Y-4.0374
X5.5118Y-3.748
X5.5728Y-3.5886
X5.5827Y-3.8504
X5.5925Y-3.7323
X5.6417Y-3.7047
X5.6496Y-3.7638
X5.6713Y-4.1457
X5.6949Y-3.7638
X5.7913Y-3.7343
X5.8209Y-3.7657
X5.8543Y-3.6594
X5.8563Y-3.9685
X5.8878Y-3.7421
X5.9114Y-3.6575
T2
X4.9101Y-4.1299
X4.9685Y-3.5906
X4.9801Y-4.1299
X5.0472Y-3.5787
X5.0501Y-4.1299
X5.1201Y-4.1299
X5.126Y-3.5906
X5.1901Y-4.1299
X5.2047Y-3.5787
X5.2601Y-4.1299
X5.2835Y-3.5906
X5.3301Y-4.1299
X5.3622Y-3.5787
X5.4409Y-3.5906
X5.9882Y-3.6833
X5.9882Y-3.7533
X5.9882Y-3.8233
X5.9882Y-3.8933
X5.9882Y-3.9633
X5.9882Y-4.0333
T3
X4.8583Y-3.6083
X4.8583Y-3.687
X4.8583Y-3.7657
X4.8583Y-3.8445
X5.9764Y-3.5945
X5.9764Y-4.122
T0
M30
