G04 (created by PCBNEW (2013-may-18)-stable) date Mit 10 Dez 2014 19:38:00 UTC*
%MOIN*%
G04 Gerber Fmt 3.4, Leading zero omitted, Abs format*
%FSLAX34Y34*%
G01*
G70*
G90*
G04 APERTURE LIST*
%ADD10C,0.00590551*%
%ADD11R,0.0275591X0.0393701*%
%ADD12R,0.0393701X0.0275591*%
%ADD13R,0.0748X0.0629*%
%ADD14R,0.0393701X0.0177165*%
%ADD15R,0.0126X0.0339*%
%ADD16R,0.0708X0.0551*%
%ADD17R,0.02X0.045*%
%ADD18R,0.0110236X0.0295276*%
%ADD19R,0.0110236X0.0334646*%
%ADD20C,0.0669291*%
%ADD21R,0.0787402X0.0787402*%
%ADD22C,0.0590551*%
%ADD23R,0.0590551X0.0590551*%
%ADD24O,0.05X0.07*%
%ADD25O,0.07X0.05*%
%ADD26C,0.0314961*%
%ADD27C,0.015748*%
%ADD28C,0.0080315*%
%ADD29C,0.0393701*%
%ADD30C,0.0314961*%
%ADD31C,0.01*%
G04 APERTURE END LIST*
G54D10*
G54D11*
X54448Y-37519D03*
X53897Y-37519D03*
X50334Y-38779D03*
X50885Y-38779D03*
G54D12*
X51377Y-37342D03*
X51377Y-36791D03*
G54D13*
X56600Y-40659D03*
X56600Y-39541D03*
G54D14*
X49488Y-36574D03*
X49488Y-36830D03*
X49488Y-37086D03*
X49488Y-37342D03*
X50511Y-37342D03*
X50511Y-37086D03*
X50511Y-36830D03*
X50511Y-36574D03*
G54D11*
X54448Y-38543D03*
X53897Y-38543D03*
X49685Y-40629D03*
X49133Y-40629D03*
X50885Y-39350D03*
X50334Y-39350D03*
X48937Y-40019D03*
X49488Y-40019D03*
G54D12*
X53799Y-40688D03*
X53799Y-40137D03*
G54D11*
X49251Y-38464D03*
X49803Y-38464D03*
X50354Y-38090D03*
X50905Y-38090D03*
G54D12*
X51259Y-40629D03*
X51259Y-40078D03*
X51791Y-40629D03*
X51791Y-40078D03*
G54D11*
X53248Y-40551D03*
X52696Y-40551D03*
X54448Y-38031D03*
X53897Y-38031D03*
X56692Y-35866D03*
X56141Y-35866D03*
X56377Y-38818D03*
X56929Y-38818D03*
G54D15*
X55770Y-36538D03*
X56085Y-36538D03*
X56400Y-36538D03*
X56715Y-36538D03*
X57030Y-36538D03*
X57030Y-38062D03*
X56715Y-38062D03*
X56400Y-38062D03*
X56085Y-38062D03*
X55770Y-38062D03*
G54D16*
X55118Y-36890D03*
X55118Y-38228D03*
G54D17*
X55650Y-39250D03*
X55650Y-41350D03*
X55150Y-39250D03*
X54650Y-39250D03*
X54150Y-39250D03*
X55150Y-41350D03*
X54650Y-41350D03*
X54150Y-41350D03*
X57550Y-38150D03*
X57550Y-36050D03*
X58050Y-38150D03*
X58550Y-38150D03*
X59050Y-38150D03*
X58050Y-36050D03*
X58550Y-36050D03*
X59050Y-36050D03*
X57550Y-40950D03*
X57550Y-38850D03*
X58050Y-40950D03*
X58550Y-40950D03*
X59050Y-40950D03*
X58050Y-38850D03*
X58550Y-38850D03*
X59050Y-38850D03*
G54D18*
X49251Y-39478D03*
X49055Y-39478D03*
G54D19*
X49448Y-39458D03*
G54D18*
X49055Y-39025D03*
X49251Y-39025D03*
X49448Y-39025D03*
G54D12*
X55236Y-36259D03*
X55236Y-35708D03*
G54D20*
X48582Y-38444D03*
X48582Y-37657D03*
X48582Y-36082D03*
X48582Y-36870D03*
G54D21*
X59763Y-35944D03*
X59763Y-41220D03*
G54D22*
X49685Y-35905D03*
X50472Y-35787D03*
X51259Y-35905D03*
X52047Y-35787D03*
X52834Y-35905D03*
G54D23*
X54409Y-35905D03*
G54D22*
X53622Y-35787D03*
G54D24*
X49100Y-41299D03*
X53300Y-41299D03*
X49800Y-41299D03*
X50500Y-41299D03*
X51200Y-41299D03*
X51900Y-41299D03*
X52600Y-41299D03*
G54D25*
X59881Y-40332D03*
X59881Y-36832D03*
X59881Y-37532D03*
X59881Y-38232D03*
X59881Y-38932D03*
X59881Y-39632D03*
G54D26*
X54271Y-40472D03*
X50413Y-40236D03*
X53366Y-37637D03*
X54291Y-37007D03*
X51338Y-37559D03*
X51456Y-39094D03*
X50767Y-40472D03*
X55118Y-37480D03*
X52755Y-36456D03*
X51732Y-39429D03*
X52283Y-36476D03*
X49212Y-36476D03*
X48464Y-40019D03*
X58543Y-36594D03*
X58562Y-39685D03*
X56712Y-41456D03*
X48799Y-39783D03*
X48523Y-41279D03*
X55826Y-38503D03*
X51594Y-38720D03*
X54704Y-37677D03*
X50984Y-36830D03*
X54940Y-40374D03*
X53799Y-41299D03*
X55728Y-35885D03*
X52913Y-37795D03*
X51318Y-39507D03*
X52460Y-37874D03*
X52559Y-38484D03*
X52992Y-38543D03*
X56948Y-37637D03*
X53287Y-38248D03*
X56417Y-37047D03*
X50984Y-36417D03*
X51377Y-37992D03*
X59114Y-36574D03*
X57913Y-37342D03*
X58208Y-37657D03*
X58877Y-37421D03*
X52952Y-38956D03*
X56496Y-37637D03*
X55925Y-37322D03*
X53366Y-38838D03*
X51318Y-38405D03*
X53110Y-39724D03*
X53897Y-36811D03*
X52696Y-39724D03*
G54D27*
X49635Y-39025D02*
X50000Y-39389D01*
X50000Y-39822D02*
X50413Y-40236D01*
X50000Y-39389D02*
X50000Y-39822D01*
G54D28*
X49448Y-39025D02*
X49635Y-39025D01*
X49960Y-39350D02*
X50334Y-39350D01*
X49635Y-39025D02*
X49960Y-39350D01*
X49448Y-39025D02*
X49448Y-38818D01*
X49448Y-38818D02*
X49803Y-38464D01*
G54D27*
X50511Y-37086D02*
X50787Y-37086D01*
X51043Y-37342D02*
X51377Y-37342D01*
X50787Y-37086D02*
X51043Y-37342D01*
X50511Y-37086D02*
X50137Y-37086D01*
X50039Y-36988D02*
X50039Y-36259D01*
X50137Y-37086D02*
X50039Y-36988D01*
X50039Y-36259D02*
X49685Y-35905D01*
G54D28*
X53484Y-37519D02*
X53897Y-37519D01*
X53484Y-37519D02*
X53366Y-37637D01*
X53897Y-37519D02*
X53897Y-37401D01*
X53897Y-37401D02*
X54291Y-37007D01*
X50039Y-36259D02*
X49685Y-35905D01*
X51220Y-37440D02*
X51102Y-37440D01*
X51338Y-37559D02*
X51220Y-37440D01*
X50511Y-37086D02*
X50748Y-37086D01*
X50748Y-37086D02*
X51102Y-37440D01*
X51112Y-39734D02*
X50885Y-39507D01*
X50885Y-39507D02*
X50885Y-38779D01*
X51141Y-38779D02*
X50885Y-38779D01*
X51456Y-39094D02*
X51141Y-38779D01*
X52007Y-39724D02*
X51515Y-39724D01*
X51181Y-39803D02*
X51112Y-39734D01*
X51437Y-39803D02*
X51181Y-39803D01*
X51515Y-39724D02*
X51437Y-39803D01*
X52539Y-40196D02*
X53740Y-40196D01*
X52480Y-40196D02*
X52007Y-39724D01*
X52539Y-40196D02*
X52480Y-40196D01*
X53740Y-40196D02*
X53799Y-40137D01*
X53799Y-40137D02*
X53818Y-40118D01*
X53818Y-40118D02*
X54650Y-40118D01*
X54650Y-39250D02*
X54650Y-39921D01*
X54650Y-40767D02*
X54650Y-41350D01*
X54650Y-39921D02*
X54650Y-40118D01*
X54650Y-40118D02*
X54650Y-40767D01*
X49448Y-39458D02*
X49448Y-39980D01*
X49448Y-39980D02*
X49488Y-40019D01*
X49251Y-39478D02*
X49251Y-39783D01*
X49251Y-39783D02*
X49488Y-40019D01*
G54D27*
X49133Y-40629D02*
X49133Y-40531D01*
X49488Y-40177D02*
X49488Y-40019D01*
X49133Y-40531D02*
X49488Y-40177D01*
X49100Y-41299D02*
X49133Y-41266D01*
X49133Y-41266D02*
X49133Y-40629D01*
G54D28*
X51259Y-40078D02*
X50866Y-40472D01*
X50866Y-40472D02*
X50767Y-40472D01*
X51259Y-40078D02*
X51791Y-40078D01*
X52696Y-40551D02*
X52263Y-40551D01*
X52263Y-40551D02*
X51791Y-40078D01*
G54D27*
X55236Y-36259D02*
X55236Y-36771D01*
X55236Y-36771D02*
X55118Y-36890D01*
G54D28*
X55770Y-36538D02*
X55514Y-36538D01*
X55514Y-36538D02*
X55236Y-36259D01*
X55236Y-36771D02*
X55118Y-36890D01*
G54D27*
X55118Y-36890D02*
X55118Y-37480D01*
G54D29*
X58550Y-40950D02*
X59050Y-40950D01*
X57550Y-40950D02*
X58050Y-40950D01*
X58050Y-40950D02*
X58550Y-40950D01*
X59050Y-40950D02*
X59343Y-40950D01*
X59343Y-40950D02*
X59700Y-41306D01*
G54D28*
X51988Y-39429D02*
X51732Y-39429D01*
X53090Y-40019D02*
X53228Y-40019D01*
X52578Y-40019D02*
X51988Y-39429D01*
X53090Y-40019D02*
X52618Y-40019D01*
X52618Y-40019D02*
X52578Y-40019D01*
X53897Y-39015D02*
X53897Y-38543D01*
X53228Y-40019D02*
X53897Y-39350D01*
X53897Y-39350D02*
X53897Y-39015D01*
X53897Y-38031D02*
X53897Y-38543D01*
X49094Y-36929D02*
X48622Y-36929D01*
X49192Y-36830D02*
X49094Y-36929D01*
X49488Y-36830D02*
X49192Y-36830D01*
X48622Y-36929D02*
X48582Y-36889D01*
X49094Y-36122D02*
X48602Y-36122D01*
X49507Y-36338D02*
X49291Y-36122D01*
X49291Y-36122D02*
X49094Y-36122D01*
X49488Y-37086D02*
X49744Y-37086D01*
X49744Y-36338D02*
X49527Y-36338D01*
X49822Y-36417D02*
X49744Y-36338D01*
X49822Y-37007D02*
X49822Y-36417D01*
X49744Y-37086D02*
X49822Y-37007D01*
X49527Y-36338D02*
X49507Y-36338D01*
X48602Y-36122D02*
X48582Y-36102D01*
X49311Y-36574D02*
X49212Y-36476D01*
X49488Y-36574D02*
X49311Y-36574D01*
G54D27*
X58550Y-36050D02*
X58550Y-36587D01*
X58550Y-36587D02*
X58543Y-36594D01*
G54D28*
X58550Y-36587D02*
X58543Y-36594D01*
G54D27*
X48582Y-37657D02*
X49133Y-37657D01*
X49133Y-37657D02*
X49330Y-37854D01*
X57559Y-35642D02*
X57559Y-36040D01*
X57559Y-36040D02*
X57550Y-36050D01*
X58051Y-35642D02*
X58051Y-36048D01*
X58051Y-36048D02*
X58050Y-36050D01*
X58550Y-35642D02*
X58051Y-35642D01*
X58051Y-35642D02*
X57559Y-35642D01*
X57559Y-35642D02*
X57290Y-35642D01*
X57290Y-35642D02*
X57263Y-35669D01*
X59763Y-35944D02*
X59448Y-35629D01*
X58550Y-35642D02*
X58550Y-36050D01*
X58562Y-35629D02*
X58550Y-35642D01*
X59448Y-35629D02*
X58562Y-35629D01*
G54D28*
X48799Y-39783D02*
X48582Y-39566D01*
X48582Y-39566D02*
X48582Y-39527D01*
X48937Y-39921D02*
X48937Y-40019D01*
X48799Y-39783D02*
X48937Y-39921D01*
G54D29*
X58050Y-36050D02*
X58550Y-36050D01*
X57550Y-36050D02*
X58050Y-36050D01*
G54D28*
X49055Y-39025D02*
X49045Y-39015D01*
X49045Y-39015D02*
X48858Y-39015D01*
X49055Y-39478D02*
X49045Y-39488D01*
X49045Y-39488D02*
X48858Y-39488D01*
X48937Y-40019D02*
X49055Y-39901D01*
X49055Y-39901D02*
X49055Y-39478D01*
X49055Y-39025D02*
X49055Y-39478D01*
X49055Y-39025D02*
X49055Y-38661D01*
X49055Y-38661D02*
X49251Y-38464D01*
G54D27*
X49685Y-40629D02*
X49800Y-40745D01*
X49800Y-40745D02*
X49800Y-41299D01*
X48937Y-40019D02*
X48523Y-40433D01*
X48523Y-40433D02*
X48523Y-41279D01*
G54D28*
X56085Y-38484D02*
X55846Y-38484D01*
X55846Y-38484D02*
X55826Y-38503D01*
X56085Y-38062D02*
X56085Y-38484D01*
X56085Y-38484D02*
X56085Y-38525D01*
X56085Y-38525D02*
X56377Y-38818D01*
X54704Y-37677D02*
X54547Y-37519D01*
X54547Y-37519D02*
X54448Y-37519D01*
X54448Y-37933D02*
X54448Y-38031D01*
X54704Y-37677D02*
X54448Y-37933D01*
X50511Y-36830D02*
X50984Y-36830D01*
X50984Y-36830D02*
X51338Y-36830D01*
X51338Y-36830D02*
X51377Y-36791D01*
X55150Y-40583D02*
X55150Y-41350D01*
X54940Y-40374D02*
X55150Y-40583D01*
X55551Y-35708D02*
X55236Y-35708D01*
X55728Y-35885D02*
X55551Y-35708D01*
G54D30*
X57550Y-36050D02*
X58550Y-36050D01*
G54D28*
X51791Y-40629D02*
X51929Y-40767D01*
X51929Y-40767D02*
X52145Y-40767D01*
X52600Y-41299D02*
X52600Y-41222D01*
X52600Y-41222D02*
X52145Y-40767D01*
X51900Y-41299D02*
X51900Y-41270D01*
X51900Y-41270D02*
X51259Y-40629D01*
X53300Y-41299D02*
X53300Y-40603D01*
X53300Y-40603D02*
X53248Y-40551D01*
G54D29*
X56600Y-40659D02*
X56983Y-40275D01*
X56983Y-40275D02*
X57933Y-40275D01*
G54D28*
X56600Y-40659D02*
X55915Y-40659D01*
X55915Y-40659D02*
X55650Y-40924D01*
G54D29*
X57933Y-40275D02*
X59824Y-40275D01*
X59824Y-40275D02*
X59881Y-40332D01*
G54D30*
X59824Y-40275D02*
X59881Y-40332D01*
G54D28*
X55650Y-40924D02*
X55650Y-41350D01*
X56715Y-38062D02*
X56715Y-37871D01*
X56715Y-37871D02*
X56948Y-37637D01*
X50511Y-36574D02*
X50826Y-36574D01*
X50826Y-36574D02*
X50984Y-36417D01*
X51377Y-37992D02*
X51338Y-37992D01*
X51338Y-37992D02*
X51023Y-37677D01*
X51023Y-37677D02*
X50669Y-37677D01*
X50511Y-37519D02*
X50511Y-37342D01*
X50669Y-37677D02*
X50511Y-37519D01*
X55770Y-38062D02*
X55770Y-37930D01*
X59050Y-36510D02*
X59050Y-36050D01*
X59114Y-36574D02*
X59050Y-36510D01*
X56358Y-37342D02*
X57913Y-37342D01*
X55770Y-37930D02*
X56358Y-37342D01*
X56604Y-36840D02*
X56811Y-37047D01*
X58720Y-37736D02*
X59271Y-37736D01*
X58031Y-37047D02*
X58720Y-37736D01*
X56811Y-37047D02*
X58031Y-37047D01*
X56400Y-36538D02*
X56400Y-36636D01*
X56400Y-36636D02*
X56604Y-36840D01*
X59220Y-38850D02*
X59050Y-38850D01*
X59271Y-37736D02*
X59330Y-37795D01*
X59330Y-37795D02*
X59330Y-38740D01*
X59330Y-38740D02*
X59220Y-38850D01*
X58671Y-37214D02*
X58454Y-37214D01*
X58454Y-37214D02*
X58090Y-36850D01*
G54D30*
X58550Y-38150D02*
X59050Y-38150D01*
G54D29*
X58050Y-38150D02*
X58050Y-38850D01*
X57550Y-38150D02*
X57550Y-38850D01*
X58050Y-38850D02*
X58550Y-38850D01*
X58550Y-38850D02*
X58550Y-38150D01*
X58550Y-38150D02*
X58050Y-38150D01*
X58050Y-38150D02*
X57550Y-38150D01*
X57550Y-38850D02*
X58050Y-38850D01*
X56600Y-39541D02*
X56770Y-39370D01*
X56770Y-39370D02*
X57283Y-39370D01*
X57283Y-39370D02*
X57550Y-39103D01*
X57550Y-39103D02*
X57550Y-38850D01*
G54D28*
X55650Y-39250D02*
X55941Y-39541D01*
X55941Y-39541D02*
X56600Y-39541D01*
X58090Y-36850D02*
X57952Y-36850D01*
X58877Y-37421D02*
X58671Y-37214D01*
X56715Y-36672D02*
X56892Y-36850D01*
X56715Y-36538D02*
X56715Y-36672D01*
X56892Y-36850D02*
X57952Y-36850D01*
X58050Y-37816D02*
X58050Y-38150D01*
X58208Y-37657D02*
X58050Y-37816D01*
G54D27*
X58550Y-38850D02*
X58550Y-38150D01*
X57550Y-38850D02*
X58550Y-38850D01*
X59050Y-38150D02*
X57550Y-38150D01*
G54D28*
X56715Y-36538D02*
X56715Y-35888D01*
X56715Y-35888D02*
X56692Y-35866D01*
X55925Y-36830D02*
X55905Y-36850D01*
X55610Y-36929D02*
X55610Y-37775D01*
X55688Y-36850D02*
X55610Y-36929D01*
X55905Y-36850D02*
X55688Y-36850D01*
X56085Y-36538D02*
X56085Y-36670D01*
X56085Y-36670D02*
X55925Y-36830D01*
X55118Y-38228D02*
X55157Y-38228D01*
X55157Y-38228D02*
X55610Y-37775D01*
X56085Y-36538D02*
X56085Y-35922D01*
X56085Y-35922D02*
X56141Y-35866D01*
X57030Y-38062D02*
X57030Y-38718D01*
X57030Y-38718D02*
X56929Y-38818D01*
X54150Y-39250D02*
X54150Y-38842D01*
X54150Y-38842D02*
X54448Y-38543D01*
X56400Y-37733D02*
X56496Y-37637D01*
X56400Y-38062D02*
X56400Y-37733D01*
X51318Y-38405D02*
X51594Y-38405D01*
X51811Y-38188D02*
X51811Y-37598D01*
X51594Y-38405D02*
X51811Y-38188D01*
X51318Y-38405D02*
X51102Y-38188D01*
X51023Y-38188D02*
X50885Y-38051D01*
X51102Y-38188D02*
X51023Y-38188D01*
X51259Y-35905D02*
X51811Y-36456D01*
X51811Y-36456D02*
X51811Y-37598D01*
X52903Y-39517D02*
X52165Y-38779D01*
X52165Y-38779D02*
X52165Y-38622D01*
X52972Y-36909D02*
X52165Y-37716D01*
X52165Y-37716D02*
X52165Y-37992D01*
X52165Y-38070D02*
X52165Y-37992D01*
X52165Y-38070D02*
X52165Y-38622D01*
X53277Y-36604D02*
X52972Y-36909D01*
X53543Y-36338D02*
X53277Y-36604D01*
X53956Y-36338D02*
X53543Y-36338D01*
X54389Y-35905D02*
X53956Y-36338D01*
X54409Y-35905D02*
X54389Y-35905D01*
X52903Y-39517D02*
X52952Y-39566D01*
X53110Y-39724D02*
X52952Y-39566D01*
X52962Y-36683D02*
X51988Y-37657D01*
X51988Y-37657D02*
X51988Y-38228D01*
X53051Y-36594D02*
X52962Y-36683D01*
X53622Y-36023D02*
X53100Y-36545D01*
X53622Y-35826D02*
X53622Y-36023D01*
X53100Y-36545D02*
X53051Y-36594D01*
X51988Y-39015D02*
X52696Y-39724D01*
X51988Y-38228D02*
X51988Y-39015D01*
G54D10*
G36*
X48856Y-40881D02*
X48817Y-40906D01*
X48731Y-41036D01*
X48700Y-41189D01*
X48700Y-41409D01*
X48731Y-41562D01*
X48731Y-41562D01*
X48315Y-41562D01*
X48315Y-40290D01*
X48403Y-40327D01*
X48525Y-40327D01*
X48567Y-40309D01*
X48587Y-40358D01*
X48657Y-40428D01*
X48749Y-40466D01*
X48824Y-40466D01*
X48846Y-40444D01*
X48846Y-40462D01*
X48846Y-40856D01*
X48856Y-40881D01*
X48856Y-40881D01*
G37*
G54D31*
X48856Y-40881D02*
X48817Y-40906D01*
X48731Y-41036D01*
X48700Y-41189D01*
X48700Y-41409D01*
X48731Y-41562D01*
X48731Y-41562D01*
X48315Y-41562D01*
X48315Y-40290D01*
X48403Y-40327D01*
X48525Y-40327D01*
X48567Y-40309D01*
X48587Y-40358D01*
X48657Y-40428D01*
X48749Y-40466D01*
X48824Y-40466D01*
X48846Y-40444D01*
X48846Y-40462D01*
X48846Y-40856D01*
X48856Y-40881D01*
G54D10*
G36*
X48994Y-40069D02*
X48987Y-40069D01*
X48987Y-40077D01*
X48887Y-40077D01*
X48887Y-40069D01*
X48879Y-40069D01*
X48879Y-39969D01*
X48887Y-39969D01*
X48887Y-39961D01*
X48987Y-39961D01*
X48987Y-39969D01*
X48994Y-39969D01*
X48994Y-40069D01*
X48994Y-40069D01*
G37*
G54D31*
X48994Y-40069D02*
X48987Y-40069D01*
X48987Y-40077D01*
X48887Y-40077D01*
X48887Y-40069D01*
X48879Y-40069D01*
X48879Y-39969D01*
X48887Y-39969D01*
X48887Y-39961D01*
X48987Y-39961D01*
X48987Y-39969D01*
X48994Y-39969D01*
X48994Y-40069D01*
G54D10*
G36*
X49046Y-39536D02*
X49027Y-39536D01*
X49027Y-39528D01*
X48812Y-39528D01*
X48768Y-39572D01*
X48749Y-39572D01*
X48657Y-39610D01*
X48587Y-39681D01*
X48567Y-39729D01*
X48525Y-39712D01*
X48403Y-39712D01*
X48315Y-39748D01*
X48315Y-38858D01*
X48485Y-38929D01*
X48678Y-38929D01*
X48749Y-38900D01*
X48749Y-38927D01*
X48750Y-38913D01*
X48812Y-38975D01*
X49027Y-38975D01*
X49027Y-38967D01*
X49046Y-38967D01*
X49046Y-39080D01*
X49027Y-39080D01*
X49027Y-39075D01*
X48812Y-39075D01*
X48750Y-39138D01*
X48749Y-39123D01*
X48750Y-39223D01*
X48761Y-39251D01*
X48750Y-39280D01*
X48749Y-39380D01*
X48750Y-39365D01*
X48812Y-39428D01*
X49027Y-39428D01*
X49027Y-39423D01*
X49046Y-39423D01*
X49046Y-39536D01*
X49046Y-39536D01*
G37*
G54D31*
X49046Y-39536D02*
X49027Y-39536D01*
X49027Y-39528D01*
X48812Y-39528D01*
X48768Y-39572D01*
X48749Y-39572D01*
X48657Y-39610D01*
X48587Y-39681D01*
X48567Y-39729D01*
X48525Y-39712D01*
X48403Y-39712D01*
X48315Y-39748D01*
X48315Y-38858D01*
X48485Y-38929D01*
X48678Y-38929D01*
X48749Y-38900D01*
X48749Y-38927D01*
X48750Y-38913D01*
X48812Y-38975D01*
X49027Y-38975D01*
X49027Y-38967D01*
X49046Y-38967D01*
X49046Y-39080D01*
X49027Y-39080D01*
X49027Y-39075D01*
X48812Y-39075D01*
X48750Y-39138D01*
X48749Y-39123D01*
X48750Y-39223D01*
X48761Y-39251D01*
X48750Y-39280D01*
X48749Y-39380D01*
X48750Y-39365D01*
X48812Y-39428D01*
X49027Y-39428D01*
X49027Y-39423D01*
X49046Y-39423D01*
X49046Y-39536D01*
G54D10*
G36*
X49098Y-37292D02*
X49041Y-37292D01*
X49041Y-37332D01*
X48993Y-37317D01*
X48653Y-37657D01*
X48658Y-37663D01*
X48588Y-37733D01*
X48582Y-37728D01*
X48577Y-37733D01*
X48506Y-37663D01*
X48511Y-37657D01*
X48506Y-37651D01*
X48577Y-37581D01*
X48582Y-37586D01*
X48922Y-37246D01*
X48915Y-37222D01*
X48993Y-37144D01*
X49003Y-37119D01*
X49076Y-37119D01*
X49041Y-37204D01*
X49041Y-37235D01*
X49098Y-37292D01*
X49098Y-37292D01*
G37*
G54D31*
X49098Y-37292D02*
X49041Y-37292D01*
X49041Y-37332D01*
X48993Y-37317D01*
X48653Y-37657D01*
X48658Y-37663D01*
X48588Y-37733D01*
X48582Y-37728D01*
X48577Y-37733D01*
X48506Y-37663D01*
X48511Y-37657D01*
X48506Y-37651D01*
X48577Y-37581D01*
X48582Y-37586D01*
X48922Y-37246D01*
X48915Y-37222D01*
X48993Y-37144D01*
X49003Y-37119D01*
X49076Y-37119D01*
X49041Y-37204D01*
X49041Y-37235D01*
X49098Y-37292D01*
G54D10*
G36*
X49858Y-41349D02*
X49850Y-41349D01*
X49850Y-41357D01*
X49750Y-41357D01*
X49750Y-41349D01*
X49742Y-41349D01*
X49742Y-41249D01*
X49750Y-41249D01*
X49750Y-41241D01*
X49850Y-41241D01*
X49850Y-41249D01*
X49858Y-41249D01*
X49858Y-41349D01*
X49858Y-41349D01*
G37*
G54D31*
X49858Y-41349D02*
X49850Y-41349D01*
X49850Y-41357D01*
X49750Y-41357D01*
X49750Y-41349D01*
X49742Y-41349D01*
X49742Y-41249D01*
X49750Y-41249D01*
X49750Y-41241D01*
X49850Y-41241D01*
X49850Y-41249D01*
X49858Y-41249D01*
X49858Y-41349D01*
G54D10*
G36*
X50416Y-37693D02*
X50404Y-37706D01*
X50404Y-38040D01*
X50412Y-38040D01*
X50412Y-38140D01*
X50404Y-38140D01*
X50404Y-38375D01*
X50384Y-38395D01*
X50384Y-38729D01*
X50392Y-38729D01*
X50392Y-38829D01*
X50384Y-38829D01*
X50384Y-38837D01*
X50284Y-38837D01*
X50284Y-38829D01*
X50276Y-38829D01*
X50276Y-38729D01*
X50284Y-38729D01*
X50284Y-38494D01*
X50304Y-38474D01*
X50304Y-38140D01*
X50304Y-38040D01*
X50304Y-37706D01*
X50241Y-37643D01*
X50167Y-37643D01*
X50075Y-37681D01*
X50004Y-37751D01*
X49966Y-37843D01*
X49966Y-37943D01*
X49966Y-37978D01*
X50029Y-38040D01*
X50304Y-38040D01*
X50304Y-38140D01*
X50029Y-38140D01*
X50027Y-38142D01*
X50026Y-38140D01*
X49970Y-38117D01*
X49935Y-38117D01*
X49935Y-37480D01*
X49935Y-37449D01*
X49872Y-37386D01*
X49538Y-37386D01*
X49538Y-37618D01*
X49600Y-37681D01*
X49635Y-37681D01*
X49734Y-37681D01*
X49826Y-37642D01*
X49897Y-37572D01*
X49935Y-37480D01*
X49935Y-38117D01*
X49911Y-38117D01*
X49635Y-38117D01*
X49603Y-38130D01*
X49601Y-38125D01*
X49531Y-38055D01*
X49439Y-38017D01*
X49438Y-38017D01*
X49364Y-38017D01*
X49301Y-38080D01*
X49301Y-38414D01*
X49309Y-38414D01*
X49309Y-38514D01*
X49301Y-38514D01*
X49301Y-38522D01*
X49201Y-38522D01*
X49201Y-38514D01*
X49194Y-38514D01*
X49194Y-38414D01*
X49201Y-38414D01*
X49201Y-38080D01*
X49139Y-38017D01*
X49064Y-38017D01*
X49028Y-38032D01*
X48993Y-37997D01*
X49092Y-37966D01*
X49171Y-37747D01*
X49167Y-37650D01*
X49241Y-37681D01*
X49340Y-37681D01*
X49375Y-37681D01*
X49438Y-37618D01*
X49438Y-37386D01*
X49430Y-37386D01*
X49430Y-37325D01*
X49714Y-37325D01*
X49769Y-37302D01*
X49774Y-37298D01*
X49872Y-37298D01*
X49935Y-37235D01*
X49935Y-37207D01*
X49976Y-37248D01*
X50050Y-37297D01*
X50137Y-37315D01*
X50164Y-37315D01*
X50164Y-37460D01*
X50187Y-37515D01*
X50229Y-37558D01*
X50284Y-37581D01*
X50333Y-37581D01*
X50336Y-37592D01*
X50377Y-37654D01*
X50416Y-37693D01*
X50416Y-37693D01*
G37*
G54D31*
X50416Y-37693D02*
X50404Y-37706D01*
X50404Y-38040D01*
X50412Y-38040D01*
X50412Y-38140D01*
X50404Y-38140D01*
X50404Y-38375D01*
X50384Y-38395D01*
X50384Y-38729D01*
X50392Y-38729D01*
X50392Y-38829D01*
X50384Y-38829D01*
X50384Y-38837D01*
X50284Y-38837D01*
X50284Y-38829D01*
X50276Y-38829D01*
X50276Y-38729D01*
X50284Y-38729D01*
X50284Y-38494D01*
X50304Y-38474D01*
X50304Y-38140D01*
X50304Y-38040D01*
X50304Y-37706D01*
X50241Y-37643D01*
X50167Y-37643D01*
X50075Y-37681D01*
X50004Y-37751D01*
X49966Y-37843D01*
X49966Y-37943D01*
X49966Y-37978D01*
X50029Y-38040D01*
X50304Y-38040D01*
X50304Y-38140D01*
X50029Y-38140D01*
X50027Y-38142D01*
X50026Y-38140D01*
X49970Y-38117D01*
X49935Y-38117D01*
X49935Y-37480D01*
X49935Y-37449D01*
X49872Y-37386D01*
X49538Y-37386D01*
X49538Y-37618D01*
X49600Y-37681D01*
X49635Y-37681D01*
X49734Y-37681D01*
X49826Y-37642D01*
X49897Y-37572D01*
X49935Y-37480D01*
X49935Y-38117D01*
X49911Y-38117D01*
X49635Y-38117D01*
X49603Y-38130D01*
X49601Y-38125D01*
X49531Y-38055D01*
X49439Y-38017D01*
X49438Y-38017D01*
X49364Y-38017D01*
X49301Y-38080D01*
X49301Y-38414D01*
X49309Y-38414D01*
X49309Y-38514D01*
X49301Y-38514D01*
X49301Y-38522D01*
X49201Y-38522D01*
X49201Y-38514D01*
X49194Y-38514D01*
X49194Y-38414D01*
X49201Y-38414D01*
X49201Y-38080D01*
X49139Y-38017D01*
X49064Y-38017D01*
X49028Y-38032D01*
X48993Y-37997D01*
X49092Y-37966D01*
X49171Y-37747D01*
X49167Y-37650D01*
X49241Y-37681D01*
X49340Y-37681D01*
X49375Y-37681D01*
X49438Y-37618D01*
X49438Y-37386D01*
X49430Y-37386D01*
X49430Y-37325D01*
X49714Y-37325D01*
X49769Y-37302D01*
X49774Y-37298D01*
X49872Y-37298D01*
X49935Y-37235D01*
X49935Y-37207D01*
X49976Y-37248D01*
X50050Y-37297D01*
X50137Y-37315D01*
X50164Y-37315D01*
X50164Y-37460D01*
X50187Y-37515D01*
X50229Y-37558D01*
X50284Y-37581D01*
X50333Y-37581D01*
X50336Y-37592D01*
X50377Y-37654D01*
X50416Y-37693D01*
G54D10*
G36*
X50548Y-35792D02*
X50478Y-35863D01*
X50472Y-35858D01*
X50466Y-35863D01*
X50396Y-35792D01*
X50401Y-35787D01*
X50396Y-35781D01*
X50466Y-35711D01*
X50472Y-35716D01*
X50478Y-35711D01*
X50548Y-35781D01*
X50543Y-35787D01*
X50548Y-35792D01*
X50548Y-35792D01*
G37*
G54D31*
X50548Y-35792D02*
X50478Y-35863D01*
X50472Y-35858D01*
X50466Y-35863D01*
X50396Y-35792D01*
X50401Y-35787D01*
X50396Y-35781D01*
X50466Y-35711D01*
X50472Y-35716D01*
X50478Y-35711D01*
X50548Y-35781D01*
X50543Y-35787D01*
X50548Y-35792D01*
G54D10*
G36*
X50960Y-40877D02*
X50917Y-40906D01*
X50850Y-41007D01*
X50783Y-40906D01*
X50653Y-40819D01*
X50500Y-40789D01*
X50347Y-40819D01*
X50217Y-40906D01*
X50209Y-40919D01*
X50118Y-40810D01*
X50072Y-40785D01*
X50072Y-40777D01*
X50072Y-40742D01*
X50010Y-40679D01*
X49735Y-40679D01*
X49735Y-40687D01*
X49635Y-40687D01*
X49635Y-40679D01*
X49627Y-40679D01*
X49627Y-40579D01*
X49635Y-40579D01*
X49635Y-40572D01*
X49735Y-40572D01*
X49735Y-40579D01*
X50010Y-40579D01*
X50072Y-40517D01*
X50072Y-40482D01*
X50072Y-40383D01*
X50034Y-40291D01*
X49964Y-40221D01*
X49872Y-40183D01*
X49797Y-40183D01*
X49775Y-40204D01*
X49776Y-40186D01*
X49776Y-39846D01*
X49788Y-39910D01*
X49838Y-39984D01*
X50105Y-40252D01*
X50105Y-40297D01*
X50152Y-40410D01*
X50238Y-40496D01*
X50351Y-40543D01*
X50464Y-40543D01*
X50506Y-40646D01*
X50593Y-40732D01*
X50706Y-40779D01*
X50828Y-40779D01*
X50912Y-40745D01*
X50912Y-40797D01*
X50935Y-40852D01*
X50960Y-40877D01*
X50960Y-40877D01*
G37*
G54D31*
X50960Y-40877D02*
X50917Y-40906D01*
X50850Y-41007D01*
X50783Y-40906D01*
X50653Y-40819D01*
X50500Y-40789D01*
X50347Y-40819D01*
X50217Y-40906D01*
X50209Y-40919D01*
X50118Y-40810D01*
X50072Y-40785D01*
X50072Y-40777D01*
X50072Y-40742D01*
X50010Y-40679D01*
X49735Y-40679D01*
X49735Y-40687D01*
X49635Y-40687D01*
X49635Y-40679D01*
X49627Y-40679D01*
X49627Y-40579D01*
X49635Y-40579D01*
X49635Y-40572D01*
X49735Y-40572D01*
X49735Y-40579D01*
X50010Y-40579D01*
X50072Y-40517D01*
X50072Y-40482D01*
X50072Y-40383D01*
X50034Y-40291D01*
X49964Y-40221D01*
X49872Y-40183D01*
X49797Y-40183D01*
X49775Y-40204D01*
X49776Y-40186D01*
X49776Y-39846D01*
X49788Y-39910D01*
X49838Y-39984D01*
X50105Y-40252D01*
X50105Y-40297D01*
X50152Y-40410D01*
X50238Y-40496D01*
X50351Y-40543D01*
X50464Y-40543D01*
X50506Y-40646D01*
X50593Y-40732D01*
X50706Y-40779D01*
X50828Y-40779D01*
X50912Y-40745D01*
X50912Y-40797D01*
X50935Y-40852D01*
X50960Y-40877D01*
G54D10*
G36*
X51489Y-36404D02*
X51427Y-36466D01*
X51427Y-36741D01*
X51435Y-36741D01*
X51435Y-36841D01*
X51427Y-36841D01*
X51427Y-36849D01*
X51327Y-36849D01*
X51327Y-36841D01*
X50993Y-36841D01*
X50931Y-36903D01*
X50931Y-36909D01*
X50896Y-36875D01*
X50873Y-36875D01*
X50787Y-36857D01*
X50762Y-36857D01*
X50738Y-36848D01*
X50678Y-36848D01*
X50453Y-36848D01*
X50453Y-36813D01*
X50738Y-36813D01*
X50793Y-36790D01*
X50797Y-36786D01*
X50896Y-36786D01*
X50957Y-36724D01*
X50977Y-36724D01*
X50993Y-36741D01*
X51327Y-36741D01*
X51327Y-36466D01*
X51291Y-36429D01*
X51291Y-36356D01*
X51289Y-36350D01*
X51348Y-36350D01*
X51410Y-36325D01*
X51489Y-36404D01*
X51489Y-36404D01*
G37*
G54D31*
X51489Y-36404D02*
X51427Y-36466D01*
X51427Y-36741D01*
X51435Y-36741D01*
X51435Y-36841D01*
X51427Y-36841D01*
X51427Y-36849D01*
X51327Y-36849D01*
X51327Y-36841D01*
X50993Y-36841D01*
X50931Y-36903D01*
X50931Y-36909D01*
X50896Y-36875D01*
X50873Y-36875D01*
X50787Y-36857D01*
X50762Y-36857D01*
X50738Y-36848D01*
X50678Y-36848D01*
X50453Y-36848D01*
X50453Y-36813D01*
X50738Y-36813D01*
X50793Y-36790D01*
X50797Y-36786D01*
X50896Y-36786D01*
X50957Y-36724D01*
X50977Y-36724D01*
X50993Y-36741D01*
X51327Y-36741D01*
X51327Y-36466D01*
X51291Y-36429D01*
X51291Y-36356D01*
X51289Y-36350D01*
X51348Y-36350D01*
X51410Y-36325D01*
X51489Y-36404D01*
G54D10*
G36*
X51850Y-39145D02*
X51793Y-39121D01*
X51764Y-39121D01*
X51764Y-39033D01*
X51717Y-38920D01*
X51631Y-38833D01*
X51518Y-38787D01*
X51418Y-38786D01*
X51344Y-38713D01*
X51379Y-38713D01*
X51492Y-38666D01*
X51563Y-38595D01*
X51594Y-38595D01*
X51594Y-38595D01*
X51594Y-38595D01*
X51667Y-38581D01*
X51728Y-38539D01*
X51798Y-38470D01*
X51798Y-39015D01*
X51798Y-39015D01*
X51812Y-39088D01*
X51850Y-39145D01*
X51850Y-39145D01*
G37*
G54D31*
X51850Y-39145D02*
X51793Y-39121D01*
X51764Y-39121D01*
X51764Y-39033D01*
X51717Y-38920D01*
X51631Y-38833D01*
X51518Y-38787D01*
X51418Y-38786D01*
X51344Y-38713D01*
X51379Y-38713D01*
X51492Y-38666D01*
X51563Y-38595D01*
X51594Y-38595D01*
X51594Y-38595D01*
X51594Y-38595D01*
X51667Y-38581D01*
X51728Y-38539D01*
X51798Y-38470D01*
X51798Y-39015D01*
X51798Y-39015D01*
X51812Y-39088D01*
X51850Y-39145D01*
G54D10*
G36*
X53908Y-41073D02*
X53900Y-41095D01*
X53899Y-41154D01*
X53899Y-41562D01*
X53669Y-41562D01*
X53670Y-41562D01*
X53700Y-41409D01*
X53700Y-41189D01*
X53678Y-41076D01*
X53686Y-41076D01*
X53749Y-41014D01*
X53749Y-40738D01*
X53741Y-40738D01*
X53741Y-40638D01*
X53749Y-40638D01*
X53749Y-40631D01*
X53849Y-40631D01*
X53849Y-40638D01*
X53857Y-40638D01*
X53857Y-40738D01*
X53849Y-40738D01*
X53849Y-41014D01*
X53908Y-41073D01*
X53908Y-41073D01*
G37*
G54D31*
X53908Y-41073D02*
X53900Y-41095D01*
X53899Y-41154D01*
X53899Y-41562D01*
X53669Y-41562D01*
X53670Y-41562D01*
X53700Y-41409D01*
X53700Y-41189D01*
X53678Y-41076D01*
X53686Y-41076D01*
X53749Y-41014D01*
X53749Y-40738D01*
X53741Y-40738D01*
X53741Y-40638D01*
X53749Y-40638D01*
X53749Y-40631D01*
X53849Y-40631D01*
X53849Y-40638D01*
X53857Y-40638D01*
X53857Y-40738D01*
X53849Y-40738D01*
X53849Y-41014D01*
X53908Y-41073D01*
G54D10*
G36*
X54506Y-38081D02*
X54498Y-38081D01*
X54498Y-38089D01*
X54398Y-38089D01*
X54398Y-38081D01*
X54390Y-38081D01*
X54390Y-37981D01*
X54398Y-37981D01*
X54398Y-37904D01*
X54398Y-37647D01*
X54398Y-37569D01*
X54390Y-37569D01*
X54390Y-37469D01*
X54398Y-37469D01*
X54398Y-37461D01*
X54498Y-37461D01*
X54498Y-37469D01*
X54506Y-37469D01*
X54506Y-37569D01*
X54498Y-37569D01*
X54498Y-37647D01*
X54498Y-37904D01*
X54498Y-37981D01*
X54506Y-37981D01*
X54506Y-38081D01*
X54506Y-38081D01*
G37*
G54D31*
X54506Y-38081D02*
X54498Y-38081D01*
X54498Y-38089D01*
X54398Y-38089D01*
X54398Y-38081D01*
X54390Y-38081D01*
X54390Y-37981D01*
X54398Y-37981D01*
X54398Y-37904D01*
X54398Y-37647D01*
X54398Y-37569D01*
X54390Y-37569D01*
X54390Y-37469D01*
X54398Y-37469D01*
X54398Y-37461D01*
X54498Y-37461D01*
X54498Y-37469D01*
X54506Y-37469D01*
X54506Y-37569D01*
X54498Y-37569D01*
X54498Y-37647D01*
X54498Y-37904D01*
X54498Y-37981D01*
X54506Y-37981D01*
X54506Y-38081D01*
G54D10*
G36*
X55894Y-36231D02*
X55862Y-36218D01*
X55803Y-36218D01*
X55677Y-36218D01*
X55622Y-36241D01*
X55583Y-36280D01*
X55583Y-36092D01*
X55569Y-36060D01*
X55574Y-36058D01*
X55645Y-35987D01*
X55683Y-35895D01*
X55683Y-35821D01*
X55620Y-35758D01*
X55286Y-35758D01*
X55286Y-35766D01*
X55186Y-35766D01*
X55186Y-35758D01*
X55178Y-35758D01*
X55178Y-35658D01*
X55186Y-35658D01*
X55186Y-35650D01*
X55286Y-35650D01*
X55286Y-35658D01*
X55620Y-35658D01*
X55676Y-35602D01*
X55869Y-35602D01*
X55853Y-35639D01*
X55853Y-35698D01*
X55853Y-36092D01*
X55876Y-36147D01*
X55894Y-36166D01*
X55894Y-36231D01*
X55894Y-36231D01*
G37*
G54D31*
X55894Y-36231D02*
X55862Y-36218D01*
X55803Y-36218D01*
X55677Y-36218D01*
X55622Y-36241D01*
X55583Y-36280D01*
X55583Y-36092D01*
X55569Y-36060D01*
X55574Y-36058D01*
X55645Y-35987D01*
X55683Y-35895D01*
X55683Y-35821D01*
X55620Y-35758D01*
X55286Y-35758D01*
X55286Y-35766D01*
X55186Y-35766D01*
X55186Y-35758D01*
X55178Y-35758D01*
X55178Y-35658D01*
X55186Y-35658D01*
X55186Y-35650D01*
X55286Y-35650D01*
X55286Y-35658D01*
X55620Y-35658D01*
X55676Y-35602D01*
X55869Y-35602D01*
X55853Y-35639D01*
X55853Y-35698D01*
X55853Y-36092D01*
X55876Y-36147D01*
X55894Y-36166D01*
X55894Y-36231D01*
G54D10*
G36*
X56142Y-38112D02*
X56116Y-38112D01*
X56116Y-38119D01*
X56053Y-38119D01*
X56053Y-38112D01*
X56027Y-38112D01*
X56027Y-38012D01*
X56053Y-38012D01*
X56053Y-38004D01*
X56116Y-38004D01*
X56116Y-38012D01*
X56142Y-38012D01*
X56142Y-38112D01*
X56142Y-38112D01*
G37*
G54D31*
X56142Y-38112D02*
X56116Y-38112D01*
X56116Y-38119D01*
X56053Y-38119D01*
X56053Y-38112D01*
X56027Y-38112D01*
X56027Y-38012D01*
X56053Y-38012D01*
X56053Y-38004D01*
X56116Y-38004D01*
X56116Y-38012D01*
X56142Y-38012D01*
X56142Y-38112D01*
G54D10*
G36*
X56775Y-40005D02*
X56738Y-40030D01*
X56574Y-40194D01*
X56196Y-40194D01*
X56141Y-40217D01*
X56098Y-40259D01*
X56076Y-40314D01*
X56075Y-40374D01*
X56075Y-40468D01*
X55915Y-40468D01*
X55843Y-40483D01*
X55781Y-40524D01*
X55781Y-40524D01*
X55515Y-40790D01*
X55474Y-40852D01*
X55459Y-40924D01*
X55459Y-40924D01*
X55459Y-40981D01*
X55391Y-40912D01*
X55299Y-40874D01*
X55262Y-40875D01*
X55200Y-40937D01*
X55200Y-41300D01*
X55207Y-41300D01*
X55207Y-41400D01*
X55200Y-41400D01*
X55200Y-41407D01*
X55100Y-41407D01*
X55100Y-41400D01*
X55092Y-41400D01*
X55092Y-41300D01*
X55100Y-41300D01*
X55100Y-40937D01*
X55037Y-40875D01*
X55000Y-40874D01*
X54908Y-40912D01*
X54840Y-40981D01*
X54840Y-40767D01*
X54840Y-40118D01*
X54840Y-39921D01*
X54840Y-39618D01*
X54908Y-39687D01*
X55000Y-39725D01*
X55037Y-39725D01*
X55100Y-39662D01*
X55100Y-39300D01*
X55092Y-39300D01*
X55092Y-39200D01*
X55100Y-39200D01*
X55100Y-38837D01*
X55037Y-38775D01*
X55000Y-38774D01*
X54908Y-38812D01*
X54838Y-38883D01*
X54832Y-38896D01*
X54779Y-38875D01*
X54720Y-38874D01*
X54653Y-38874D01*
X54671Y-38867D01*
X54713Y-38825D01*
X54736Y-38770D01*
X54736Y-38710D01*
X54736Y-38653D01*
X54793Y-38653D01*
X55501Y-38653D01*
X55556Y-38630D01*
X55599Y-38588D01*
X55622Y-38533D01*
X55622Y-38473D01*
X55622Y-38358D01*
X55677Y-38381D01*
X55736Y-38381D01*
X55818Y-38381D01*
X55880Y-38443D01*
X55972Y-38481D01*
X55991Y-38481D01*
X56034Y-38437D01*
X56034Y-38473D01*
X56028Y-38480D01*
X55990Y-38572D01*
X55990Y-38671D01*
X55990Y-38706D01*
X56052Y-38768D01*
X56327Y-38768D01*
X56327Y-38761D01*
X56427Y-38761D01*
X56427Y-38768D01*
X56435Y-38768D01*
X56435Y-38868D01*
X56427Y-38868D01*
X56427Y-38876D01*
X56327Y-38876D01*
X56327Y-38868D01*
X56052Y-38868D01*
X55990Y-38931D01*
X55990Y-38966D01*
X55990Y-39065D01*
X56028Y-39157D01*
X56076Y-39205D01*
X56075Y-39256D01*
X56075Y-39350D01*
X56019Y-39350D01*
X55900Y-39231D01*
X55900Y-38995D01*
X55877Y-38940D01*
X55835Y-38897D01*
X55779Y-38875D01*
X55720Y-38874D01*
X55520Y-38874D01*
X55467Y-38896D01*
X55461Y-38883D01*
X55391Y-38812D01*
X55299Y-38774D01*
X55262Y-38775D01*
X55200Y-38837D01*
X55200Y-39200D01*
X55207Y-39200D01*
X55207Y-39300D01*
X55200Y-39300D01*
X55200Y-39662D01*
X55262Y-39725D01*
X55299Y-39725D01*
X55391Y-39687D01*
X55461Y-39616D01*
X55467Y-39603D01*
X55520Y-39624D01*
X55579Y-39625D01*
X55756Y-39625D01*
X55806Y-39675D01*
X55806Y-39675D01*
X55868Y-39716D01*
X55868Y-39716D01*
X55926Y-39728D01*
X55940Y-39731D01*
X55940Y-39731D01*
X55941Y-39731D01*
X56075Y-39731D01*
X56075Y-39885D01*
X56098Y-39940D01*
X56140Y-39982D01*
X56196Y-40005D01*
X56255Y-40005D01*
X56775Y-40005D01*
X56775Y-40005D01*
G37*
G54D31*
X56775Y-40005D02*
X56738Y-40030D01*
X56574Y-40194D01*
X56196Y-40194D01*
X56141Y-40217D01*
X56098Y-40259D01*
X56076Y-40314D01*
X56075Y-40374D01*
X56075Y-40468D01*
X55915Y-40468D01*
X55843Y-40483D01*
X55781Y-40524D01*
X55781Y-40524D01*
X55515Y-40790D01*
X55474Y-40852D01*
X55459Y-40924D01*
X55459Y-40924D01*
X55459Y-40981D01*
X55391Y-40912D01*
X55299Y-40874D01*
X55262Y-40875D01*
X55200Y-40937D01*
X55200Y-41300D01*
X55207Y-41300D01*
X55207Y-41400D01*
X55200Y-41400D01*
X55200Y-41407D01*
X55100Y-41407D01*
X55100Y-41400D01*
X55092Y-41400D01*
X55092Y-41300D01*
X55100Y-41300D01*
X55100Y-40937D01*
X55037Y-40875D01*
X55000Y-40874D01*
X54908Y-40912D01*
X54840Y-40981D01*
X54840Y-40767D01*
X54840Y-40118D01*
X54840Y-39921D01*
X54840Y-39618D01*
X54908Y-39687D01*
X55000Y-39725D01*
X55037Y-39725D01*
X55100Y-39662D01*
X55100Y-39300D01*
X55092Y-39300D01*
X55092Y-39200D01*
X55100Y-39200D01*
X55100Y-38837D01*
X55037Y-38775D01*
X55000Y-38774D01*
X54908Y-38812D01*
X54838Y-38883D01*
X54832Y-38896D01*
X54779Y-38875D01*
X54720Y-38874D01*
X54653Y-38874D01*
X54671Y-38867D01*
X54713Y-38825D01*
X54736Y-38770D01*
X54736Y-38710D01*
X54736Y-38653D01*
X54793Y-38653D01*
X55501Y-38653D01*
X55556Y-38630D01*
X55599Y-38588D01*
X55622Y-38533D01*
X55622Y-38473D01*
X55622Y-38358D01*
X55677Y-38381D01*
X55736Y-38381D01*
X55818Y-38381D01*
X55880Y-38443D01*
X55972Y-38481D01*
X55991Y-38481D01*
X56034Y-38437D01*
X56034Y-38473D01*
X56028Y-38480D01*
X55990Y-38572D01*
X55990Y-38671D01*
X55990Y-38706D01*
X56052Y-38768D01*
X56327Y-38768D01*
X56327Y-38761D01*
X56427Y-38761D01*
X56427Y-38768D01*
X56435Y-38768D01*
X56435Y-38868D01*
X56427Y-38868D01*
X56427Y-38876D01*
X56327Y-38876D01*
X56327Y-38868D01*
X56052Y-38868D01*
X55990Y-38931D01*
X55990Y-38966D01*
X55990Y-39065D01*
X56028Y-39157D01*
X56076Y-39205D01*
X56075Y-39256D01*
X56075Y-39350D01*
X56019Y-39350D01*
X55900Y-39231D01*
X55900Y-38995D01*
X55877Y-38940D01*
X55835Y-38897D01*
X55779Y-38875D01*
X55720Y-38874D01*
X55520Y-38874D01*
X55467Y-38896D01*
X55461Y-38883D01*
X55391Y-38812D01*
X55299Y-38774D01*
X55262Y-38775D01*
X55200Y-38837D01*
X55200Y-39200D01*
X55207Y-39200D01*
X55207Y-39300D01*
X55200Y-39300D01*
X55200Y-39662D01*
X55262Y-39725D01*
X55299Y-39725D01*
X55391Y-39687D01*
X55461Y-39616D01*
X55467Y-39603D01*
X55520Y-39624D01*
X55579Y-39625D01*
X55756Y-39625D01*
X55806Y-39675D01*
X55806Y-39675D01*
X55868Y-39716D01*
X55868Y-39716D01*
X55926Y-39728D01*
X55940Y-39731D01*
X55940Y-39731D01*
X55941Y-39731D01*
X56075Y-39731D01*
X56075Y-39885D01*
X56098Y-39940D01*
X56140Y-39982D01*
X56196Y-40005D01*
X56255Y-40005D01*
X56775Y-40005D01*
G54D10*
G36*
X59220Y-41562D02*
X59173Y-41562D01*
X55900Y-41562D01*
X55900Y-41545D01*
X55900Y-41095D01*
X55877Y-41040D01*
X55840Y-41003D01*
X55994Y-40849D01*
X56075Y-40849D01*
X56075Y-41003D01*
X56098Y-41058D01*
X56140Y-41100D01*
X56196Y-41123D01*
X56255Y-41123D01*
X57003Y-41123D01*
X57058Y-41100D01*
X57101Y-41058D01*
X57123Y-41003D01*
X57124Y-40943D01*
X57124Y-40625D01*
X57127Y-40622D01*
X57340Y-40622D01*
X57322Y-40639D01*
X57300Y-40695D01*
X57300Y-40711D01*
X57229Y-40817D01*
X57203Y-40950D01*
X57229Y-41082D01*
X57299Y-41188D01*
X57299Y-41204D01*
X57322Y-41259D01*
X57364Y-41302D01*
X57420Y-41324D01*
X57479Y-41325D01*
X57679Y-41325D01*
X57734Y-41302D01*
X57740Y-41296D01*
X57859Y-41296D01*
X57864Y-41302D01*
X57920Y-41324D01*
X57979Y-41325D01*
X58179Y-41325D01*
X58234Y-41302D01*
X58240Y-41296D01*
X58359Y-41296D01*
X58364Y-41302D01*
X58420Y-41324D01*
X58479Y-41325D01*
X58679Y-41325D01*
X58734Y-41302D01*
X58740Y-41296D01*
X58859Y-41296D01*
X58864Y-41302D01*
X58920Y-41324D01*
X58979Y-41325D01*
X59179Y-41325D01*
X59214Y-41310D01*
X59220Y-41316D01*
X59220Y-41562D01*
X59220Y-41562D01*
G37*
G54D31*
X59220Y-41562D02*
X59173Y-41562D01*
X55900Y-41562D01*
X55900Y-41545D01*
X55900Y-41095D01*
X55877Y-41040D01*
X55840Y-41003D01*
X55994Y-40849D01*
X56075Y-40849D01*
X56075Y-41003D01*
X56098Y-41058D01*
X56140Y-41100D01*
X56196Y-41123D01*
X56255Y-41123D01*
X57003Y-41123D01*
X57058Y-41100D01*
X57101Y-41058D01*
X57123Y-41003D01*
X57124Y-40943D01*
X57124Y-40625D01*
X57127Y-40622D01*
X57340Y-40622D01*
X57322Y-40639D01*
X57300Y-40695D01*
X57300Y-40711D01*
X57229Y-40817D01*
X57203Y-40950D01*
X57229Y-41082D01*
X57299Y-41188D01*
X57299Y-41204D01*
X57322Y-41259D01*
X57364Y-41302D01*
X57420Y-41324D01*
X57479Y-41325D01*
X57679Y-41325D01*
X57734Y-41302D01*
X57740Y-41296D01*
X57859Y-41296D01*
X57864Y-41302D01*
X57920Y-41324D01*
X57979Y-41325D01*
X58179Y-41325D01*
X58234Y-41302D01*
X58240Y-41296D01*
X58359Y-41296D01*
X58364Y-41302D01*
X58420Y-41324D01*
X58479Y-41325D01*
X58679Y-41325D01*
X58734Y-41302D01*
X58740Y-41296D01*
X58859Y-41296D01*
X58864Y-41302D01*
X58920Y-41324D01*
X58979Y-41325D01*
X59179Y-41325D01*
X59214Y-41310D01*
X59220Y-41316D01*
X59220Y-41562D01*
G54D10*
G36*
X59509Y-39928D02*
X57933Y-39928D01*
X57106Y-39928D01*
X57123Y-39885D01*
X57124Y-39825D01*
X57124Y-39716D01*
X57283Y-39716D01*
X57416Y-39690D01*
X57528Y-39615D01*
X57795Y-39348D01*
X57870Y-39236D01*
X57870Y-39236D01*
X57876Y-39206D01*
X57920Y-39224D01*
X57979Y-39225D01*
X58179Y-39225D01*
X58234Y-39202D01*
X58240Y-39196D01*
X58359Y-39196D01*
X58364Y-39202D01*
X58420Y-39224D01*
X58479Y-39225D01*
X58679Y-39225D01*
X58734Y-39202D01*
X58777Y-39160D01*
X58799Y-39104D01*
X58799Y-39104D01*
X58822Y-39159D01*
X58864Y-39202D01*
X58920Y-39224D01*
X58979Y-39225D01*
X59179Y-39225D01*
X59234Y-39202D01*
X59277Y-39160D01*
X59299Y-39104D01*
X59300Y-39071D01*
X59300Y-39077D01*
X59392Y-39250D01*
X59502Y-39341D01*
X59489Y-39349D01*
X59402Y-39479D01*
X59372Y-39632D01*
X59402Y-39785D01*
X59489Y-39915D01*
X59509Y-39928D01*
X59509Y-39928D01*
G37*
G54D31*
X59509Y-39928D02*
X57933Y-39928D01*
X57106Y-39928D01*
X57123Y-39885D01*
X57124Y-39825D01*
X57124Y-39716D01*
X57283Y-39716D01*
X57416Y-39690D01*
X57528Y-39615D01*
X57795Y-39348D01*
X57870Y-39236D01*
X57870Y-39236D01*
X57876Y-39206D01*
X57920Y-39224D01*
X57979Y-39225D01*
X58179Y-39225D01*
X58234Y-39202D01*
X58240Y-39196D01*
X58359Y-39196D01*
X58364Y-39202D01*
X58420Y-39224D01*
X58479Y-39225D01*
X58679Y-39225D01*
X58734Y-39202D01*
X58777Y-39160D01*
X58799Y-39104D01*
X58799Y-39104D01*
X58822Y-39159D01*
X58864Y-39202D01*
X58920Y-39224D01*
X58979Y-39225D01*
X59179Y-39225D01*
X59234Y-39202D01*
X59277Y-39160D01*
X59299Y-39104D01*
X59300Y-39071D01*
X59300Y-39077D01*
X59392Y-39250D01*
X59502Y-39341D01*
X59489Y-39349D01*
X59402Y-39479D01*
X59372Y-39632D01*
X59402Y-39785D01*
X59489Y-39915D01*
X59509Y-39928D01*
G54D10*
G36*
X59589Y-37182D02*
X59489Y-37249D01*
X59402Y-37379D01*
X59372Y-37532D01*
X59382Y-37586D01*
X59344Y-37560D01*
X59271Y-37546D01*
X59271Y-37546D01*
X59159Y-37546D01*
X59185Y-37482D01*
X59185Y-37360D01*
X59138Y-37247D01*
X59052Y-37160D01*
X58939Y-37113D01*
X58839Y-37113D01*
X58805Y-37080D01*
X58744Y-37038D01*
X58671Y-37024D01*
X58671Y-37024D01*
X58533Y-37024D01*
X58500Y-36990D01*
X58500Y-36462D01*
X58500Y-36100D01*
X58337Y-36100D01*
X58262Y-36100D01*
X58100Y-36100D01*
X58100Y-36462D01*
X58162Y-36525D01*
X58199Y-36525D01*
X58291Y-36487D01*
X58300Y-36478D01*
X58308Y-36487D01*
X58400Y-36525D01*
X58437Y-36525D01*
X58500Y-36462D01*
X58500Y-36990D01*
X58225Y-36715D01*
X58163Y-36674D01*
X58090Y-36660D01*
X58090Y-36660D01*
X58000Y-36660D01*
X58000Y-36462D01*
X58000Y-36100D01*
X57837Y-36100D01*
X57762Y-36100D01*
X57600Y-36100D01*
X57600Y-36462D01*
X57662Y-36525D01*
X57699Y-36525D01*
X57791Y-36487D01*
X57800Y-36478D01*
X57808Y-36487D01*
X57900Y-36525D01*
X57937Y-36525D01*
X58000Y-36462D01*
X58000Y-36660D01*
X57952Y-36660D01*
X57243Y-36660D01*
X57243Y-36421D01*
X57308Y-36487D01*
X57400Y-36525D01*
X57437Y-36525D01*
X57500Y-36462D01*
X57500Y-36100D01*
X57262Y-36100D01*
X57200Y-36162D01*
X57199Y-36225D01*
X57199Y-36263D01*
X57178Y-36241D01*
X57122Y-36218D01*
X57063Y-36218D01*
X56937Y-36218D01*
X56905Y-36231D01*
X56905Y-36194D01*
X56915Y-36190D01*
X56957Y-36148D01*
X56980Y-36092D01*
X56980Y-36033D01*
X56980Y-35639D01*
X56965Y-35602D01*
X57333Y-35602D01*
X57308Y-35612D01*
X57238Y-35683D01*
X57200Y-35775D01*
X57199Y-35874D01*
X57200Y-35937D01*
X57262Y-36000D01*
X57500Y-36000D01*
X57500Y-35992D01*
X57600Y-35992D01*
X57600Y-36000D01*
X57762Y-36000D01*
X57837Y-36000D01*
X58000Y-36000D01*
X58000Y-35992D01*
X58100Y-35992D01*
X58100Y-36000D01*
X58262Y-36000D01*
X58337Y-36000D01*
X58500Y-36000D01*
X58500Y-35992D01*
X58600Y-35992D01*
X58600Y-36000D01*
X58607Y-36000D01*
X58607Y-36100D01*
X58600Y-36100D01*
X58600Y-36462D01*
X58662Y-36525D01*
X58699Y-36525D01*
X58791Y-36487D01*
X58836Y-36442D01*
X58806Y-36513D01*
X58806Y-36635D01*
X58853Y-36748D01*
X58939Y-36835D01*
X59052Y-36882D01*
X59175Y-36882D01*
X59288Y-36835D01*
X59374Y-36749D01*
X59401Y-36684D01*
X59372Y-36832D01*
X59402Y-36985D01*
X59489Y-37115D01*
X59589Y-37182D01*
X59589Y-37182D01*
G37*
G54D31*
X59589Y-37182D02*
X59489Y-37249D01*
X59402Y-37379D01*
X59372Y-37532D01*
X59382Y-37586D01*
X59344Y-37560D01*
X59271Y-37546D01*
X59271Y-37546D01*
X59159Y-37546D01*
X59185Y-37482D01*
X59185Y-37360D01*
X59138Y-37247D01*
X59052Y-37160D01*
X58939Y-37113D01*
X58839Y-37113D01*
X58805Y-37080D01*
X58744Y-37038D01*
X58671Y-37024D01*
X58671Y-37024D01*
X58533Y-37024D01*
X58500Y-36990D01*
X58500Y-36462D01*
X58500Y-36100D01*
X58337Y-36100D01*
X58262Y-36100D01*
X58100Y-36100D01*
X58100Y-36462D01*
X58162Y-36525D01*
X58199Y-36525D01*
X58291Y-36487D01*
X58300Y-36478D01*
X58308Y-36487D01*
X58400Y-36525D01*
X58437Y-36525D01*
X58500Y-36462D01*
X58500Y-36990D01*
X58225Y-36715D01*
X58163Y-36674D01*
X58090Y-36660D01*
X58090Y-36660D01*
X58000Y-36660D01*
X58000Y-36462D01*
X58000Y-36100D01*
X57837Y-36100D01*
X57762Y-36100D01*
X57600Y-36100D01*
X57600Y-36462D01*
X57662Y-36525D01*
X57699Y-36525D01*
X57791Y-36487D01*
X57800Y-36478D01*
X57808Y-36487D01*
X57900Y-36525D01*
X57937Y-36525D01*
X58000Y-36462D01*
X58000Y-36660D01*
X57952Y-36660D01*
X57243Y-36660D01*
X57243Y-36421D01*
X57308Y-36487D01*
X57400Y-36525D01*
X57437Y-36525D01*
X57500Y-36462D01*
X57500Y-36100D01*
X57262Y-36100D01*
X57200Y-36162D01*
X57199Y-36225D01*
X57199Y-36263D01*
X57178Y-36241D01*
X57122Y-36218D01*
X57063Y-36218D01*
X56937Y-36218D01*
X56905Y-36231D01*
X56905Y-36194D01*
X56915Y-36190D01*
X56957Y-36148D01*
X56980Y-36092D01*
X56980Y-36033D01*
X56980Y-35639D01*
X56965Y-35602D01*
X57333Y-35602D01*
X57308Y-35612D01*
X57238Y-35683D01*
X57200Y-35775D01*
X57199Y-35874D01*
X57200Y-35937D01*
X57262Y-36000D01*
X57500Y-36000D01*
X57500Y-35992D01*
X57600Y-35992D01*
X57600Y-36000D01*
X57762Y-36000D01*
X57837Y-36000D01*
X58000Y-36000D01*
X58000Y-35992D01*
X58100Y-35992D01*
X58100Y-36000D01*
X58262Y-36000D01*
X58337Y-36000D01*
X58500Y-36000D01*
X58500Y-35992D01*
X58600Y-35992D01*
X58600Y-36000D01*
X58607Y-36000D01*
X58607Y-36100D01*
X58600Y-36100D01*
X58600Y-36462D01*
X58662Y-36525D01*
X58699Y-36525D01*
X58791Y-36487D01*
X58836Y-36442D01*
X58806Y-36513D01*
X58806Y-36635D01*
X58853Y-36748D01*
X58939Y-36835D01*
X59052Y-36882D01*
X59175Y-36882D01*
X59288Y-36835D01*
X59374Y-36749D01*
X59401Y-36684D01*
X59372Y-36832D01*
X59402Y-36985D01*
X59489Y-37115D01*
X59589Y-37182D01*
G54D10*
G36*
X59821Y-35994D02*
X59813Y-35994D01*
X59813Y-36002D01*
X59713Y-36002D01*
X59713Y-35994D01*
X59705Y-35994D01*
X59705Y-35894D01*
X59713Y-35894D01*
X59713Y-35887D01*
X59813Y-35887D01*
X59813Y-35894D01*
X59821Y-35894D01*
X59821Y-35994D01*
X59821Y-35994D01*
G37*
G54D31*
X59821Y-35994D02*
X59813Y-35994D01*
X59813Y-36002D01*
X59713Y-36002D01*
X59713Y-35994D01*
X59705Y-35994D01*
X59705Y-35894D01*
X59713Y-35894D01*
X59713Y-35887D01*
X59813Y-35887D01*
X59813Y-35894D01*
X59821Y-35894D01*
X59821Y-35994D01*
G54D10*
G36*
X59939Y-38982D02*
X59931Y-38982D01*
X59931Y-38990D01*
X59831Y-38990D01*
X59831Y-38982D01*
X59824Y-38982D01*
X59824Y-38882D01*
X59831Y-38882D01*
X59831Y-38874D01*
X59931Y-38874D01*
X59931Y-38882D01*
X59939Y-38882D01*
X59939Y-38982D01*
X59939Y-38982D01*
G37*
G54D31*
X59939Y-38982D02*
X59931Y-38982D01*
X59931Y-38990D01*
X59831Y-38990D01*
X59831Y-38982D01*
X59824Y-38982D01*
X59824Y-38882D01*
X59831Y-38882D01*
X59831Y-38874D01*
X59931Y-38874D01*
X59931Y-38882D01*
X59939Y-38882D01*
X59939Y-38982D01*
M02*
