G04 (created by PCBNEW (2013-may-18)-stable) date Mit 10 Dez 2014 19:38:00 UTC*
%MOIN*%
G04 Gerber Fmt 3.4, Leading zero omitted, Abs format*
%FSLAX34Y34*%
G01*
G70*
G90*
G04 APERTURE LIST*
%ADD10C,0.00590551*%
%ADD11C,0.0669291*%
%ADD12R,0.0787402X0.0787402*%
%ADD13C,0.0590551*%
%ADD14R,0.0590551X0.0590551*%
%ADD15O,0.05X0.07*%
%ADD16O,0.07X0.05*%
%ADD17C,0.0314961*%
%ADD18C,0.015748*%
%ADD19C,0.0080315*%
%ADD20C,0.0314961*%
%ADD21C,0.01*%
G04 APERTURE END LIST*
G54D10*
G54D11*
X48582Y-38444D03*
X48582Y-37657D03*
X48582Y-36082D03*
X48582Y-36870D03*
G54D12*
X59763Y-35944D03*
X59763Y-41220D03*
G54D13*
X49685Y-35905D03*
X50472Y-35787D03*
X51259Y-35905D03*
X52047Y-35787D03*
X52834Y-35905D03*
G54D14*
X54409Y-35905D03*
G54D13*
X53622Y-35787D03*
G54D15*
X49100Y-41299D03*
X53300Y-41299D03*
X49800Y-41299D03*
X50500Y-41299D03*
X51200Y-41299D03*
X51900Y-41299D03*
X52600Y-41299D03*
G54D16*
X59881Y-40332D03*
X59881Y-36832D03*
X59881Y-37532D03*
X59881Y-38232D03*
X59881Y-38932D03*
X59881Y-39632D03*
G54D17*
X54271Y-40472D03*
X50413Y-40236D03*
X53366Y-37637D03*
X54291Y-37007D03*
X51338Y-37559D03*
X51456Y-39094D03*
X50767Y-40472D03*
X55118Y-37480D03*
X52755Y-36456D03*
X51732Y-39429D03*
X52283Y-36476D03*
X49212Y-36476D03*
X48464Y-40019D03*
X58543Y-36594D03*
X58562Y-39685D03*
X56712Y-41456D03*
X48799Y-39783D03*
X48523Y-41279D03*
X55826Y-38503D03*
X51594Y-38720D03*
X54704Y-37677D03*
X50984Y-36830D03*
X54940Y-40374D03*
X53799Y-41299D03*
X55728Y-35885D03*
X52913Y-37795D03*
X51318Y-39507D03*
X52460Y-37874D03*
X52559Y-38484D03*
X52992Y-38543D03*
X56948Y-37637D03*
X53287Y-38248D03*
X56417Y-37047D03*
X50984Y-36417D03*
X51377Y-37992D03*
X59114Y-36574D03*
X57913Y-37342D03*
X58208Y-37657D03*
X58877Y-37421D03*
X52952Y-38956D03*
X56496Y-37637D03*
X55925Y-37322D03*
X53366Y-38838D03*
X51318Y-38405D03*
X53110Y-39724D03*
X53897Y-36811D03*
X52696Y-39724D03*
G54D18*
X49685Y-35905D02*
X49685Y-36712D01*
X51338Y-37559D02*
X52007Y-37559D01*
X52125Y-37440D02*
X53169Y-37440D01*
X53169Y-37440D02*
X53366Y-37637D01*
X52007Y-37559D02*
X52125Y-37440D01*
G54D19*
X51122Y-39803D02*
X51122Y-39763D01*
X51259Y-39094D02*
X51456Y-39094D01*
X51023Y-39330D02*
X51259Y-39094D01*
X51023Y-39665D02*
X51023Y-39330D01*
X51122Y-39763D02*
X51023Y-39665D01*
X50500Y-41299D02*
X51122Y-40677D01*
X51122Y-40677D02*
X51122Y-39803D01*
X51122Y-39803D02*
X51122Y-39783D01*
G54D18*
X50629Y-39763D02*
X50826Y-39960D01*
X50826Y-39960D02*
X50826Y-40236D01*
X50629Y-39744D02*
X50629Y-39763D01*
G54D20*
X50826Y-38956D02*
X50629Y-39153D01*
X50629Y-39153D02*
X50629Y-39744D01*
X50826Y-38543D02*
X50826Y-38956D01*
G54D18*
X49744Y-40649D02*
X50590Y-40649D01*
X50826Y-40413D02*
X50826Y-40236D01*
X50590Y-40649D02*
X50826Y-40413D01*
G54D20*
X49100Y-41017D02*
X49100Y-41299D01*
X49468Y-40649D02*
X49100Y-41017D01*
X49744Y-40649D02*
X49468Y-40649D01*
G54D18*
X53484Y-37185D02*
X53720Y-37421D01*
X51023Y-37185D02*
X51870Y-37185D01*
G54D20*
X50826Y-38543D02*
X50826Y-37381D01*
G54D18*
X50826Y-37381D02*
X51023Y-37185D01*
X51870Y-37185D02*
X53484Y-37185D01*
X56771Y-36811D02*
X56988Y-37027D01*
X56675Y-36714D02*
X55096Y-36714D01*
X55096Y-36714D02*
X54389Y-37421D01*
G54D20*
X59881Y-38232D02*
X58193Y-38232D01*
X58193Y-38232D02*
X56988Y-37027D01*
G54D18*
X56771Y-36811D02*
X56675Y-36714D01*
X53720Y-37421D02*
X54389Y-37421D01*
G54D19*
X58818Y-36909D02*
X58149Y-36909D01*
X58149Y-36909D02*
X58051Y-36811D01*
X58051Y-36811D02*
X57578Y-36338D01*
X53090Y-36456D02*
X53208Y-36338D01*
X52755Y-36456D02*
X53090Y-36456D01*
X53208Y-36338D02*
X57578Y-36338D01*
X59805Y-36909D02*
X59881Y-36832D01*
X58818Y-36909D02*
X59805Y-36909D01*
X58917Y-37106D02*
X58110Y-37106D01*
X58110Y-37106D02*
X58011Y-37007D01*
X58011Y-37007D02*
X57519Y-36515D01*
X53090Y-36633D02*
X53169Y-36633D01*
X53287Y-36515D02*
X57519Y-36515D01*
X53169Y-36633D02*
X53287Y-36515D01*
X53011Y-36633D02*
X52874Y-36771D01*
X53090Y-36633D02*
X53011Y-36633D01*
X52795Y-36771D02*
X52874Y-36771D01*
X52283Y-36476D02*
X52578Y-36771D01*
X52578Y-36771D02*
X52795Y-36771D01*
X59455Y-37106D02*
X59881Y-37532D01*
X58917Y-37106D02*
X59455Y-37106D01*
X49212Y-36476D02*
X49212Y-39015D01*
X49212Y-39015D02*
X49173Y-39055D01*
X48464Y-39842D02*
X48464Y-40019D01*
X49114Y-39114D02*
X48641Y-39114D01*
X48641Y-39114D02*
X48464Y-39291D01*
X48464Y-39291D02*
X48464Y-39842D01*
X49173Y-39055D02*
X49114Y-39114D01*
X59881Y-38932D02*
X59315Y-38932D01*
X59315Y-38932D02*
X58562Y-39685D01*
X52598Y-38169D02*
X52913Y-37854D01*
X52913Y-37854D02*
X52913Y-37795D01*
X52224Y-39448D02*
X52224Y-38385D01*
X52440Y-38169D02*
X52598Y-38169D01*
X52224Y-38385D02*
X52440Y-38169D01*
X52224Y-39645D02*
X52224Y-39448D01*
X52224Y-40157D02*
X52224Y-40492D01*
X52224Y-40492D02*
X52620Y-40888D01*
X52224Y-40157D02*
X52224Y-39645D01*
X52620Y-40888D02*
X52620Y-41299D01*
X51200Y-41299D02*
X51200Y-40826D01*
X51200Y-40826D02*
X51318Y-40708D01*
X51318Y-40708D02*
X51318Y-39507D01*
X52460Y-37874D02*
X52047Y-38287D01*
X52047Y-38287D02*
X52047Y-39389D01*
X52047Y-39507D02*
X52047Y-39389D01*
X51900Y-40737D02*
X51900Y-41299D01*
X52047Y-40590D02*
X51900Y-40737D01*
X52047Y-40551D02*
X52047Y-39507D01*
X52047Y-40551D02*
X52047Y-40590D01*
X52559Y-38484D02*
X52401Y-38641D01*
X52401Y-38641D02*
X52401Y-39586D01*
X52401Y-39842D02*
X52401Y-40393D01*
X52401Y-39763D02*
X52401Y-39586D01*
X52952Y-40944D02*
X53300Y-41292D01*
X53300Y-41292D02*
X53300Y-41299D01*
X52401Y-39842D02*
X52401Y-39763D01*
X52736Y-40728D02*
X52952Y-40944D01*
X52401Y-40393D02*
X52736Y-40728D01*
X56643Y-37942D02*
X55954Y-37942D01*
X55954Y-37942D02*
X55078Y-38818D01*
X52992Y-39311D02*
X53582Y-39311D01*
X54074Y-38818D02*
X55078Y-38818D01*
X53582Y-39311D02*
X54074Y-38818D01*
X52992Y-38543D02*
X52952Y-38543D01*
X52893Y-39311D02*
X52992Y-39311D01*
X52657Y-39074D02*
X52893Y-39311D01*
X52657Y-38838D02*
X52657Y-39074D01*
X52952Y-38543D02*
X52657Y-38838D01*
X56948Y-37637D02*
X56643Y-37942D01*
X56417Y-37047D02*
X56397Y-37027D01*
X55728Y-37027D02*
X55511Y-37244D01*
X56397Y-37027D02*
X55728Y-37027D01*
X54822Y-38248D02*
X55511Y-37559D01*
X55511Y-37559D02*
X55511Y-37244D01*
X54822Y-38248D02*
X53287Y-38248D01*
X56496Y-37637D02*
X55984Y-37637D01*
X55984Y-37637D02*
X54980Y-38641D01*
X53405Y-39133D02*
X53503Y-39133D01*
X53996Y-38641D02*
X54980Y-38641D01*
X53503Y-39133D02*
X53996Y-38641D01*
X52952Y-38956D02*
X53129Y-39133D01*
X53129Y-39133D02*
X53405Y-39133D01*
X55925Y-37322D02*
X55728Y-37519D01*
X55728Y-37519D02*
X55728Y-37618D01*
X53366Y-38838D02*
X53759Y-38444D01*
X53759Y-38444D02*
X54901Y-38444D01*
X54901Y-38444D02*
X55728Y-37618D01*
X53897Y-36811D02*
X53090Y-36811D01*
X51988Y-35885D02*
X52047Y-35826D01*
X51988Y-36594D02*
X51988Y-35885D01*
X52342Y-36948D02*
X51988Y-36594D01*
X52952Y-36948D02*
X52342Y-36948D01*
X53090Y-36811D02*
X52952Y-36948D01*
G54D10*
G36*
X50871Y-36131D02*
X50810Y-36156D01*
X50723Y-36242D01*
X50676Y-36355D01*
X50676Y-36478D01*
X50723Y-36591D01*
X50756Y-36623D01*
X50723Y-36656D01*
X50676Y-36769D01*
X50676Y-36891D01*
X50723Y-37004D01*
X50798Y-37080D01*
X50709Y-37097D01*
X50609Y-37164D01*
X50542Y-37264D01*
X50519Y-37381D01*
X50519Y-38543D01*
X50519Y-38829D01*
X50412Y-38936D01*
X50345Y-39035D01*
X50322Y-39153D01*
X50322Y-39744D01*
X50345Y-39861D01*
X50412Y-39961D01*
X50512Y-40028D01*
X50585Y-40042D01*
X50598Y-40055D01*
X50598Y-40209D01*
X50593Y-40211D01*
X50507Y-40298D01*
X50460Y-40411D01*
X50460Y-40420D01*
X49944Y-40420D01*
X49861Y-40365D01*
X49744Y-40342D01*
X49468Y-40342D01*
X49350Y-40365D01*
X49251Y-40432D01*
X48883Y-40799D01*
X48816Y-40899D01*
X48814Y-40912D01*
X48731Y-41036D01*
X48728Y-41049D01*
X48698Y-41019D01*
X48585Y-40972D01*
X48462Y-40971D01*
X48349Y-41018D01*
X48315Y-41052D01*
X48315Y-40290D01*
X48403Y-40327D01*
X48525Y-40327D01*
X48638Y-40280D01*
X48725Y-40194D01*
X48767Y-40090D01*
X48860Y-40090D01*
X48973Y-40044D01*
X49059Y-39957D01*
X49106Y-39844D01*
X49106Y-39722D01*
X49060Y-39609D01*
X48973Y-39522D01*
X48860Y-39476D01*
X48738Y-39475D01*
X48654Y-39510D01*
X48654Y-39370D01*
X48720Y-39304D01*
X49114Y-39304D01*
X49114Y-39304D01*
X49114Y-39304D01*
X49186Y-39289D01*
X49248Y-39248D01*
X49307Y-39189D01*
X49347Y-39150D01*
X49347Y-39150D01*
X49347Y-39150D01*
X49371Y-39113D01*
X49388Y-39088D01*
X49388Y-39088D01*
X49402Y-39015D01*
X49402Y-36721D01*
X49473Y-36650D01*
X49520Y-36537D01*
X49520Y-36425D01*
X49604Y-36455D01*
X49821Y-36444D01*
X49970Y-36382D01*
X49996Y-36287D01*
X49685Y-35976D01*
X49679Y-35981D01*
X49608Y-35911D01*
X49614Y-35905D01*
X49608Y-35899D01*
X49679Y-35829D01*
X49685Y-35834D01*
X49690Y-35829D01*
X49761Y-35899D01*
X49755Y-35905D01*
X50067Y-36217D01*
X50162Y-36190D01*
X50184Y-36129D01*
X50219Y-36164D01*
X50383Y-36232D01*
X50560Y-36232D01*
X50724Y-36165D01*
X50838Y-36051D01*
X50871Y-36131D01*
X50871Y-36131D01*
G37*
G54D21*
X50871Y-36131D02*
X50810Y-36156D01*
X50723Y-36242D01*
X50676Y-36355D01*
X50676Y-36478D01*
X50723Y-36591D01*
X50756Y-36623D01*
X50723Y-36656D01*
X50676Y-36769D01*
X50676Y-36891D01*
X50723Y-37004D01*
X50798Y-37080D01*
X50709Y-37097D01*
X50609Y-37164D01*
X50542Y-37264D01*
X50519Y-37381D01*
X50519Y-38543D01*
X50519Y-38829D01*
X50412Y-38936D01*
X50345Y-39035D01*
X50322Y-39153D01*
X50322Y-39744D01*
X50345Y-39861D01*
X50412Y-39961D01*
X50512Y-40028D01*
X50585Y-40042D01*
X50598Y-40055D01*
X50598Y-40209D01*
X50593Y-40211D01*
X50507Y-40298D01*
X50460Y-40411D01*
X50460Y-40420D01*
X49944Y-40420D01*
X49861Y-40365D01*
X49744Y-40342D01*
X49468Y-40342D01*
X49350Y-40365D01*
X49251Y-40432D01*
X48883Y-40799D01*
X48816Y-40899D01*
X48814Y-40912D01*
X48731Y-41036D01*
X48728Y-41049D01*
X48698Y-41019D01*
X48585Y-40972D01*
X48462Y-40971D01*
X48349Y-41018D01*
X48315Y-41052D01*
X48315Y-40290D01*
X48403Y-40327D01*
X48525Y-40327D01*
X48638Y-40280D01*
X48725Y-40194D01*
X48767Y-40090D01*
X48860Y-40090D01*
X48973Y-40044D01*
X49059Y-39957D01*
X49106Y-39844D01*
X49106Y-39722D01*
X49060Y-39609D01*
X48973Y-39522D01*
X48860Y-39476D01*
X48738Y-39475D01*
X48654Y-39510D01*
X48654Y-39370D01*
X48720Y-39304D01*
X49114Y-39304D01*
X49114Y-39304D01*
X49114Y-39304D01*
X49186Y-39289D01*
X49248Y-39248D01*
X49307Y-39189D01*
X49347Y-39150D01*
X49347Y-39150D01*
X49347Y-39150D01*
X49371Y-39113D01*
X49388Y-39088D01*
X49388Y-39088D01*
X49402Y-39015D01*
X49402Y-36721D01*
X49473Y-36650D01*
X49520Y-36537D01*
X49520Y-36425D01*
X49604Y-36455D01*
X49821Y-36444D01*
X49970Y-36382D01*
X49996Y-36287D01*
X49685Y-35976D01*
X49679Y-35981D01*
X49608Y-35911D01*
X49614Y-35905D01*
X49608Y-35899D01*
X49679Y-35829D01*
X49685Y-35834D01*
X49690Y-35829D01*
X49761Y-35899D01*
X49755Y-35905D01*
X50067Y-36217D01*
X50162Y-36190D01*
X50184Y-36129D01*
X50219Y-36164D01*
X50383Y-36232D01*
X50560Y-36232D01*
X50724Y-36165D01*
X50838Y-36051D01*
X50871Y-36131D01*
G54D10*
G36*
X54781Y-36705D02*
X54295Y-37192D01*
X53815Y-37192D01*
X53645Y-37023D01*
X53612Y-37001D01*
X53652Y-37001D01*
X53723Y-37071D01*
X53836Y-37118D01*
X53958Y-37118D01*
X54071Y-37071D01*
X54158Y-36985D01*
X54205Y-36872D01*
X54205Y-36750D01*
X54186Y-36705D01*
X54781Y-36705D01*
X54781Y-36705D01*
G37*
G54D21*
X54781Y-36705D02*
X54295Y-37192D01*
X53815Y-37192D01*
X53645Y-37023D01*
X53612Y-37001D01*
X53652Y-37001D01*
X53723Y-37071D01*
X53836Y-37118D01*
X53958Y-37118D01*
X54071Y-37071D01*
X54158Y-36985D01*
X54205Y-36872D01*
X54205Y-36750D01*
X54186Y-36705D01*
X54781Y-36705D01*
G54D10*
G36*
X54792Y-38009D02*
X54744Y-38057D01*
X53532Y-38057D01*
X53461Y-37987D01*
X53348Y-37940D01*
X53226Y-37940D01*
X53177Y-37960D01*
X53220Y-37856D01*
X53220Y-37734D01*
X53174Y-37621D01*
X53087Y-37534D01*
X52974Y-37487D01*
X52852Y-37487D01*
X52739Y-37534D01*
X52652Y-37620D01*
X52649Y-37628D01*
X52635Y-37613D01*
X52522Y-37566D01*
X52399Y-37566D01*
X52286Y-37613D01*
X52200Y-37699D01*
X52153Y-37812D01*
X52153Y-37912D01*
X51912Y-38152D01*
X51871Y-38214D01*
X51857Y-38287D01*
X51857Y-38287D01*
X51857Y-38550D01*
X51855Y-38546D01*
X51768Y-38459D01*
X51655Y-38413D01*
X51626Y-38413D01*
X51626Y-38344D01*
X51579Y-38231D01*
X51576Y-38228D01*
X51638Y-38166D01*
X51685Y-38053D01*
X51685Y-37931D01*
X51638Y-37818D01*
X51552Y-37731D01*
X51439Y-37684D01*
X51317Y-37684D01*
X51204Y-37731D01*
X51134Y-37800D01*
X51134Y-37413D01*
X51870Y-37413D01*
X53389Y-37413D01*
X53558Y-37583D01*
X53632Y-37632D01*
X53720Y-37650D01*
X54389Y-37650D01*
X54397Y-37648D01*
X54397Y-37738D01*
X54443Y-37851D01*
X54530Y-37937D01*
X54643Y-37984D01*
X54765Y-37984D01*
X54792Y-37973D01*
X54792Y-38009D01*
X54792Y-38009D01*
G37*
G54D21*
X54792Y-38009D02*
X54744Y-38057D01*
X53532Y-38057D01*
X53461Y-37987D01*
X53348Y-37940D01*
X53226Y-37940D01*
X53177Y-37960D01*
X53220Y-37856D01*
X53220Y-37734D01*
X53174Y-37621D01*
X53087Y-37534D01*
X52974Y-37487D01*
X52852Y-37487D01*
X52739Y-37534D01*
X52652Y-37620D01*
X52649Y-37628D01*
X52635Y-37613D01*
X52522Y-37566D01*
X52399Y-37566D01*
X52286Y-37613D01*
X52200Y-37699D01*
X52153Y-37812D01*
X52153Y-37912D01*
X51912Y-38152D01*
X51871Y-38214D01*
X51857Y-38287D01*
X51857Y-38287D01*
X51857Y-38550D01*
X51855Y-38546D01*
X51768Y-38459D01*
X51655Y-38413D01*
X51626Y-38413D01*
X51626Y-38344D01*
X51579Y-38231D01*
X51576Y-38228D01*
X51638Y-38166D01*
X51685Y-38053D01*
X51685Y-37931D01*
X51638Y-37818D01*
X51552Y-37731D01*
X51439Y-37684D01*
X51317Y-37684D01*
X51204Y-37731D01*
X51134Y-37800D01*
X51134Y-37413D01*
X51870Y-37413D01*
X53389Y-37413D01*
X53558Y-37583D01*
X53632Y-37632D01*
X53720Y-37650D01*
X54389Y-37650D01*
X54397Y-37648D01*
X54397Y-37738D01*
X54443Y-37851D01*
X54530Y-37937D01*
X54643Y-37984D01*
X54765Y-37984D01*
X54792Y-37973D01*
X54792Y-38009D01*
G54D10*
G36*
X54792Y-41562D02*
X53966Y-41562D01*
X53973Y-41560D01*
X54059Y-41473D01*
X54106Y-41360D01*
X54106Y-41238D01*
X54060Y-41125D01*
X53973Y-41038D01*
X53860Y-40991D01*
X53738Y-40991D01*
X53661Y-41023D01*
X53583Y-40906D01*
X53453Y-40819D01*
X53300Y-40789D01*
X53147Y-40819D01*
X53117Y-40840D01*
X53087Y-40810D01*
X53087Y-40810D01*
X52870Y-40593D01*
X52870Y-40593D01*
X52591Y-40314D01*
X52591Y-40013D01*
X52635Y-40031D01*
X52757Y-40031D01*
X52870Y-39985D01*
X52903Y-39952D01*
X52935Y-39984D01*
X53048Y-40031D01*
X53171Y-40031D01*
X53284Y-39985D01*
X53370Y-39898D01*
X53417Y-39785D01*
X53417Y-39663D01*
X53371Y-39550D01*
X53321Y-39501D01*
X53582Y-39501D01*
X53582Y-39501D01*
X53582Y-39501D01*
X53655Y-39486D01*
X53717Y-39445D01*
X54153Y-39009D01*
X54792Y-39009D01*
X54792Y-40102D01*
X54766Y-40113D01*
X54680Y-40199D01*
X54633Y-40312D01*
X54633Y-40434D01*
X54680Y-40547D01*
X54766Y-40634D01*
X54792Y-40645D01*
X54792Y-41562D01*
X54792Y-41562D01*
G37*
G54D21*
X54792Y-41562D02*
X53966Y-41562D01*
X53973Y-41560D01*
X54059Y-41473D01*
X54106Y-41360D01*
X54106Y-41238D01*
X54060Y-41125D01*
X53973Y-41038D01*
X53860Y-40991D01*
X53738Y-40991D01*
X53661Y-41023D01*
X53583Y-40906D01*
X53453Y-40819D01*
X53300Y-40789D01*
X53147Y-40819D01*
X53117Y-40840D01*
X53087Y-40810D01*
X53087Y-40810D01*
X52870Y-40593D01*
X52870Y-40593D01*
X52591Y-40314D01*
X52591Y-40013D01*
X52635Y-40031D01*
X52757Y-40031D01*
X52870Y-39985D01*
X52903Y-39952D01*
X52935Y-39984D01*
X53048Y-40031D01*
X53171Y-40031D01*
X53284Y-39985D01*
X53370Y-39898D01*
X53417Y-39785D01*
X53417Y-39663D01*
X53371Y-39550D01*
X53321Y-39501D01*
X53582Y-39501D01*
X53582Y-39501D01*
X53582Y-39501D01*
X53655Y-39486D01*
X53717Y-39445D01*
X54153Y-39009D01*
X54792Y-39009D01*
X54792Y-40102D01*
X54766Y-40113D01*
X54680Y-40199D01*
X54633Y-40312D01*
X54633Y-40434D01*
X54680Y-40547D01*
X54766Y-40634D01*
X54792Y-40645D01*
X54792Y-41562D01*
G54D10*
G36*
X59821Y-35994D02*
X59813Y-35994D01*
X59813Y-36002D01*
X59713Y-36002D01*
X59713Y-35994D01*
X59182Y-35994D01*
X59120Y-36057D01*
X59120Y-36267D01*
X59053Y-36267D01*
X58940Y-36313D01*
X58853Y-36400D01*
X58806Y-36513D01*
X58806Y-36635D01*
X58841Y-36719D01*
X58818Y-36719D01*
X58228Y-36719D01*
X58185Y-36676D01*
X58185Y-36676D01*
X57713Y-36204D01*
X57651Y-36162D01*
X57578Y-36148D01*
X57578Y-36148D01*
X55168Y-36148D01*
X55168Y-35602D01*
X59120Y-35602D01*
X59120Y-35832D01*
X59182Y-35894D01*
X59713Y-35894D01*
X59713Y-35887D01*
X59813Y-35887D01*
X59813Y-35894D01*
X59821Y-35894D01*
X59821Y-35994D01*
X59821Y-35994D01*
G37*
G54D21*
X59821Y-35994D02*
X59813Y-35994D01*
X59813Y-36002D01*
X59713Y-36002D01*
X59713Y-35994D01*
X59182Y-35994D01*
X59120Y-36057D01*
X59120Y-36267D01*
X59053Y-36267D01*
X58940Y-36313D01*
X58853Y-36400D01*
X58806Y-36513D01*
X58806Y-36635D01*
X58841Y-36719D01*
X58818Y-36719D01*
X58228Y-36719D01*
X58185Y-36676D01*
X58185Y-36676D01*
X57713Y-36204D01*
X57651Y-36162D01*
X57578Y-36148D01*
X57578Y-36148D01*
X55168Y-36148D01*
X55168Y-35602D01*
X59120Y-35602D01*
X59120Y-35832D01*
X59182Y-35894D01*
X59713Y-35894D01*
X59713Y-35887D01*
X59813Y-35887D01*
X59813Y-35894D01*
X59821Y-35894D01*
X59821Y-35994D01*
G54D10*
G36*
X59939Y-38982D02*
X59931Y-38982D01*
X59931Y-38990D01*
X59831Y-38990D01*
X59831Y-38982D01*
X59347Y-38982D01*
X59298Y-39059D01*
X59300Y-39077D01*
X59392Y-39250D01*
X59502Y-39341D01*
X59489Y-39349D01*
X59402Y-39479D01*
X59372Y-39632D01*
X59402Y-39785D01*
X59489Y-39915D01*
X59589Y-39982D01*
X59489Y-40049D01*
X59402Y-40179D01*
X59372Y-40332D01*
X59402Y-40485D01*
X59489Y-40615D01*
X59580Y-40676D01*
X59340Y-40676D01*
X59285Y-40699D01*
X59242Y-40741D01*
X59220Y-40796D01*
X59220Y-40856D01*
X59220Y-41562D01*
X59173Y-41562D01*
X55168Y-41562D01*
X55168Y-38983D01*
X55213Y-38953D01*
X56033Y-38133D01*
X56643Y-38133D01*
X56643Y-38133D01*
X56643Y-38133D01*
X56716Y-38118D01*
X56778Y-38077D01*
X56910Y-37945D01*
X57009Y-37945D01*
X57122Y-37898D01*
X57209Y-37812D01*
X57247Y-37721D01*
X57975Y-38450D01*
X57975Y-38450D01*
X58075Y-38516D01*
X58193Y-38540D01*
X58193Y-38540D01*
X59483Y-38540D01*
X59392Y-38614D01*
X59300Y-38787D01*
X59298Y-38805D01*
X59347Y-38882D01*
X59831Y-38882D01*
X59831Y-38874D01*
X59931Y-38874D01*
X59931Y-38882D01*
X59939Y-38882D01*
X59939Y-38982D01*
X59939Y-38982D01*
G37*
G54D21*
X59939Y-38982D02*
X59931Y-38982D01*
X59931Y-38990D01*
X59831Y-38990D01*
X59831Y-38982D01*
X59347Y-38982D01*
X59298Y-39059D01*
X59300Y-39077D01*
X59392Y-39250D01*
X59502Y-39341D01*
X59489Y-39349D01*
X59402Y-39479D01*
X59372Y-39632D01*
X59402Y-39785D01*
X59489Y-39915D01*
X59589Y-39982D01*
X59489Y-40049D01*
X59402Y-40179D01*
X59372Y-40332D01*
X59402Y-40485D01*
X59489Y-40615D01*
X59580Y-40676D01*
X59340Y-40676D01*
X59285Y-40699D01*
X59242Y-40741D01*
X59220Y-40796D01*
X59220Y-40856D01*
X59220Y-41562D01*
X59173Y-41562D01*
X55168Y-41562D01*
X55168Y-38983D01*
X55213Y-38953D01*
X56033Y-38133D01*
X56643Y-38133D01*
X56643Y-38133D01*
X56643Y-38133D01*
X56716Y-38118D01*
X56778Y-38077D01*
X56910Y-37945D01*
X57009Y-37945D01*
X57122Y-37898D01*
X57209Y-37812D01*
X57247Y-37721D01*
X57975Y-38450D01*
X57975Y-38450D01*
X58075Y-38516D01*
X58193Y-38540D01*
X58193Y-38540D01*
X59483Y-38540D01*
X59392Y-38614D01*
X59300Y-38787D01*
X59298Y-38805D01*
X59347Y-38882D01*
X59831Y-38882D01*
X59831Y-38874D01*
X59931Y-38874D01*
X59931Y-38882D01*
X59939Y-38882D01*
X59939Y-38982D01*
M02*
