G04 (created by PCBNEW (2013-may-18)-stable) date Mit 10 Dez 2014 19:38:00 UTC*
%MOIN*%
G04 Gerber Fmt 3.4, Leading zero omitted, Abs format*
%FSLAX34Y34*%
G01*
G70*
G90*
G04 APERTURE LIST*
%ADD10C,0.00590551*%
%ADD11R,0.0393701X0.0275591*%
%ADD12R,0.0275591X0.0393701*%
%ADD13R,0.03X0.02*%
%ADD14R,0.0708X0.0551*%
%ADD15R,0.0452756X0.0551181*%
%ADD16R,0.0472441X0.011811*%
%ADD17R,0.011811X0.0472441*%
%ADD18R,0.0126X0.0339*%
%ADD19R,0.02X0.045*%
%ADD20C,0.0669291*%
%ADD21R,0.0787402X0.0787402*%
%ADD22C,0.0590551*%
%ADD23R,0.0590551X0.0590551*%
%ADD24O,0.05X0.07*%
%ADD25O,0.07X0.05*%
%ADD26C,0.0314961*%
%ADD27C,0.015748*%
%ADD28C,0.0080315*%
%ADD29C,0.0314961*%
%ADD30C,0.0393701*%
%ADD31C,0.01*%
G04 APERTURE END LIST*
G54D10*
G54D11*
X54094Y-41338D03*
X54094Y-40787D03*
X50433Y-36614D03*
X50433Y-37165D03*
G54D12*
X49980Y-37381D03*
X49429Y-37381D03*
X49409Y-39468D03*
X49960Y-39468D03*
G54D13*
X55877Y-39782D03*
X55877Y-40532D03*
X56877Y-39782D03*
X55877Y-40157D03*
X56877Y-40532D03*
G54D14*
X48622Y-39252D03*
X48622Y-40590D03*
G54D15*
X49448Y-38858D03*
X49448Y-37992D03*
X50078Y-37992D03*
X50078Y-38858D03*
G54D16*
X50787Y-37637D03*
X50787Y-37834D03*
X50787Y-38031D03*
X50787Y-38228D03*
X50787Y-38425D03*
X50787Y-38622D03*
X50787Y-38818D03*
X50787Y-39015D03*
X50787Y-39212D03*
X50787Y-39409D03*
X50787Y-39606D03*
X50787Y-39803D03*
G54D17*
X51377Y-40393D03*
X51574Y-40393D03*
X51771Y-40393D03*
X51968Y-40393D03*
X52165Y-40393D03*
X52362Y-40393D03*
X52559Y-40393D03*
X52755Y-40393D03*
X52952Y-40393D03*
X53149Y-40393D03*
X53346Y-40393D03*
X53543Y-40393D03*
G54D16*
X54133Y-39803D03*
X54133Y-39606D03*
X54133Y-39409D03*
X54133Y-39212D03*
X54133Y-39015D03*
X54133Y-38818D03*
X54133Y-38622D03*
X54133Y-38425D03*
X54133Y-38228D03*
X54133Y-38031D03*
X54133Y-37834D03*
X54133Y-37637D03*
G54D17*
X53543Y-37047D03*
X53346Y-37047D03*
X53149Y-37047D03*
X52952Y-37047D03*
X52755Y-37047D03*
X52559Y-37047D03*
X52362Y-37047D03*
X52165Y-37047D03*
X51968Y-37047D03*
X51771Y-37047D03*
X51574Y-37047D03*
X51377Y-37047D03*
G54D11*
X54645Y-41456D03*
X54645Y-40905D03*
X55196Y-41456D03*
X55196Y-40905D03*
G54D12*
X55787Y-41141D03*
X56338Y-41141D03*
G54D11*
X55472Y-39409D03*
X55472Y-38858D03*
X56929Y-41496D03*
X56929Y-40944D03*
X54960Y-39409D03*
X54960Y-38858D03*
G54D12*
X49468Y-39980D03*
X50019Y-39980D03*
G54D11*
X55275Y-40393D03*
X55275Y-39842D03*
G54D12*
X56791Y-38779D03*
X56240Y-38779D03*
X56141Y-35944D03*
X56692Y-35944D03*
G54D18*
X55770Y-38062D03*
X56085Y-38062D03*
X56400Y-38062D03*
X56715Y-38062D03*
X57030Y-38062D03*
X57030Y-36538D03*
X56715Y-36538D03*
X56400Y-36538D03*
X56085Y-36538D03*
X55770Y-36538D03*
G54D14*
X55118Y-38228D03*
X55118Y-36890D03*
G54D19*
X59050Y-40950D03*
X59050Y-38850D03*
X58550Y-40950D03*
X58050Y-40950D03*
X57550Y-40950D03*
X58550Y-38850D03*
X58050Y-38850D03*
X57550Y-38850D03*
X59050Y-38150D03*
X59050Y-36050D03*
X58550Y-38150D03*
X58050Y-38150D03*
X57550Y-38150D03*
X58550Y-36050D03*
X58050Y-36050D03*
X57550Y-36050D03*
G54D12*
X49468Y-40472D03*
X50019Y-40472D03*
G54D20*
X48582Y-38444D03*
X48582Y-37657D03*
X48582Y-36082D03*
X48582Y-36870D03*
G54D21*
X59763Y-35944D03*
X59763Y-41220D03*
G54D22*
X49685Y-35905D03*
X50472Y-35787D03*
X51259Y-35905D03*
X52047Y-35787D03*
X52834Y-35905D03*
G54D23*
X54409Y-35905D03*
G54D22*
X53622Y-35787D03*
G54D24*
X49100Y-41299D03*
X53300Y-41299D03*
X49800Y-41299D03*
X50500Y-41299D03*
X51200Y-41299D03*
X51900Y-41299D03*
X52600Y-41299D03*
G54D25*
X59881Y-40332D03*
X59881Y-36832D03*
X59881Y-37532D03*
X59881Y-38232D03*
X59881Y-38932D03*
X59881Y-39632D03*
G54D26*
X54271Y-40472D03*
X50413Y-40236D03*
X53366Y-37637D03*
X54291Y-37007D03*
X51338Y-37559D03*
X51456Y-39094D03*
X50767Y-40472D03*
X55118Y-37480D03*
X52755Y-36456D03*
X51732Y-39429D03*
X52283Y-36476D03*
X49212Y-36476D03*
X48464Y-40019D03*
X58543Y-36594D03*
X58562Y-39685D03*
X56712Y-41456D03*
X48799Y-39783D03*
X48523Y-41279D03*
X55826Y-38503D03*
X51594Y-38720D03*
X54704Y-37677D03*
X50984Y-36830D03*
X54940Y-40374D03*
X53799Y-41299D03*
X55728Y-35885D03*
X52913Y-37795D03*
X51318Y-39507D03*
X52460Y-37874D03*
X52559Y-38484D03*
X52992Y-38543D03*
X56948Y-37637D03*
X53287Y-38248D03*
X56417Y-37047D03*
X50984Y-36417D03*
X51377Y-37992D03*
X59114Y-36574D03*
X57913Y-37342D03*
X58208Y-37657D03*
X58877Y-37421D03*
X52952Y-38956D03*
X56496Y-37637D03*
X55925Y-37322D03*
X53366Y-38838D03*
X51318Y-38405D03*
X53110Y-39724D03*
X53897Y-36811D03*
X52696Y-39724D03*
G54D27*
X50433Y-37165D02*
X50944Y-37165D01*
X50944Y-37165D02*
X51338Y-37559D01*
X50039Y-36653D02*
X50039Y-36811D01*
X50393Y-37165D02*
X50433Y-37165D01*
X50039Y-36811D02*
X50393Y-37165D01*
X49685Y-35905D02*
X50039Y-36259D01*
X50039Y-36259D02*
X50039Y-36653D01*
G54D28*
X54094Y-40787D02*
X54271Y-40610D01*
X54271Y-40610D02*
X54271Y-40472D01*
X50137Y-40354D02*
X50295Y-40354D01*
X50137Y-40354D02*
X50019Y-40472D01*
X50295Y-40354D02*
X50413Y-40236D01*
X54291Y-37007D02*
X54133Y-37165D01*
X54133Y-37165D02*
X54133Y-37637D01*
X50039Y-36259D02*
X50039Y-36653D01*
X53543Y-40393D02*
X53700Y-40393D01*
X53700Y-40393D02*
X54094Y-40787D01*
X50787Y-37637D02*
X51259Y-37637D01*
X51259Y-37637D02*
X51338Y-37559D01*
X51377Y-37047D02*
X51377Y-37519D01*
X51377Y-37519D02*
X51338Y-37559D01*
X51456Y-39094D02*
X51338Y-39094D01*
X51338Y-39094D02*
X51220Y-39212D01*
X50787Y-39212D02*
X51220Y-39212D01*
G54D29*
X48582Y-38464D02*
X48582Y-39212D01*
X48582Y-39212D02*
X48622Y-39252D01*
X48622Y-40590D02*
X49100Y-41069D01*
X49100Y-41069D02*
X49100Y-41299D01*
G54D27*
X55118Y-37480D02*
X55118Y-38228D01*
X54960Y-38858D02*
X54960Y-38385D01*
X54960Y-38385D02*
X55118Y-38228D01*
X55472Y-38858D02*
X54960Y-38858D01*
X56877Y-39782D02*
X56426Y-39330D01*
X55551Y-38858D02*
X55472Y-38858D01*
X56023Y-39330D02*
X55551Y-38858D01*
X56426Y-39330D02*
X56023Y-39330D01*
G54D28*
X55770Y-38062D02*
X55284Y-38062D01*
X55284Y-38062D02*
X55118Y-38228D01*
G54D30*
X58550Y-40950D02*
X59050Y-40950D01*
X59700Y-41306D02*
X59343Y-40950D01*
X59343Y-40950D02*
X58550Y-40950D01*
X58550Y-40950D02*
X58050Y-40950D01*
X57550Y-40950D02*
X58050Y-40950D01*
G54D27*
X56929Y-40944D02*
X56877Y-40893D01*
X56877Y-40893D02*
X56877Y-40532D01*
X57125Y-41102D02*
X56968Y-40944D01*
X57519Y-41496D02*
X57125Y-41102D01*
X56968Y-40944D02*
X56929Y-40944D01*
G54D28*
X56338Y-41141D02*
X56732Y-41141D01*
X56732Y-41141D02*
X56929Y-40944D01*
G54D27*
X59510Y-41496D02*
X57519Y-41496D01*
X59700Y-41306D02*
X59510Y-41496D01*
G54D28*
X52559Y-37047D02*
X52559Y-36653D01*
X52559Y-36653D02*
X52755Y-36456D01*
X51771Y-39468D02*
X51771Y-40393D01*
X51732Y-39429D02*
X51771Y-39468D01*
X53405Y-39704D02*
X53405Y-39606D01*
X53779Y-40078D02*
X53405Y-39704D01*
X54645Y-40905D02*
X54645Y-40354D01*
X54409Y-40118D02*
X53818Y-40118D01*
X54645Y-40354D02*
X54409Y-40118D01*
X53031Y-39370D02*
X53169Y-39370D01*
X52992Y-39370D02*
X52677Y-39370D01*
X53031Y-39370D02*
X52992Y-39370D01*
X51968Y-40078D02*
X52106Y-39940D01*
X52106Y-39940D02*
X52322Y-39940D01*
X52322Y-39940D02*
X52401Y-39862D01*
X52401Y-39862D02*
X52401Y-39586D01*
X52401Y-39586D02*
X52618Y-39370D01*
X52618Y-39370D02*
X52677Y-39370D01*
X51968Y-40393D02*
X51968Y-40078D01*
X53818Y-40118D02*
X53779Y-40078D01*
X53169Y-39370D02*
X53405Y-39606D01*
X55196Y-40905D02*
X55551Y-40905D01*
X55551Y-40905D02*
X55787Y-41141D01*
X54645Y-40905D02*
X55196Y-40905D01*
X52362Y-36555D02*
X52283Y-36476D01*
X52362Y-37047D02*
X52362Y-36555D01*
X48582Y-40137D02*
X48464Y-40019D01*
X48582Y-40137D02*
X48838Y-40137D01*
X49232Y-40807D02*
X49192Y-40767D01*
X49192Y-40767D02*
X49192Y-40275D01*
X49192Y-40275D02*
X49055Y-40137D01*
X49055Y-40137D02*
X48838Y-40137D01*
X51574Y-40708D02*
X51574Y-40393D01*
X51476Y-40807D02*
X49409Y-40807D01*
X51574Y-40708D02*
X51476Y-40807D01*
X49409Y-40807D02*
X49232Y-40807D01*
G54D27*
X58543Y-36594D02*
X58543Y-36056D01*
X58543Y-36056D02*
X58550Y-36050D01*
G54D29*
X59658Y-36050D02*
X59842Y-35866D01*
X58050Y-36050D02*
X59658Y-36050D01*
G54D28*
X55196Y-41456D02*
X55255Y-41515D01*
X56751Y-41496D02*
X56712Y-41456D01*
X56751Y-41496D02*
X56929Y-41496D01*
X56653Y-41515D02*
X56712Y-41456D01*
X55255Y-41515D02*
X56653Y-41515D01*
X54645Y-41456D02*
X55196Y-41456D01*
X54094Y-41338D02*
X54212Y-41456D01*
X54212Y-41456D02*
X54645Y-41456D01*
X49409Y-39468D02*
X49015Y-39862D01*
X48877Y-39862D02*
X48799Y-39783D01*
X49015Y-39862D02*
X48877Y-39862D01*
X56085Y-36538D02*
X56085Y-36001D01*
X56085Y-36001D02*
X56141Y-35944D01*
G54D30*
X58050Y-36050D02*
X58550Y-36050D01*
X58550Y-36050D02*
X59050Y-36050D01*
G54D28*
X49980Y-37381D02*
X49744Y-37145D01*
X49744Y-37145D02*
X49744Y-36929D01*
X51358Y-38779D02*
X51535Y-38779D01*
X51535Y-38779D02*
X51594Y-38720D01*
X50787Y-39015D02*
X51122Y-39015D01*
X51122Y-39015D02*
X51358Y-38779D01*
X54133Y-37834D02*
X54547Y-37834D01*
X54547Y-37834D02*
X54704Y-37677D01*
X52165Y-37047D02*
X52165Y-37421D01*
X52165Y-37421D02*
X52145Y-37440D01*
X55877Y-40157D02*
X55511Y-40157D01*
X55511Y-40157D02*
X55275Y-40393D01*
X54960Y-39409D02*
X54881Y-39488D01*
X54881Y-40314D02*
X54940Y-40374D01*
X54881Y-39488D02*
X54881Y-40314D01*
X50433Y-36614D02*
X50433Y-35866D01*
X50433Y-35866D02*
X50472Y-35826D01*
X50433Y-36614D02*
X50767Y-36614D01*
X50767Y-36614D02*
X50984Y-36830D01*
X51574Y-37047D02*
X51574Y-36712D01*
X51043Y-36830D02*
X50984Y-36830D01*
X51220Y-36653D02*
X51043Y-36830D01*
X51515Y-36653D02*
X51220Y-36653D01*
X51574Y-36712D02*
X51515Y-36653D01*
X55275Y-40393D02*
X54960Y-40393D01*
X54960Y-40393D02*
X54940Y-40374D01*
X54094Y-41338D02*
X53838Y-41338D01*
X53838Y-41338D02*
X53799Y-41299D01*
X56141Y-35944D02*
X55787Y-35944D01*
X55787Y-35944D02*
X55728Y-35885D01*
X53346Y-40393D02*
X53346Y-40708D01*
X53582Y-40826D02*
X54094Y-41338D01*
X53464Y-40826D02*
X53582Y-40826D01*
X53346Y-40708D02*
X53464Y-40826D01*
X52952Y-37755D02*
X52952Y-37047D01*
X52913Y-37795D02*
X52952Y-37755D01*
X51220Y-39409D02*
X51318Y-39507D01*
X50787Y-39409D02*
X51220Y-39409D01*
X52627Y-37706D02*
X52460Y-37874D01*
X52627Y-37470D02*
X52627Y-37706D01*
X52755Y-37342D02*
X52755Y-37047D01*
X52627Y-37470D02*
X52755Y-37342D01*
X53464Y-37992D02*
X53425Y-37952D01*
X52854Y-38267D02*
X52775Y-38267D01*
X53169Y-37952D02*
X52854Y-38267D01*
X53425Y-37952D02*
X53169Y-37952D01*
X52559Y-38484D02*
X52775Y-38267D01*
X54133Y-38228D02*
X53700Y-38228D01*
X53700Y-38228D02*
X53464Y-37992D01*
X50787Y-39606D02*
X50472Y-39606D01*
X50098Y-39980D02*
X50019Y-39980D01*
X50472Y-39606D02*
X50098Y-39980D01*
G54D30*
X59050Y-38850D02*
X59055Y-38855D01*
X59055Y-38855D02*
X59055Y-39409D01*
X58050Y-38150D02*
X58050Y-38850D01*
X58550Y-38150D02*
X58550Y-38850D01*
X58050Y-38850D02*
X58550Y-38850D01*
X58550Y-38850D02*
X59050Y-38850D01*
X59050Y-38850D02*
X59050Y-38150D01*
X57550Y-38150D02*
X58050Y-38150D01*
X58050Y-38150D02*
X58550Y-38150D01*
X58550Y-38150D02*
X59050Y-38150D01*
G54D28*
X57550Y-38150D02*
X57550Y-38276D01*
X57440Y-38385D02*
X56715Y-38385D01*
X57550Y-38276D02*
X57440Y-38385D01*
G54D30*
X59278Y-39632D02*
X59055Y-39409D01*
X59055Y-39409D02*
X59050Y-39404D01*
G54D29*
X59050Y-38850D02*
X59050Y-39404D01*
X59050Y-39404D02*
X59278Y-39632D01*
G54D27*
X58050Y-38850D02*
X59050Y-38850D01*
X59050Y-38850D02*
X59050Y-38150D01*
G54D28*
X56715Y-38062D02*
X56715Y-38385D01*
X56715Y-38385D02*
X56715Y-38757D01*
X56715Y-38757D02*
X56692Y-38779D01*
G54D30*
X59881Y-39632D02*
X59278Y-39632D01*
G54D28*
X53582Y-38622D02*
X53503Y-38543D01*
X53503Y-38543D02*
X52992Y-38543D01*
X53582Y-38622D02*
X54133Y-38622D01*
X53641Y-38425D02*
X53464Y-38248D01*
X53464Y-38248D02*
X53287Y-38248D01*
X54133Y-38425D02*
X53641Y-38425D01*
X56715Y-36749D02*
X56417Y-37047D01*
X56715Y-36749D02*
X56715Y-36538D01*
X49468Y-39980D02*
X49468Y-40472D01*
X55275Y-39842D02*
X55472Y-39645D01*
X55472Y-39645D02*
X55472Y-39409D01*
X55877Y-39782D02*
X55845Y-39782D01*
X55845Y-39782D02*
X55472Y-39409D01*
X51614Y-36338D02*
X51771Y-36496D01*
X51771Y-36496D02*
X51771Y-37047D01*
X50984Y-36417D02*
X51062Y-36338D01*
X51062Y-36338D02*
X51614Y-36338D01*
X51377Y-37992D02*
X51968Y-37401D01*
X51968Y-37401D02*
X51968Y-37047D01*
X55770Y-36538D02*
X55770Y-36439D01*
X55770Y-36439D02*
X55433Y-36102D01*
X55767Y-35590D02*
X55551Y-35590D01*
X55433Y-35708D02*
X55433Y-36102D01*
X55551Y-35590D02*
X55433Y-35708D01*
X55925Y-35590D02*
X55767Y-35590D01*
X57550Y-35857D02*
X57550Y-36050D01*
X57283Y-35590D02*
X57550Y-35857D01*
X55925Y-35590D02*
X57283Y-35590D01*
X56400Y-38062D02*
X56400Y-38368D01*
X57550Y-38926D02*
X57550Y-38850D01*
X57362Y-39114D02*
X57550Y-38926D01*
X56594Y-39114D02*
X57362Y-39114D01*
X56515Y-39035D02*
X56594Y-39114D01*
X56515Y-38484D02*
X56515Y-39035D01*
X56400Y-38368D02*
X56515Y-38484D01*
X58129Y-37125D02*
X58779Y-37125D01*
X59114Y-36791D02*
X59114Y-36574D01*
X58779Y-37125D02*
X59114Y-36791D01*
X57913Y-37342D02*
X58129Y-37125D01*
X58444Y-37421D02*
X58208Y-37657D01*
X58877Y-37421D02*
X58444Y-37421D01*
X57030Y-36538D02*
X57030Y-36281D01*
X57030Y-36281D02*
X56692Y-35944D01*
X56085Y-38062D02*
X56085Y-38309D01*
X56240Y-38464D02*
X56240Y-38779D01*
X56085Y-38309D02*
X56240Y-38464D01*
X55433Y-37283D02*
X55433Y-36889D01*
X55432Y-36890D02*
X55118Y-36890D01*
X55433Y-36889D02*
X55432Y-36890D01*
X56085Y-38062D02*
X56085Y-37935D01*
X56085Y-37935D02*
X55433Y-37283D01*
X49429Y-37381D02*
X49429Y-37972D01*
X49429Y-37972D02*
X49448Y-37992D01*
X50787Y-38425D02*
X49763Y-38425D01*
X49448Y-38110D02*
X49448Y-37992D01*
X49763Y-38425D02*
X49448Y-38110D01*
X50078Y-38858D02*
X50078Y-39370D01*
X50078Y-39370D02*
X49960Y-39488D01*
X50787Y-38622D02*
X50314Y-38622D01*
X50314Y-38622D02*
X50078Y-38858D01*
X53602Y-39015D02*
X53484Y-39133D01*
X53484Y-39133D02*
X53129Y-39133D01*
X53129Y-39133D02*
X52952Y-38956D01*
X53602Y-39015D02*
X54133Y-39015D01*
X55925Y-37125D02*
X55925Y-37322D01*
X56112Y-36938D02*
X55925Y-37125D01*
X56151Y-36899D02*
X56112Y-36938D01*
X56400Y-36651D02*
X56151Y-36899D01*
X56400Y-36538D02*
X56400Y-36651D01*
X53385Y-38818D02*
X53366Y-38838D01*
X54133Y-38818D02*
X53385Y-38818D01*
X51240Y-38661D02*
X51240Y-38484D01*
X51240Y-38484D02*
X51318Y-38405D01*
X50787Y-38818D02*
X51082Y-38818D01*
X51082Y-38818D02*
X51240Y-38661D01*
X53149Y-40393D02*
X53149Y-39763D01*
X53149Y-39763D02*
X53110Y-39724D01*
X53543Y-37047D02*
X53543Y-36614D01*
X53543Y-36614D02*
X52834Y-35905D01*
X53897Y-36811D02*
X53897Y-37027D01*
X53897Y-37027D02*
X53799Y-37125D01*
X53799Y-37322D02*
X53799Y-37125D01*
X54133Y-38031D02*
X53759Y-38031D01*
X53759Y-38031D02*
X53681Y-37952D01*
X53681Y-37519D02*
X53799Y-37401D01*
X53799Y-37401D02*
X53799Y-37322D01*
X53681Y-37952D02*
X53681Y-37519D01*
X52952Y-40393D02*
X52952Y-39980D01*
X52952Y-39980D02*
X52696Y-39724D01*
G54D10*
G36*
X48731Y-41562D02*
X48315Y-41562D01*
X48315Y-41015D01*
X48612Y-41015D01*
X48714Y-41118D01*
X48700Y-41189D01*
X48700Y-41409D01*
X48731Y-41562D01*
X48731Y-41562D01*
X48731Y-41562D01*
G37*
G54D31*
X48731Y-41562D02*
X48315Y-41562D01*
X48315Y-41015D01*
X48612Y-41015D01*
X48714Y-41118D01*
X48700Y-41189D01*
X48700Y-41409D01*
X48731Y-41562D01*
X48731Y-41562D01*
G54D10*
G36*
X49180Y-39997D02*
X49127Y-39962D01*
X49055Y-39947D01*
X49055Y-39947D01*
X48838Y-39947D01*
X48767Y-39947D01*
X48725Y-39845D01*
X48638Y-39759D01*
X48525Y-39712D01*
X48403Y-39712D01*
X48315Y-39748D01*
X48315Y-39677D01*
X49005Y-39677D01*
X49021Y-39671D01*
X49021Y-39715D01*
X49059Y-39807D01*
X49130Y-39877D01*
X49180Y-39898D01*
X49180Y-39997D01*
X49180Y-39997D01*
G37*
G54D31*
X49180Y-39997D02*
X49127Y-39962D01*
X49055Y-39947D01*
X49055Y-39947D01*
X48838Y-39947D01*
X48767Y-39947D01*
X48725Y-39845D01*
X48638Y-39759D01*
X48525Y-39712D01*
X48403Y-39712D01*
X48315Y-39748D01*
X48315Y-39677D01*
X49005Y-39677D01*
X49021Y-39671D01*
X49021Y-39715D01*
X49059Y-39807D01*
X49130Y-39877D01*
X49180Y-39898D01*
X49180Y-39997D01*
G54D10*
G36*
X49467Y-39518D02*
X49459Y-39518D01*
X49459Y-39526D01*
X49359Y-39526D01*
X49359Y-39518D01*
X49351Y-39518D01*
X49351Y-39418D01*
X49359Y-39418D01*
X49359Y-39410D01*
X49459Y-39410D01*
X49459Y-39418D01*
X49467Y-39418D01*
X49467Y-39518D01*
X49467Y-39518D01*
G37*
G54D31*
X49467Y-39518D02*
X49459Y-39518D01*
X49459Y-39526D01*
X49359Y-39526D01*
X49359Y-39518D01*
X49351Y-39518D01*
X49351Y-39418D01*
X49359Y-39418D01*
X49359Y-39410D01*
X49459Y-39410D01*
X49459Y-39418D01*
X49467Y-39418D01*
X49467Y-39518D01*
G54D10*
G36*
X49852Y-36935D02*
X49793Y-36934D01*
X49701Y-36972D01*
X49630Y-37043D01*
X49628Y-37048D01*
X49596Y-37035D01*
X49537Y-37035D01*
X49261Y-37035D01*
X49206Y-37057D01*
X49164Y-37099D01*
X49141Y-37155D01*
X49141Y-37214D01*
X49141Y-37466D01*
X49092Y-37348D01*
X48993Y-37317D01*
X48653Y-37657D01*
X48993Y-37997D01*
X49072Y-37972D01*
X49072Y-38297D01*
X49095Y-38352D01*
X49137Y-38394D01*
X49192Y-38417D01*
X49252Y-38417D01*
X49487Y-38417D01*
X49502Y-38432D01*
X49192Y-38432D01*
X49137Y-38455D01*
X49095Y-38497D01*
X49072Y-38552D01*
X49072Y-38612D01*
X49072Y-38860D01*
X49061Y-38849D01*
X49006Y-38826D01*
X48946Y-38826D01*
X48890Y-38826D01*
X48890Y-38822D01*
X48993Y-38719D01*
X49067Y-38541D01*
X49067Y-38348D01*
X48993Y-38170D01*
X48915Y-38092D01*
X48922Y-38068D01*
X48582Y-37728D01*
X48577Y-37733D01*
X48506Y-37663D01*
X48511Y-37657D01*
X48506Y-37651D01*
X48577Y-37581D01*
X48582Y-37586D01*
X48922Y-37246D01*
X48915Y-37222D01*
X48993Y-37144D01*
X49067Y-36966D01*
X49067Y-36774D01*
X49054Y-36743D01*
X49151Y-36783D01*
X49273Y-36783D01*
X49386Y-36737D01*
X49473Y-36650D01*
X49520Y-36537D01*
X49520Y-36415D01*
X49473Y-36302D01*
X49468Y-36297D01*
X49596Y-36350D01*
X49773Y-36350D01*
X49797Y-36341D01*
X49810Y-36354D01*
X49810Y-36653D01*
X49810Y-36811D01*
X49828Y-36898D01*
X49852Y-36935D01*
X49852Y-36935D01*
G37*
G54D31*
X49852Y-36935D02*
X49793Y-36934D01*
X49701Y-36972D01*
X49630Y-37043D01*
X49628Y-37048D01*
X49596Y-37035D01*
X49537Y-37035D01*
X49261Y-37035D01*
X49206Y-37057D01*
X49164Y-37099D01*
X49141Y-37155D01*
X49141Y-37214D01*
X49141Y-37466D01*
X49092Y-37348D01*
X48993Y-37317D01*
X48653Y-37657D01*
X48993Y-37997D01*
X49072Y-37972D01*
X49072Y-38297D01*
X49095Y-38352D01*
X49137Y-38394D01*
X49192Y-38417D01*
X49252Y-38417D01*
X49487Y-38417D01*
X49502Y-38432D01*
X49192Y-38432D01*
X49137Y-38455D01*
X49095Y-38497D01*
X49072Y-38552D01*
X49072Y-38612D01*
X49072Y-38860D01*
X49061Y-38849D01*
X49006Y-38826D01*
X48946Y-38826D01*
X48890Y-38826D01*
X48890Y-38822D01*
X48993Y-38719D01*
X49067Y-38541D01*
X49067Y-38348D01*
X48993Y-38170D01*
X48915Y-38092D01*
X48922Y-38068D01*
X48582Y-37728D01*
X48577Y-37733D01*
X48506Y-37663D01*
X48511Y-37657D01*
X48506Y-37651D01*
X48577Y-37581D01*
X48582Y-37586D01*
X48922Y-37246D01*
X48915Y-37222D01*
X48993Y-37144D01*
X49067Y-36966D01*
X49067Y-36774D01*
X49054Y-36743D01*
X49151Y-36783D01*
X49273Y-36783D01*
X49386Y-36737D01*
X49473Y-36650D01*
X49520Y-36537D01*
X49520Y-36415D01*
X49473Y-36302D01*
X49468Y-36297D01*
X49596Y-36350D01*
X49773Y-36350D01*
X49797Y-36341D01*
X49810Y-36354D01*
X49810Y-36653D01*
X49810Y-36811D01*
X49828Y-36898D01*
X49852Y-36935D01*
G54D10*
G36*
X49858Y-41349D02*
X49850Y-41349D01*
X49850Y-41357D01*
X49750Y-41357D01*
X49750Y-41349D01*
X49742Y-41349D01*
X49742Y-41249D01*
X49750Y-41249D01*
X49750Y-41241D01*
X49850Y-41241D01*
X49850Y-41249D01*
X49858Y-41249D01*
X49858Y-41349D01*
X49858Y-41349D01*
G37*
G54D31*
X49858Y-41349D02*
X49850Y-41349D01*
X49850Y-41357D01*
X49750Y-41357D01*
X49750Y-41349D01*
X49742Y-41349D01*
X49742Y-41249D01*
X49750Y-41249D01*
X49750Y-41241D01*
X49850Y-41241D01*
X49850Y-41249D01*
X49858Y-41249D01*
X49858Y-41349D01*
G54D10*
G36*
X50038Y-37431D02*
X50030Y-37431D01*
X50030Y-37439D01*
X49930Y-37439D01*
X49930Y-37431D01*
X49922Y-37431D01*
X49922Y-37331D01*
X49930Y-37331D01*
X49930Y-37324D01*
X50030Y-37324D01*
X50030Y-37331D01*
X50038Y-37331D01*
X50038Y-37431D01*
X50038Y-37431D01*
G37*
G54D31*
X50038Y-37431D02*
X50030Y-37431D01*
X50030Y-37439D01*
X49930Y-37439D01*
X49930Y-37431D01*
X49922Y-37431D01*
X49922Y-37331D01*
X49930Y-37331D01*
X49930Y-37324D01*
X50030Y-37324D01*
X50030Y-37331D01*
X50038Y-37331D01*
X50038Y-37431D01*
G54D10*
G36*
X50490Y-36664D02*
X50483Y-36664D01*
X50483Y-36672D01*
X50383Y-36672D01*
X50383Y-36664D01*
X50375Y-36664D01*
X50375Y-36564D01*
X50383Y-36564D01*
X50383Y-36556D01*
X50483Y-36556D01*
X50483Y-36564D01*
X50490Y-36564D01*
X50490Y-36664D01*
X50490Y-36664D01*
G37*
G54D31*
X50490Y-36664D02*
X50483Y-36664D01*
X50483Y-36672D01*
X50383Y-36672D01*
X50383Y-36664D01*
X50375Y-36664D01*
X50375Y-36564D01*
X50383Y-36564D01*
X50383Y-36556D01*
X50483Y-36556D01*
X50483Y-36564D01*
X50490Y-36564D01*
X50490Y-36664D01*
G54D10*
G36*
X50548Y-35792D02*
X50478Y-35863D01*
X50472Y-35858D01*
X50466Y-35863D01*
X50396Y-35792D01*
X50401Y-35787D01*
X50396Y-35781D01*
X50466Y-35711D01*
X50472Y-35716D01*
X50478Y-35711D01*
X50548Y-35781D01*
X50543Y-35787D01*
X50548Y-35792D01*
X50548Y-35792D01*
G37*
G54D31*
X50548Y-35792D02*
X50478Y-35863D01*
X50472Y-35858D01*
X50466Y-35863D01*
X50396Y-35792D01*
X50401Y-35787D01*
X50396Y-35781D01*
X50466Y-35711D01*
X50472Y-35716D01*
X50478Y-35711D01*
X50548Y-35781D01*
X50543Y-35787D01*
X50548Y-35792D01*
G54D10*
G36*
X51567Y-36561D02*
X51524Y-36561D01*
X51524Y-36603D01*
X51482Y-36561D01*
X51466Y-36560D01*
X51374Y-36598D01*
X51312Y-36660D01*
X51289Y-36660D01*
X51234Y-36683D01*
X51191Y-36725D01*
X51168Y-36781D01*
X51168Y-36840D01*
X51168Y-37065D01*
X51106Y-37003D01*
X51032Y-36954D01*
X50944Y-36936D01*
X50798Y-36936D01*
X50841Y-36893D01*
X50879Y-36801D01*
X50879Y-36726D01*
X50846Y-36692D01*
X50922Y-36724D01*
X51045Y-36724D01*
X51158Y-36678D01*
X51244Y-36591D01*
X51270Y-36528D01*
X51535Y-36528D01*
X51567Y-36561D01*
X51567Y-36561D01*
G37*
G54D31*
X51567Y-36561D02*
X51524Y-36561D01*
X51524Y-36603D01*
X51482Y-36561D01*
X51466Y-36560D01*
X51374Y-36598D01*
X51312Y-36660D01*
X51289Y-36660D01*
X51234Y-36683D01*
X51191Y-36725D01*
X51168Y-36781D01*
X51168Y-36840D01*
X51168Y-37065D01*
X51106Y-37003D01*
X51032Y-36954D01*
X50944Y-36936D01*
X50798Y-36936D01*
X50841Y-36893D01*
X50879Y-36801D01*
X50879Y-36726D01*
X50846Y-36692D01*
X50922Y-36724D01*
X51045Y-36724D01*
X51158Y-36678D01*
X51244Y-36591D01*
X51270Y-36528D01*
X51535Y-36528D01*
X51567Y-36561D01*
G54D10*
G36*
X52741Y-39179D02*
X52677Y-39179D01*
X52618Y-39179D01*
X52545Y-39194D01*
X52520Y-39210D01*
X52483Y-39235D01*
X52483Y-39235D01*
X52267Y-39452D01*
X52225Y-39513D01*
X52211Y-39586D01*
X52211Y-39586D01*
X52211Y-39750D01*
X52106Y-39750D01*
X52106Y-39750D01*
X52091Y-39753D01*
X52033Y-39765D01*
X51971Y-39806D01*
X51971Y-39806D01*
X51961Y-39816D01*
X51961Y-39634D01*
X51992Y-39603D01*
X52039Y-39490D01*
X52039Y-39368D01*
X51993Y-39255D01*
X51906Y-39168D01*
X51793Y-39121D01*
X51764Y-39121D01*
X51764Y-39033D01*
X51717Y-38920D01*
X51631Y-38833D01*
X51518Y-38787D01*
X51395Y-38786D01*
X51374Y-38795D01*
X51399Y-38758D01*
X51415Y-38734D01*
X51415Y-38734D01*
X51423Y-38694D01*
X51492Y-38666D01*
X51579Y-38579D01*
X51626Y-38466D01*
X51626Y-38344D01*
X51579Y-38231D01*
X51576Y-38228D01*
X51638Y-38166D01*
X51685Y-38053D01*
X51685Y-37953D01*
X52102Y-37536D01*
X52102Y-37536D01*
X52102Y-37536D01*
X52127Y-37499D01*
X52144Y-37474D01*
X52144Y-37474D01*
X52158Y-37401D01*
X52158Y-37358D01*
X52165Y-37342D01*
X52175Y-37368D01*
X52194Y-37387D01*
X52194Y-37470D01*
X52257Y-37533D01*
X52273Y-37533D01*
X52365Y-37495D01*
X52427Y-37433D01*
X52445Y-37433D01*
X52437Y-37470D01*
X52437Y-37470D01*
X52437Y-37566D01*
X52399Y-37566D01*
X52286Y-37613D01*
X52200Y-37699D01*
X52153Y-37812D01*
X52153Y-37934D01*
X52199Y-38047D01*
X52286Y-38134D01*
X52399Y-38181D01*
X52486Y-38181D01*
X52385Y-38223D01*
X52298Y-38309D01*
X52251Y-38422D01*
X52251Y-38545D01*
X52298Y-38658D01*
X52384Y-38744D01*
X52497Y-38791D01*
X52619Y-38791D01*
X52727Y-38747D01*
X52692Y-38782D01*
X52645Y-38895D01*
X52645Y-39017D01*
X52691Y-39130D01*
X52741Y-39179D01*
X52741Y-39179D01*
G37*
G54D31*
X52741Y-39179D02*
X52677Y-39179D01*
X52618Y-39179D01*
X52545Y-39194D01*
X52520Y-39210D01*
X52483Y-39235D01*
X52483Y-39235D01*
X52267Y-39452D01*
X52225Y-39513D01*
X52211Y-39586D01*
X52211Y-39586D01*
X52211Y-39750D01*
X52106Y-39750D01*
X52106Y-39750D01*
X52091Y-39753D01*
X52033Y-39765D01*
X51971Y-39806D01*
X51971Y-39806D01*
X51961Y-39816D01*
X51961Y-39634D01*
X51992Y-39603D01*
X52039Y-39490D01*
X52039Y-39368D01*
X51993Y-39255D01*
X51906Y-39168D01*
X51793Y-39121D01*
X51764Y-39121D01*
X51764Y-39033D01*
X51717Y-38920D01*
X51631Y-38833D01*
X51518Y-38787D01*
X51395Y-38786D01*
X51374Y-38795D01*
X51399Y-38758D01*
X51415Y-38734D01*
X51415Y-38734D01*
X51423Y-38694D01*
X51492Y-38666D01*
X51579Y-38579D01*
X51626Y-38466D01*
X51626Y-38344D01*
X51579Y-38231D01*
X51576Y-38228D01*
X51638Y-38166D01*
X51685Y-38053D01*
X51685Y-37953D01*
X52102Y-37536D01*
X52102Y-37536D01*
X52102Y-37536D01*
X52127Y-37499D01*
X52144Y-37474D01*
X52144Y-37474D01*
X52158Y-37401D01*
X52158Y-37358D01*
X52165Y-37342D01*
X52175Y-37368D01*
X52194Y-37387D01*
X52194Y-37470D01*
X52257Y-37533D01*
X52273Y-37533D01*
X52365Y-37495D01*
X52427Y-37433D01*
X52445Y-37433D01*
X52437Y-37470D01*
X52437Y-37470D01*
X52437Y-37566D01*
X52399Y-37566D01*
X52286Y-37613D01*
X52200Y-37699D01*
X52153Y-37812D01*
X52153Y-37934D01*
X52199Y-38047D01*
X52286Y-38134D01*
X52399Y-38181D01*
X52486Y-38181D01*
X52385Y-38223D01*
X52298Y-38309D01*
X52251Y-38422D01*
X52251Y-38545D01*
X52298Y-38658D01*
X52384Y-38744D01*
X52497Y-38791D01*
X52619Y-38791D01*
X52727Y-38747D01*
X52692Y-38782D01*
X52645Y-38895D01*
X52645Y-39017D01*
X52691Y-39130D01*
X52741Y-39179D01*
G54D10*
G36*
X53760Y-40986D02*
X53755Y-40988D01*
X53685Y-41059D01*
X53678Y-41076D01*
X53670Y-41036D01*
X53583Y-40906D01*
X53509Y-40857D01*
X53546Y-40841D01*
X53609Y-40779D01*
X53632Y-40779D01*
X53687Y-40757D01*
X53729Y-40715D01*
X53736Y-40698D01*
X53747Y-40709D01*
X53747Y-40954D01*
X53760Y-40986D01*
X53760Y-40986D01*
G37*
G54D31*
X53760Y-40986D02*
X53755Y-40988D01*
X53685Y-41059D01*
X53678Y-41076D01*
X53670Y-41036D01*
X53583Y-40906D01*
X53509Y-40857D01*
X53546Y-40841D01*
X53609Y-40779D01*
X53632Y-40779D01*
X53687Y-40757D01*
X53729Y-40715D01*
X53736Y-40698D01*
X53747Y-40709D01*
X53747Y-40954D01*
X53760Y-40986D01*
G54D10*
G36*
X54152Y-41388D02*
X54144Y-41388D01*
X54144Y-41396D01*
X54044Y-41396D01*
X54044Y-41388D01*
X54036Y-41388D01*
X54036Y-41288D01*
X54044Y-41288D01*
X54044Y-41280D01*
X54144Y-41280D01*
X54144Y-41288D01*
X54152Y-41288D01*
X54152Y-41388D01*
X54152Y-41388D01*
G37*
G54D31*
X54152Y-41388D02*
X54144Y-41388D01*
X54144Y-41396D01*
X54044Y-41396D01*
X54044Y-41388D01*
X54036Y-41388D01*
X54036Y-41288D01*
X54044Y-41288D01*
X54044Y-41280D01*
X54144Y-41280D01*
X54144Y-41288D01*
X54152Y-41288D01*
X54152Y-41388D01*
G54D10*
G36*
X55018Y-39459D02*
X55010Y-39459D01*
X55010Y-39467D01*
X54910Y-39467D01*
X54910Y-39459D01*
X54902Y-39459D01*
X54902Y-39359D01*
X54910Y-39359D01*
X54910Y-39351D01*
X55010Y-39351D01*
X55010Y-39359D01*
X55018Y-39359D01*
X55018Y-39459D01*
X55018Y-39459D01*
G37*
G54D31*
X55018Y-39459D02*
X55010Y-39459D01*
X55010Y-39467D01*
X54910Y-39467D01*
X54910Y-39459D01*
X54902Y-39459D01*
X54902Y-39359D01*
X54910Y-39359D01*
X54910Y-39351D01*
X55010Y-39351D01*
X55010Y-39359D01*
X55018Y-39359D01*
X55018Y-39459D01*
G54D10*
G36*
X55254Y-41506D02*
X55246Y-41506D01*
X55246Y-41514D01*
X55146Y-41514D01*
X55146Y-41506D01*
X55030Y-41506D01*
X54812Y-41506D01*
X54695Y-41506D01*
X54695Y-41514D01*
X54595Y-41514D01*
X54595Y-41506D01*
X54587Y-41506D01*
X54587Y-41406D01*
X54595Y-41406D01*
X54595Y-41398D01*
X54695Y-41398D01*
X54695Y-41406D01*
X54812Y-41406D01*
X55030Y-41406D01*
X55146Y-41406D01*
X55146Y-41398D01*
X55246Y-41398D01*
X55246Y-41406D01*
X55254Y-41406D01*
X55254Y-41506D01*
X55254Y-41506D01*
G37*
G54D31*
X55254Y-41506D02*
X55246Y-41506D01*
X55246Y-41514D01*
X55146Y-41514D01*
X55146Y-41506D01*
X55030Y-41506D01*
X54812Y-41506D01*
X54695Y-41506D01*
X54695Y-41514D01*
X54595Y-41514D01*
X54595Y-41506D01*
X54587Y-41506D01*
X54587Y-41406D01*
X54595Y-41406D01*
X54595Y-41398D01*
X54695Y-41398D01*
X54695Y-41406D01*
X54812Y-41406D01*
X55030Y-41406D01*
X55146Y-41406D01*
X55146Y-41398D01*
X55246Y-41398D01*
X55246Y-41406D01*
X55254Y-41406D01*
X55254Y-41506D01*
G54D10*
G36*
X55333Y-40443D02*
X55325Y-40443D01*
X55325Y-40451D01*
X55225Y-40451D01*
X55225Y-40443D01*
X55217Y-40443D01*
X55217Y-40343D01*
X55225Y-40343D01*
X55225Y-40335D01*
X55325Y-40335D01*
X55325Y-40343D01*
X55333Y-40343D01*
X55333Y-40443D01*
X55333Y-40443D01*
G37*
G54D31*
X55333Y-40443D02*
X55325Y-40443D01*
X55325Y-40451D01*
X55225Y-40451D01*
X55225Y-40443D01*
X55217Y-40443D01*
X55217Y-40343D01*
X55225Y-40343D01*
X55225Y-40335D01*
X55325Y-40335D01*
X55325Y-40343D01*
X55333Y-40343D01*
X55333Y-40443D01*
G54D10*
G36*
X55543Y-36481D02*
X55502Y-36464D01*
X55442Y-36464D01*
X54734Y-36464D01*
X54679Y-36487D01*
X54637Y-36529D01*
X54614Y-36584D01*
X54614Y-36644D01*
X54614Y-37195D01*
X54636Y-37250D01*
X54679Y-37292D01*
X54734Y-37315D01*
X54793Y-37315D01*
X54853Y-37315D01*
X54810Y-37418D01*
X54810Y-37541D01*
X54857Y-37654D01*
X54889Y-37686D01*
X54889Y-37802D01*
X54734Y-37802D01*
X54679Y-37825D01*
X54637Y-37867D01*
X54614Y-37921D01*
X54557Y-37864D01*
X54473Y-37864D01*
X54455Y-37845D01*
X54429Y-37834D01*
X54454Y-37824D01*
X54473Y-37805D01*
X54557Y-37805D01*
X54620Y-37742D01*
X54620Y-37726D01*
X54582Y-37634D01*
X54520Y-37572D01*
X54520Y-37549D01*
X54497Y-37493D01*
X54455Y-37451D01*
X54400Y-37428D01*
X54340Y-37428D01*
X54324Y-37428D01*
X54324Y-37315D01*
X54352Y-37315D01*
X54465Y-37268D01*
X54551Y-37182D01*
X54598Y-37069D01*
X54598Y-36946D01*
X54552Y-36833D01*
X54465Y-36747D01*
X54352Y-36700D01*
X54230Y-36700D01*
X54191Y-36716D01*
X54158Y-36637D01*
X54072Y-36550D01*
X53959Y-36503D01*
X53836Y-36503D01*
X53723Y-36550D01*
X53721Y-36552D01*
X53718Y-36541D01*
X53718Y-36541D01*
X53702Y-36516D01*
X53677Y-36479D01*
X53677Y-36479D01*
X53254Y-36056D01*
X53256Y-36051D01*
X53369Y-36164D01*
X53533Y-36232D01*
X53710Y-36232D01*
X53873Y-36165D01*
X53964Y-36075D01*
X53964Y-36230D01*
X53986Y-36285D01*
X54029Y-36327D01*
X54084Y-36350D01*
X54143Y-36350D01*
X54734Y-36350D01*
X54789Y-36328D01*
X54831Y-36285D01*
X54854Y-36230D01*
X54854Y-36171D01*
X54854Y-35602D01*
X55279Y-35602D01*
X55257Y-35635D01*
X55242Y-35708D01*
X55242Y-35708D01*
X55242Y-36102D01*
X55242Y-36102D01*
X55257Y-36175D01*
X55298Y-36236D01*
X55543Y-36481D01*
X55543Y-36481D01*
G37*
G54D31*
X55543Y-36481D02*
X55502Y-36464D01*
X55442Y-36464D01*
X54734Y-36464D01*
X54679Y-36487D01*
X54637Y-36529D01*
X54614Y-36584D01*
X54614Y-36644D01*
X54614Y-37195D01*
X54636Y-37250D01*
X54679Y-37292D01*
X54734Y-37315D01*
X54793Y-37315D01*
X54853Y-37315D01*
X54810Y-37418D01*
X54810Y-37541D01*
X54857Y-37654D01*
X54889Y-37686D01*
X54889Y-37802D01*
X54734Y-37802D01*
X54679Y-37825D01*
X54637Y-37867D01*
X54614Y-37921D01*
X54557Y-37864D01*
X54473Y-37864D01*
X54455Y-37845D01*
X54429Y-37834D01*
X54454Y-37824D01*
X54473Y-37805D01*
X54557Y-37805D01*
X54620Y-37742D01*
X54620Y-37726D01*
X54582Y-37634D01*
X54520Y-37572D01*
X54520Y-37549D01*
X54497Y-37493D01*
X54455Y-37451D01*
X54400Y-37428D01*
X54340Y-37428D01*
X54324Y-37428D01*
X54324Y-37315D01*
X54352Y-37315D01*
X54465Y-37268D01*
X54551Y-37182D01*
X54598Y-37069D01*
X54598Y-36946D01*
X54552Y-36833D01*
X54465Y-36747D01*
X54352Y-36700D01*
X54230Y-36700D01*
X54191Y-36716D01*
X54158Y-36637D01*
X54072Y-36550D01*
X53959Y-36503D01*
X53836Y-36503D01*
X53723Y-36550D01*
X53721Y-36552D01*
X53718Y-36541D01*
X53718Y-36541D01*
X53702Y-36516D01*
X53677Y-36479D01*
X53677Y-36479D01*
X53254Y-36056D01*
X53256Y-36051D01*
X53369Y-36164D01*
X53533Y-36232D01*
X53710Y-36232D01*
X53873Y-36165D01*
X53964Y-36075D01*
X53964Y-36230D01*
X53986Y-36285D01*
X54029Y-36327D01*
X54084Y-36350D01*
X54143Y-36350D01*
X54734Y-36350D01*
X54789Y-36328D01*
X54831Y-36285D01*
X54854Y-36230D01*
X54854Y-36171D01*
X54854Y-35602D01*
X55279Y-35602D01*
X55257Y-35635D01*
X55242Y-35708D01*
X55242Y-35708D01*
X55242Y-36102D01*
X55242Y-36102D01*
X55257Y-36175D01*
X55298Y-36236D01*
X55543Y-36481D01*
G54D10*
G36*
X55989Y-38483D02*
X55975Y-38497D01*
X55952Y-38552D01*
X55952Y-38612D01*
X55952Y-38935D01*
X55819Y-38802D01*
X55819Y-38690D01*
X55796Y-38635D01*
X55754Y-38593D01*
X55699Y-38570D01*
X55639Y-38570D01*
X55606Y-38570D01*
X55622Y-38533D01*
X55622Y-38473D01*
X55622Y-38358D01*
X55677Y-38381D01*
X55736Y-38381D01*
X55862Y-38381D01*
X55905Y-38363D01*
X55909Y-38382D01*
X55950Y-38443D01*
X55989Y-38483D01*
X55989Y-38483D01*
G37*
G54D31*
X55989Y-38483D02*
X55975Y-38497D01*
X55952Y-38552D01*
X55952Y-38612D01*
X55952Y-38935D01*
X55819Y-38802D01*
X55819Y-38690D01*
X55796Y-38635D01*
X55754Y-38593D01*
X55699Y-38570D01*
X55639Y-38570D01*
X55606Y-38570D01*
X55622Y-38533D01*
X55622Y-38473D01*
X55622Y-38358D01*
X55677Y-38381D01*
X55736Y-38381D01*
X55862Y-38381D01*
X55905Y-38363D01*
X55909Y-38382D01*
X55950Y-38443D01*
X55989Y-38483D01*
G54D10*
G36*
X56142Y-36588D02*
X56116Y-36588D01*
X56116Y-36595D01*
X56053Y-36595D01*
X56053Y-36588D01*
X56027Y-36588D01*
X56027Y-36488D01*
X56053Y-36488D01*
X56053Y-36480D01*
X56116Y-36480D01*
X56116Y-36488D01*
X56142Y-36488D01*
X56142Y-36588D01*
X56142Y-36588D01*
G37*
G54D31*
X56142Y-36588D02*
X56116Y-36588D01*
X56116Y-36595D01*
X56053Y-36595D01*
X56053Y-36588D01*
X56027Y-36588D01*
X56027Y-36488D01*
X56053Y-36488D01*
X56053Y-36480D01*
X56116Y-36480D01*
X56116Y-36488D01*
X56142Y-36488D01*
X56142Y-36588D01*
G54D10*
G36*
X56199Y-35994D02*
X56191Y-35994D01*
X56191Y-36002D01*
X56091Y-36002D01*
X56091Y-35994D01*
X55816Y-35994D01*
X55753Y-36057D01*
X55753Y-36092D01*
X55753Y-36154D01*
X55623Y-36023D01*
X55623Y-35787D01*
X55629Y-35780D01*
X55753Y-35780D01*
X55753Y-35797D01*
X55753Y-35832D01*
X55816Y-35894D01*
X56091Y-35894D01*
X56091Y-35887D01*
X56191Y-35887D01*
X56191Y-35894D01*
X56199Y-35894D01*
X56199Y-35994D01*
X56199Y-35994D01*
G37*
G54D31*
X56199Y-35994D02*
X56191Y-35994D01*
X56191Y-36002D01*
X56091Y-36002D01*
X56091Y-35994D01*
X55816Y-35994D01*
X55753Y-36057D01*
X55753Y-36092D01*
X55753Y-36154D01*
X55623Y-36023D01*
X55623Y-35787D01*
X55629Y-35780D01*
X55753Y-35780D01*
X55753Y-35797D01*
X55753Y-35832D01*
X55816Y-35894D01*
X56091Y-35894D01*
X56091Y-35887D01*
X56191Y-35887D01*
X56191Y-35894D01*
X56199Y-35894D01*
X56199Y-35994D01*
G54D10*
G36*
X56987Y-41546D02*
X56979Y-41546D01*
X56979Y-41553D01*
X56879Y-41553D01*
X56879Y-41546D01*
X56544Y-41546D01*
X56528Y-41562D01*
X55637Y-41562D01*
X55581Y-41506D01*
X55643Y-41506D01*
X55643Y-41488D01*
X55679Y-41488D01*
X55954Y-41488D01*
X56010Y-41465D01*
X56052Y-41423D01*
X56062Y-41397D01*
X56073Y-41423D01*
X56115Y-41465D01*
X56170Y-41488D01*
X56230Y-41488D01*
X56506Y-41488D01*
X56561Y-41465D01*
X56581Y-41446D01*
X56879Y-41446D01*
X56879Y-41438D01*
X56979Y-41438D01*
X56979Y-41446D01*
X56987Y-41446D01*
X56987Y-41546D01*
X56987Y-41546D01*
G37*
G54D31*
X56987Y-41546D02*
X56979Y-41546D01*
X56979Y-41553D01*
X56879Y-41553D01*
X56879Y-41546D01*
X56544Y-41546D01*
X56528Y-41562D01*
X55637Y-41562D01*
X55581Y-41506D01*
X55643Y-41506D01*
X55643Y-41488D01*
X55679Y-41488D01*
X55954Y-41488D01*
X56010Y-41465D01*
X56052Y-41423D01*
X56062Y-41397D01*
X56073Y-41423D01*
X56115Y-41465D01*
X56170Y-41488D01*
X56230Y-41488D01*
X56506Y-41488D01*
X56561Y-41465D01*
X56581Y-41446D01*
X56879Y-41446D01*
X56879Y-41438D01*
X56979Y-41438D01*
X56979Y-41446D01*
X56987Y-41446D01*
X56987Y-41546D01*
G54D10*
G36*
X59107Y-36100D02*
X59100Y-36100D01*
X59100Y-36107D01*
X59000Y-36107D01*
X59000Y-36100D01*
X58837Y-36100D01*
X58762Y-36100D01*
X58600Y-36100D01*
X58600Y-36462D01*
X58662Y-36525D01*
X58699Y-36525D01*
X58791Y-36487D01*
X58800Y-36478D01*
X58808Y-36487D01*
X58816Y-36490D01*
X58806Y-36513D01*
X58806Y-36635D01*
X58853Y-36748D01*
X58870Y-36766D01*
X58700Y-36935D01*
X58500Y-36935D01*
X58500Y-36462D01*
X58500Y-36100D01*
X58337Y-36100D01*
X58262Y-36100D01*
X58100Y-36100D01*
X58100Y-36462D01*
X58162Y-36525D01*
X58199Y-36525D01*
X58291Y-36487D01*
X58300Y-36478D01*
X58308Y-36487D01*
X58400Y-36525D01*
X58437Y-36525D01*
X58500Y-36462D01*
X58500Y-36935D01*
X58129Y-36935D01*
X58057Y-36950D01*
X58032Y-36966D01*
X57995Y-36991D01*
X57995Y-36991D01*
X57951Y-37035D01*
X57852Y-37034D01*
X57739Y-37081D01*
X57652Y-37168D01*
X57605Y-37281D01*
X57605Y-37403D01*
X57652Y-37516D01*
X57738Y-37603D01*
X57851Y-37649D01*
X57901Y-37649D01*
X57901Y-37718D01*
X57924Y-37774D01*
X57920Y-37774D01*
X57865Y-37797D01*
X57859Y-37803D01*
X57740Y-37803D01*
X57735Y-37797D01*
X57679Y-37775D01*
X57620Y-37774D01*
X57420Y-37774D01*
X57365Y-37797D01*
X57322Y-37839D01*
X57300Y-37895D01*
X57300Y-37911D01*
X57243Y-37997D01*
X57243Y-37862D01*
X57220Y-37807D01*
X57213Y-37801D01*
X57256Y-37699D01*
X57256Y-37576D01*
X57209Y-37463D01*
X57123Y-37377D01*
X57010Y-37330D01*
X56887Y-37330D01*
X56774Y-37376D01*
X56722Y-37429D01*
X56670Y-37377D01*
X56557Y-37330D01*
X56537Y-37330D01*
X56591Y-37308D01*
X56677Y-37221D01*
X56724Y-37108D01*
X56724Y-37008D01*
X56849Y-36884D01*
X56849Y-36884D01*
X56849Y-36884D01*
X56882Y-36834D01*
X56937Y-36857D01*
X56996Y-36857D01*
X57122Y-36857D01*
X57177Y-36834D01*
X57220Y-36792D01*
X57242Y-36737D01*
X57243Y-36677D01*
X57243Y-36338D01*
X57220Y-36283D01*
X57220Y-36283D01*
X57220Y-36281D01*
X57205Y-36209D01*
X57205Y-36209D01*
X57164Y-36147D01*
X57164Y-36147D01*
X56980Y-35963D01*
X56980Y-35780D01*
X57204Y-35780D01*
X57299Y-35875D01*
X57299Y-36304D01*
X57322Y-36359D01*
X57364Y-36402D01*
X57420Y-36424D01*
X57479Y-36425D01*
X57679Y-36425D01*
X57732Y-36403D01*
X57738Y-36416D01*
X57808Y-36487D01*
X57900Y-36525D01*
X57937Y-36525D01*
X58000Y-36462D01*
X58000Y-36100D01*
X57992Y-36100D01*
X57992Y-36000D01*
X58000Y-36000D01*
X58000Y-35992D01*
X58100Y-35992D01*
X58100Y-36000D01*
X58262Y-36000D01*
X58337Y-36000D01*
X58500Y-36000D01*
X58500Y-35992D01*
X58600Y-35992D01*
X58600Y-36000D01*
X58762Y-36000D01*
X58837Y-36000D01*
X59000Y-36000D01*
X59000Y-35992D01*
X59100Y-35992D01*
X59100Y-36000D01*
X59107Y-36000D01*
X59107Y-36100D01*
X59107Y-36100D01*
G37*
G54D31*
X59107Y-36100D02*
X59100Y-36100D01*
X59100Y-36107D01*
X59000Y-36107D01*
X59000Y-36100D01*
X58837Y-36100D01*
X58762Y-36100D01*
X58600Y-36100D01*
X58600Y-36462D01*
X58662Y-36525D01*
X58699Y-36525D01*
X58791Y-36487D01*
X58800Y-36478D01*
X58808Y-36487D01*
X58816Y-36490D01*
X58806Y-36513D01*
X58806Y-36635D01*
X58853Y-36748D01*
X58870Y-36766D01*
X58700Y-36935D01*
X58500Y-36935D01*
X58500Y-36462D01*
X58500Y-36100D01*
X58337Y-36100D01*
X58262Y-36100D01*
X58100Y-36100D01*
X58100Y-36462D01*
X58162Y-36525D01*
X58199Y-36525D01*
X58291Y-36487D01*
X58300Y-36478D01*
X58308Y-36487D01*
X58400Y-36525D01*
X58437Y-36525D01*
X58500Y-36462D01*
X58500Y-36935D01*
X58129Y-36935D01*
X58057Y-36950D01*
X58032Y-36966D01*
X57995Y-36991D01*
X57995Y-36991D01*
X57951Y-37035D01*
X57852Y-37034D01*
X57739Y-37081D01*
X57652Y-37168D01*
X57605Y-37281D01*
X57605Y-37403D01*
X57652Y-37516D01*
X57738Y-37603D01*
X57851Y-37649D01*
X57901Y-37649D01*
X57901Y-37718D01*
X57924Y-37774D01*
X57920Y-37774D01*
X57865Y-37797D01*
X57859Y-37803D01*
X57740Y-37803D01*
X57735Y-37797D01*
X57679Y-37775D01*
X57620Y-37774D01*
X57420Y-37774D01*
X57365Y-37797D01*
X57322Y-37839D01*
X57300Y-37895D01*
X57300Y-37911D01*
X57243Y-37997D01*
X57243Y-37862D01*
X57220Y-37807D01*
X57213Y-37801D01*
X57256Y-37699D01*
X57256Y-37576D01*
X57209Y-37463D01*
X57123Y-37377D01*
X57010Y-37330D01*
X56887Y-37330D01*
X56774Y-37376D01*
X56722Y-37429D01*
X56670Y-37377D01*
X56557Y-37330D01*
X56537Y-37330D01*
X56591Y-37308D01*
X56677Y-37221D01*
X56724Y-37108D01*
X56724Y-37008D01*
X56849Y-36884D01*
X56849Y-36884D01*
X56849Y-36884D01*
X56882Y-36834D01*
X56937Y-36857D01*
X56996Y-36857D01*
X57122Y-36857D01*
X57177Y-36834D01*
X57220Y-36792D01*
X57242Y-36737D01*
X57243Y-36677D01*
X57243Y-36338D01*
X57220Y-36283D01*
X57220Y-36283D01*
X57220Y-36281D01*
X57205Y-36209D01*
X57205Y-36209D01*
X57164Y-36147D01*
X57164Y-36147D01*
X56980Y-35963D01*
X56980Y-35780D01*
X57204Y-35780D01*
X57299Y-35875D01*
X57299Y-36304D01*
X57322Y-36359D01*
X57364Y-36402D01*
X57420Y-36424D01*
X57479Y-36425D01*
X57679Y-36425D01*
X57732Y-36403D01*
X57738Y-36416D01*
X57808Y-36487D01*
X57900Y-36525D01*
X57937Y-36525D01*
X58000Y-36462D01*
X58000Y-36100D01*
X57992Y-36100D01*
X57992Y-36000D01*
X58000Y-36000D01*
X58000Y-35992D01*
X58100Y-35992D01*
X58100Y-36000D01*
X58262Y-36000D01*
X58337Y-36000D01*
X58500Y-36000D01*
X58500Y-35992D01*
X58600Y-35992D01*
X58600Y-36000D01*
X58762Y-36000D01*
X58837Y-36000D01*
X59000Y-36000D01*
X59000Y-35992D01*
X59100Y-35992D01*
X59100Y-36000D01*
X59107Y-36000D01*
X59107Y-36100D01*
G54D10*
G36*
X59589Y-39982D02*
X59489Y-40049D01*
X59402Y-40179D01*
X59372Y-40332D01*
X59402Y-40485D01*
X59489Y-40615D01*
X59580Y-40676D01*
X59547Y-40676D01*
X59476Y-40629D01*
X59343Y-40603D01*
X59240Y-40603D01*
X59235Y-40597D01*
X59179Y-40575D01*
X59120Y-40574D01*
X58920Y-40574D01*
X58865Y-40597D01*
X58859Y-40603D01*
X58740Y-40603D01*
X58735Y-40597D01*
X58679Y-40575D01*
X58620Y-40574D01*
X58420Y-40574D01*
X58365Y-40597D01*
X58359Y-40603D01*
X58240Y-40603D01*
X58235Y-40597D01*
X58179Y-40575D01*
X58120Y-40574D01*
X57920Y-40574D01*
X57865Y-40597D01*
X57859Y-40603D01*
X57740Y-40603D01*
X57735Y-40597D01*
X57679Y-40575D01*
X57620Y-40574D01*
X57420Y-40574D01*
X57365Y-40597D01*
X57322Y-40639D01*
X57300Y-40695D01*
X57300Y-40711D01*
X57268Y-40759D01*
X57253Y-40722D01*
X57211Y-40679D01*
X57176Y-40665D01*
X57177Y-40662D01*
X57177Y-40602D01*
X57177Y-40402D01*
X57155Y-40347D01*
X57113Y-40305D01*
X57057Y-40282D01*
X56998Y-40282D01*
X56698Y-40282D01*
X56643Y-40305D01*
X56600Y-40347D01*
X56577Y-40402D01*
X56577Y-40462D01*
X56577Y-40662D01*
X56600Y-40717D01*
X56605Y-40721D01*
X56605Y-40722D01*
X56582Y-40777D01*
X56582Y-40836D01*
X56582Y-40838D01*
X56561Y-40817D01*
X56506Y-40794D01*
X56446Y-40794D01*
X56171Y-40794D01*
X56115Y-40817D01*
X56073Y-40859D01*
X56062Y-40885D01*
X56052Y-40860D01*
X56010Y-40817D01*
X55955Y-40794D01*
X55895Y-40794D01*
X55709Y-40794D01*
X55696Y-40781D01*
X55697Y-40782D01*
X55757Y-40782D01*
X56057Y-40782D01*
X56112Y-40759D01*
X56155Y-40717D01*
X56177Y-40662D01*
X56177Y-40602D01*
X56177Y-40461D01*
X56240Y-40398D01*
X56277Y-40306D01*
X56277Y-40269D01*
X56215Y-40207D01*
X55927Y-40207D01*
X55927Y-40215D01*
X55827Y-40215D01*
X55827Y-40207D01*
X55820Y-40207D01*
X55820Y-40107D01*
X55827Y-40107D01*
X55827Y-40099D01*
X55927Y-40099D01*
X55927Y-40107D01*
X56215Y-40107D01*
X56277Y-40044D01*
X56277Y-40007D01*
X56240Y-39916D01*
X56177Y-39853D01*
X56177Y-39852D01*
X56177Y-39652D01*
X56155Y-39597D01*
X56117Y-39559D01*
X56331Y-39559D01*
X56577Y-39805D01*
X56577Y-39912D01*
X56600Y-39967D01*
X56642Y-40009D01*
X56697Y-40032D01*
X56757Y-40032D01*
X57057Y-40032D01*
X57112Y-40009D01*
X57155Y-39967D01*
X57177Y-39912D01*
X57177Y-39852D01*
X57177Y-39652D01*
X57155Y-39597D01*
X57113Y-39555D01*
X57057Y-39532D01*
X56998Y-39532D01*
X56951Y-39532D01*
X56723Y-39304D01*
X57362Y-39304D01*
X57362Y-39304D01*
X57362Y-39304D01*
X57434Y-39289D01*
X57496Y-39248D01*
X57520Y-39225D01*
X57679Y-39225D01*
X57734Y-39202D01*
X57777Y-39160D01*
X57799Y-39104D01*
X57799Y-39104D01*
X57822Y-39159D01*
X57864Y-39202D01*
X57920Y-39224D01*
X57979Y-39225D01*
X58179Y-39225D01*
X58234Y-39202D01*
X58240Y-39196D01*
X58359Y-39196D01*
X58364Y-39202D01*
X58420Y-39224D01*
X58479Y-39225D01*
X58679Y-39225D01*
X58708Y-39213D01*
X58708Y-39378D01*
X58703Y-39404D01*
X58729Y-39537D01*
X58804Y-39649D01*
X58809Y-39654D01*
X58809Y-39654D01*
X58809Y-39654D01*
X59033Y-39877D01*
X59145Y-39953D01*
X59278Y-39979D01*
X59585Y-39979D01*
X59589Y-39982D01*
X59589Y-39982D01*
G37*
G54D31*
X59589Y-39982D02*
X59489Y-40049D01*
X59402Y-40179D01*
X59372Y-40332D01*
X59402Y-40485D01*
X59489Y-40615D01*
X59580Y-40676D01*
X59547Y-40676D01*
X59476Y-40629D01*
X59343Y-40603D01*
X59240Y-40603D01*
X59235Y-40597D01*
X59179Y-40575D01*
X59120Y-40574D01*
X58920Y-40574D01*
X58865Y-40597D01*
X58859Y-40603D01*
X58740Y-40603D01*
X58735Y-40597D01*
X58679Y-40575D01*
X58620Y-40574D01*
X58420Y-40574D01*
X58365Y-40597D01*
X58359Y-40603D01*
X58240Y-40603D01*
X58235Y-40597D01*
X58179Y-40575D01*
X58120Y-40574D01*
X57920Y-40574D01*
X57865Y-40597D01*
X57859Y-40603D01*
X57740Y-40603D01*
X57735Y-40597D01*
X57679Y-40575D01*
X57620Y-40574D01*
X57420Y-40574D01*
X57365Y-40597D01*
X57322Y-40639D01*
X57300Y-40695D01*
X57300Y-40711D01*
X57268Y-40759D01*
X57253Y-40722D01*
X57211Y-40679D01*
X57176Y-40665D01*
X57177Y-40662D01*
X57177Y-40602D01*
X57177Y-40402D01*
X57155Y-40347D01*
X57113Y-40305D01*
X57057Y-40282D01*
X56998Y-40282D01*
X56698Y-40282D01*
X56643Y-40305D01*
X56600Y-40347D01*
X56577Y-40402D01*
X56577Y-40462D01*
X56577Y-40662D01*
X56600Y-40717D01*
X56605Y-40721D01*
X56605Y-40722D01*
X56582Y-40777D01*
X56582Y-40836D01*
X56582Y-40838D01*
X56561Y-40817D01*
X56506Y-40794D01*
X56446Y-40794D01*
X56171Y-40794D01*
X56115Y-40817D01*
X56073Y-40859D01*
X56062Y-40885D01*
X56052Y-40860D01*
X56010Y-40817D01*
X55955Y-40794D01*
X55895Y-40794D01*
X55709Y-40794D01*
X55696Y-40781D01*
X55697Y-40782D01*
X55757Y-40782D01*
X56057Y-40782D01*
X56112Y-40759D01*
X56155Y-40717D01*
X56177Y-40662D01*
X56177Y-40602D01*
X56177Y-40461D01*
X56240Y-40398D01*
X56277Y-40306D01*
X56277Y-40269D01*
X56215Y-40207D01*
X55927Y-40207D01*
X55927Y-40215D01*
X55827Y-40215D01*
X55827Y-40207D01*
X55820Y-40207D01*
X55820Y-40107D01*
X55827Y-40107D01*
X55827Y-40099D01*
X55927Y-40099D01*
X55927Y-40107D01*
X56215Y-40107D01*
X56277Y-40044D01*
X56277Y-40007D01*
X56240Y-39916D01*
X56177Y-39853D01*
X56177Y-39852D01*
X56177Y-39652D01*
X56155Y-39597D01*
X56117Y-39559D01*
X56331Y-39559D01*
X56577Y-39805D01*
X56577Y-39912D01*
X56600Y-39967D01*
X56642Y-40009D01*
X56697Y-40032D01*
X56757Y-40032D01*
X57057Y-40032D01*
X57112Y-40009D01*
X57155Y-39967D01*
X57177Y-39912D01*
X57177Y-39852D01*
X57177Y-39652D01*
X57155Y-39597D01*
X57113Y-39555D01*
X57057Y-39532D01*
X56998Y-39532D01*
X56951Y-39532D01*
X56723Y-39304D01*
X57362Y-39304D01*
X57362Y-39304D01*
X57362Y-39304D01*
X57434Y-39289D01*
X57496Y-39248D01*
X57520Y-39225D01*
X57679Y-39225D01*
X57734Y-39202D01*
X57777Y-39160D01*
X57799Y-39104D01*
X57799Y-39104D01*
X57822Y-39159D01*
X57864Y-39202D01*
X57920Y-39224D01*
X57979Y-39225D01*
X58179Y-39225D01*
X58234Y-39202D01*
X58240Y-39196D01*
X58359Y-39196D01*
X58364Y-39202D01*
X58420Y-39224D01*
X58479Y-39225D01*
X58679Y-39225D01*
X58708Y-39213D01*
X58708Y-39378D01*
X58703Y-39404D01*
X58729Y-39537D01*
X58804Y-39649D01*
X58809Y-39654D01*
X58809Y-39654D01*
X58809Y-39654D01*
X59033Y-39877D01*
X59145Y-39953D01*
X59278Y-39979D01*
X59585Y-39979D01*
X59589Y-39982D01*
G54D10*
G36*
X59821Y-35994D02*
X59813Y-35994D01*
X59813Y-36002D01*
X59713Y-36002D01*
X59713Y-35994D01*
X59705Y-35994D01*
X59705Y-35894D01*
X59713Y-35894D01*
X59713Y-35887D01*
X59813Y-35887D01*
X59813Y-35894D01*
X59821Y-35894D01*
X59821Y-35994D01*
X59821Y-35994D01*
G37*
G54D31*
X59821Y-35994D02*
X59813Y-35994D01*
X59813Y-36002D01*
X59713Y-36002D01*
X59713Y-35994D01*
X59705Y-35994D01*
X59705Y-35894D01*
X59713Y-35894D01*
X59713Y-35887D01*
X59813Y-35887D01*
X59813Y-35894D01*
X59821Y-35894D01*
X59821Y-35994D01*
G54D10*
G36*
X59939Y-38982D02*
X59931Y-38982D01*
X59931Y-38990D01*
X59831Y-38990D01*
X59831Y-38982D01*
X59824Y-38982D01*
X59824Y-38882D01*
X59831Y-38882D01*
X59831Y-38874D01*
X59931Y-38874D01*
X59931Y-38882D01*
X59939Y-38882D01*
X59939Y-38982D01*
X59939Y-38982D01*
G37*
G54D31*
X59939Y-38982D02*
X59931Y-38982D01*
X59931Y-38990D01*
X59831Y-38990D01*
X59831Y-38982D01*
X59824Y-38982D01*
X59824Y-38882D01*
X59831Y-38882D01*
X59831Y-38874D01*
X59931Y-38874D01*
X59931Y-38882D01*
X59939Y-38882D01*
X59939Y-38982D01*
M02*
