G04 (created by PCBNEW (2013-may-18)-stable) date Mit 10 Dez 2014 19:38:00 UTC*
%MOIN*%
G04 Gerber Fmt 3.4, Leading zero omitted, Abs format*
%FSLAX34Y34*%
G01*
G70*
G90*
G04 APERTURE LIST*
%ADD10C,0.00590551*%
%ADD11R,0.0275591X0.0393701*%
%ADD12R,0.0393701X0.0275591*%
%ADD13R,0.0748X0.0629*%
%ADD14R,0.0393701X0.0177165*%
%ADD15R,0.0126X0.0339*%
%ADD16R,0.0708X0.0551*%
%ADD17R,0.02X0.045*%
%ADD18R,0.0110236X0.0295276*%
%ADD19R,0.0110236X0.0334646*%
%ADD20C,0.0669291*%
%ADD21R,0.0787402X0.0787402*%
%ADD22C,0.0590551*%
%ADD23R,0.0590551X0.0590551*%
%ADD24O,0.05X0.07*%
%ADD25O,0.07X0.05*%
G04 APERTURE END LIST*
G54D10*
G54D11*
X54448Y-37519D03*
X53897Y-37519D03*
X50334Y-38779D03*
X50885Y-38779D03*
G54D12*
X51377Y-37342D03*
X51377Y-36791D03*
G54D13*
X56600Y-40659D03*
X56600Y-39541D03*
G54D14*
X49488Y-36574D03*
X49488Y-36830D03*
X49488Y-37086D03*
X49488Y-37342D03*
X50511Y-37342D03*
X50511Y-37086D03*
X50511Y-36830D03*
X50511Y-36574D03*
G54D11*
X54448Y-38543D03*
X53897Y-38543D03*
X49685Y-40629D03*
X49133Y-40629D03*
X50885Y-39350D03*
X50334Y-39350D03*
X48937Y-40019D03*
X49488Y-40019D03*
G54D12*
X53799Y-40688D03*
X53799Y-40137D03*
G54D11*
X49251Y-38464D03*
X49803Y-38464D03*
X50354Y-38090D03*
X50905Y-38090D03*
G54D12*
X51259Y-40629D03*
X51259Y-40078D03*
X51791Y-40629D03*
X51791Y-40078D03*
G54D11*
X53248Y-40551D03*
X52696Y-40551D03*
X54448Y-38031D03*
X53897Y-38031D03*
X56692Y-35866D03*
X56141Y-35866D03*
X56377Y-38818D03*
X56929Y-38818D03*
G54D15*
X55770Y-36538D03*
X56085Y-36538D03*
X56400Y-36538D03*
X56715Y-36538D03*
X57030Y-36538D03*
X57030Y-38062D03*
X56715Y-38062D03*
X56400Y-38062D03*
X56085Y-38062D03*
X55770Y-38062D03*
G54D16*
X55118Y-36890D03*
X55118Y-38228D03*
G54D17*
X55650Y-39250D03*
X55650Y-41350D03*
X55150Y-39250D03*
X54650Y-39250D03*
X54150Y-39250D03*
X55150Y-41350D03*
X54650Y-41350D03*
X54150Y-41350D03*
X57550Y-38150D03*
X57550Y-36050D03*
X58050Y-38150D03*
X58550Y-38150D03*
X59050Y-38150D03*
X58050Y-36050D03*
X58550Y-36050D03*
X59050Y-36050D03*
X57550Y-40950D03*
X57550Y-38850D03*
X58050Y-40950D03*
X58550Y-40950D03*
X59050Y-40950D03*
X58050Y-38850D03*
X58550Y-38850D03*
X59050Y-38850D03*
G54D18*
X49251Y-39478D03*
X49055Y-39478D03*
G54D19*
X49448Y-39458D03*
G54D18*
X49055Y-39025D03*
X49251Y-39025D03*
X49448Y-39025D03*
G54D12*
X55236Y-36259D03*
X55236Y-35708D03*
G54D20*
X48582Y-38444D03*
X48582Y-37657D03*
X48582Y-36082D03*
X48582Y-36870D03*
G54D21*
X59763Y-35944D03*
X59763Y-41220D03*
G54D22*
X49685Y-35905D03*
X50472Y-35787D03*
X51259Y-35905D03*
X52047Y-35787D03*
X52834Y-35905D03*
G54D23*
X54409Y-35905D03*
G54D22*
X53622Y-35787D03*
G54D24*
X49100Y-41299D03*
X53300Y-41299D03*
X49800Y-41299D03*
X50500Y-41299D03*
X51200Y-41299D03*
X51900Y-41299D03*
X52600Y-41299D03*
G54D25*
X59881Y-40332D03*
X59881Y-36832D03*
X59881Y-37532D03*
X59881Y-38232D03*
X59881Y-38932D03*
X59881Y-39632D03*
M02*
