G04 (created by PCBNEW (2013-may-18)-stable) date Mit 10 Dez 2014 19:38:00 UTC*
%MOIN*%
G04 Gerber Fmt 3.4, Leading zero omitted, Abs format*
%FSLAX34Y34*%
G01*
G70*
G90*
G04 APERTURE LIST*
%ADD10C,0.00590551*%
%ADD11C,0.0669291*%
%ADD12R,0.0787402X0.0787402*%
%ADD13C,0.0590551*%
%ADD14R,0.0590551X0.0590551*%
%ADD15O,0.05X0.07*%
%ADD16O,0.07X0.05*%
%ADD17C,0.0314961*%
%ADD18C,0.015748*%
%ADD19C,0.01*%
G04 APERTURE END LIST*
G54D10*
G54D11*
X48582Y-38444D03*
X48582Y-37657D03*
X48582Y-36082D03*
X48582Y-36870D03*
G54D12*
X59763Y-35944D03*
X59763Y-41220D03*
G54D13*
X49685Y-35905D03*
X50472Y-35787D03*
X51259Y-35905D03*
X52047Y-35787D03*
X52834Y-35905D03*
G54D14*
X54409Y-35905D03*
G54D13*
X53622Y-35787D03*
G54D15*
X49100Y-41299D03*
X53300Y-41299D03*
X49800Y-41299D03*
X50500Y-41299D03*
X51200Y-41299D03*
X51900Y-41299D03*
X52600Y-41299D03*
G54D16*
X59881Y-40332D03*
X59881Y-36832D03*
X59881Y-37532D03*
X59881Y-38232D03*
X59881Y-38932D03*
X59881Y-39632D03*
G54D17*
X54271Y-40472D03*
X50413Y-40236D03*
X53366Y-37637D03*
X54291Y-37007D03*
X51338Y-37559D03*
X51456Y-39094D03*
X50767Y-40472D03*
X55118Y-37480D03*
X52755Y-36456D03*
X51732Y-39429D03*
X52283Y-36476D03*
X49212Y-36476D03*
X48464Y-40019D03*
X58543Y-36594D03*
X58562Y-39685D03*
X56712Y-41456D03*
X48799Y-39783D03*
X48523Y-41279D03*
X55826Y-38503D03*
X51594Y-38720D03*
X54704Y-37677D03*
X50984Y-36830D03*
X54940Y-40374D03*
X53799Y-41299D03*
X55728Y-35885D03*
X52913Y-37795D03*
X51318Y-39507D03*
X52460Y-37874D03*
X52559Y-38484D03*
X52992Y-38543D03*
X56948Y-37637D03*
X53287Y-38248D03*
X56417Y-37047D03*
X50984Y-36417D03*
X51377Y-37992D03*
X59114Y-36574D03*
X57913Y-37342D03*
X58208Y-37657D03*
X58877Y-37421D03*
X52952Y-38956D03*
X56496Y-37637D03*
X55925Y-37322D03*
X53366Y-38838D03*
X51318Y-38405D03*
X53110Y-39724D03*
X53897Y-36811D03*
X52696Y-39724D03*
G54D18*
X51181Y-40374D02*
X50925Y-40118D01*
X50925Y-40118D02*
X50531Y-40118D01*
X50531Y-40118D02*
X50413Y-40236D01*
X54271Y-40472D02*
X54055Y-40688D01*
X54055Y-40688D02*
X51496Y-40688D01*
X51496Y-40688D02*
X51181Y-40374D01*
G54D10*
G36*
X59939Y-38982D02*
X59931Y-38982D01*
X59931Y-38990D01*
X59831Y-38990D01*
X59831Y-38982D01*
X59347Y-38982D01*
X59298Y-39059D01*
X59300Y-39077D01*
X59392Y-39250D01*
X59502Y-39341D01*
X59489Y-39349D01*
X59402Y-39479D01*
X59372Y-39632D01*
X59402Y-39785D01*
X59489Y-39915D01*
X59589Y-39982D01*
X59489Y-40049D01*
X59402Y-40179D01*
X59372Y-40332D01*
X59402Y-40485D01*
X59489Y-40615D01*
X59580Y-40676D01*
X59340Y-40676D01*
X59285Y-40699D01*
X59242Y-40741D01*
X59220Y-40796D01*
X59220Y-40856D01*
X59220Y-41562D01*
X59185Y-41562D01*
X59185Y-37360D01*
X59138Y-37247D01*
X59052Y-37160D01*
X58939Y-37113D01*
X58817Y-37113D01*
X58704Y-37160D01*
X58617Y-37246D01*
X58570Y-37359D01*
X58570Y-37482D01*
X58617Y-37595D01*
X58703Y-37681D01*
X58816Y-37728D01*
X58938Y-37728D01*
X59051Y-37682D01*
X59138Y-37595D01*
X59185Y-37482D01*
X59185Y-37360D01*
X59185Y-41562D01*
X59173Y-41562D01*
X58516Y-41562D01*
X58516Y-37596D01*
X58469Y-37483D01*
X58383Y-37396D01*
X58270Y-37350D01*
X58220Y-37350D01*
X58220Y-37281D01*
X58174Y-37168D01*
X58087Y-37082D01*
X57974Y-37035D01*
X57852Y-37034D01*
X57739Y-37081D01*
X57652Y-37168D01*
X57605Y-37281D01*
X57605Y-37403D01*
X57652Y-37516D01*
X57738Y-37603D01*
X57851Y-37649D01*
X57901Y-37649D01*
X57901Y-37718D01*
X57947Y-37831D01*
X58034Y-37917D01*
X58147Y-37964D01*
X58269Y-37965D01*
X58382Y-37918D01*
X58469Y-37831D01*
X58516Y-37718D01*
X58516Y-37596D01*
X58516Y-41562D01*
X57256Y-41562D01*
X57256Y-37576D01*
X57209Y-37463D01*
X57123Y-37377D01*
X57010Y-37330D01*
X56887Y-37330D01*
X56774Y-37376D01*
X56722Y-37429D01*
X56670Y-37377D01*
X56557Y-37330D01*
X56537Y-37330D01*
X56591Y-37308D01*
X56677Y-37221D01*
X56724Y-37108D01*
X56724Y-36986D01*
X56678Y-36873D01*
X56591Y-36786D01*
X56478Y-36739D01*
X56356Y-36739D01*
X56243Y-36786D01*
X56156Y-36872D01*
X56109Y-36985D01*
X56109Y-37072D01*
X56099Y-37062D01*
X55986Y-37015D01*
X55864Y-37015D01*
X55751Y-37062D01*
X55664Y-37148D01*
X55617Y-37261D01*
X55617Y-37383D01*
X55664Y-37496D01*
X55750Y-37583D01*
X55863Y-37630D01*
X55986Y-37630D01*
X56099Y-37583D01*
X56185Y-37497D01*
X56232Y-37384D01*
X56232Y-37297D01*
X56242Y-37307D01*
X56355Y-37354D01*
X56376Y-37354D01*
X56322Y-37376D01*
X56235Y-37463D01*
X56188Y-37576D01*
X56188Y-37698D01*
X56235Y-37811D01*
X56321Y-37898D01*
X56434Y-37945D01*
X56556Y-37945D01*
X56670Y-37898D01*
X56722Y-37846D01*
X56774Y-37898D01*
X56887Y-37945D01*
X57009Y-37945D01*
X57122Y-37898D01*
X57209Y-37812D01*
X57256Y-37699D01*
X57256Y-37576D01*
X57256Y-41562D01*
X55425Y-41562D01*
X55425Y-37419D01*
X55378Y-37306D01*
X55292Y-37219D01*
X55179Y-37172D01*
X55057Y-37172D01*
X54944Y-37219D01*
X54857Y-37305D01*
X54810Y-37418D01*
X54810Y-37541D01*
X54857Y-37654D01*
X54943Y-37740D01*
X55056Y-37787D01*
X55179Y-37787D01*
X55292Y-37741D01*
X55378Y-37654D01*
X55425Y-37541D01*
X55425Y-37419D01*
X55425Y-41562D01*
X54598Y-41562D01*
X54598Y-36946D01*
X54552Y-36833D01*
X54465Y-36747D01*
X54352Y-36700D01*
X54230Y-36700D01*
X54191Y-36716D01*
X54158Y-36637D01*
X54072Y-36550D01*
X53959Y-36503D01*
X53836Y-36503D01*
X53723Y-36550D01*
X53637Y-36636D01*
X53590Y-36749D01*
X53590Y-36871D01*
X53636Y-36984D01*
X53723Y-37071D01*
X53836Y-37118D01*
X53958Y-37118D01*
X53997Y-37102D01*
X54030Y-37181D01*
X54116Y-37268D01*
X54229Y-37315D01*
X54352Y-37315D01*
X54465Y-37268D01*
X54551Y-37182D01*
X54598Y-37069D01*
X54598Y-36946D01*
X54598Y-41562D01*
X53669Y-41562D01*
X53670Y-41562D01*
X53700Y-41409D01*
X53700Y-41189D01*
X53670Y-41036D01*
X53591Y-40917D01*
X54055Y-40917D01*
X54142Y-40900D01*
X54216Y-40850D01*
X54287Y-40779D01*
X54332Y-40779D01*
X54445Y-40733D01*
X54532Y-40646D01*
X54579Y-40533D01*
X54579Y-40411D01*
X54532Y-40298D01*
X54446Y-40211D01*
X54333Y-40165D01*
X54210Y-40164D01*
X54097Y-40211D01*
X54011Y-40298D01*
X53964Y-40411D01*
X53964Y-40456D01*
X53960Y-40460D01*
X53673Y-40460D01*
X53673Y-38777D01*
X53626Y-38664D01*
X53540Y-38578D01*
X53427Y-38531D01*
X53407Y-38531D01*
X53461Y-38508D01*
X53547Y-38422D01*
X53594Y-38309D01*
X53594Y-38187D01*
X53548Y-38074D01*
X53461Y-37987D01*
X53360Y-37945D01*
X53427Y-37945D01*
X53540Y-37898D01*
X53626Y-37812D01*
X53673Y-37699D01*
X53673Y-37576D01*
X53626Y-37463D01*
X53540Y-37377D01*
X53427Y-37330D01*
X53305Y-37330D01*
X53192Y-37376D01*
X53105Y-37463D01*
X53077Y-37530D01*
X52974Y-37487D01*
X52852Y-37487D01*
X52739Y-37534D01*
X52652Y-37620D01*
X52649Y-37628D01*
X52635Y-37613D01*
X52522Y-37566D01*
X52399Y-37566D01*
X52286Y-37613D01*
X52200Y-37699D01*
X52153Y-37812D01*
X52153Y-37934D01*
X52199Y-38047D01*
X52286Y-38134D01*
X52399Y-38181D01*
X52486Y-38181D01*
X52385Y-38223D01*
X52298Y-38309D01*
X52251Y-38422D01*
X52251Y-38545D01*
X52298Y-38658D01*
X52384Y-38744D01*
X52497Y-38791D01*
X52619Y-38791D01*
X52727Y-38747D01*
X52692Y-38782D01*
X52645Y-38895D01*
X52645Y-39017D01*
X52691Y-39130D01*
X52778Y-39217D01*
X52891Y-39264D01*
X53013Y-39264D01*
X53126Y-39217D01*
X53213Y-39131D01*
X53221Y-39111D01*
X53304Y-39146D01*
X53427Y-39146D01*
X53540Y-39099D01*
X53626Y-39012D01*
X53673Y-38900D01*
X53673Y-38777D01*
X53673Y-40460D01*
X53417Y-40460D01*
X53417Y-39663D01*
X53371Y-39550D01*
X53284Y-39463D01*
X53171Y-39416D01*
X53049Y-39416D01*
X52936Y-39463D01*
X52903Y-39496D01*
X52871Y-39463D01*
X52758Y-39416D01*
X52635Y-39416D01*
X52522Y-39463D01*
X52436Y-39550D01*
X52389Y-39662D01*
X52389Y-39785D01*
X52436Y-39898D01*
X52522Y-39984D01*
X52635Y-40031D01*
X52757Y-40031D01*
X52870Y-39985D01*
X52903Y-39952D01*
X52935Y-39984D01*
X53048Y-40031D01*
X53171Y-40031D01*
X53284Y-39985D01*
X53370Y-39898D01*
X53417Y-39785D01*
X53417Y-39663D01*
X53417Y-40460D01*
X52039Y-40460D01*
X52039Y-39368D01*
X51993Y-39255D01*
X51906Y-39168D01*
X51793Y-39121D01*
X51764Y-39121D01*
X51764Y-39033D01*
X51717Y-38920D01*
X51685Y-38888D01*
X51685Y-37931D01*
X51638Y-37818D01*
X51576Y-37755D01*
X51599Y-37733D01*
X51646Y-37620D01*
X51646Y-37498D01*
X51599Y-37385D01*
X51512Y-37298D01*
X51400Y-37251D01*
X51277Y-37251D01*
X51164Y-37298D01*
X51078Y-37384D01*
X51031Y-37497D01*
X51031Y-37619D01*
X51077Y-37733D01*
X51139Y-37795D01*
X51117Y-37817D01*
X51070Y-37930D01*
X51070Y-38053D01*
X51117Y-38166D01*
X51120Y-38169D01*
X51058Y-38231D01*
X51011Y-38344D01*
X51011Y-38466D01*
X51058Y-38579D01*
X51144Y-38666D01*
X51257Y-38712D01*
X51379Y-38713D01*
X51492Y-38666D01*
X51579Y-38579D01*
X51626Y-38466D01*
X51626Y-38344D01*
X51579Y-38231D01*
X51576Y-38228D01*
X51638Y-38166D01*
X51685Y-38053D01*
X51685Y-37931D01*
X51685Y-38888D01*
X51631Y-38833D01*
X51518Y-38787D01*
X51395Y-38786D01*
X51282Y-38833D01*
X51196Y-38920D01*
X51149Y-39033D01*
X51149Y-39155D01*
X51180Y-39232D01*
X51144Y-39247D01*
X51058Y-39333D01*
X51011Y-39446D01*
X51011Y-39568D01*
X51058Y-39681D01*
X51144Y-39768D01*
X51257Y-39815D01*
X51379Y-39815D01*
X51492Y-39768D01*
X51567Y-39693D01*
X51670Y-39736D01*
X51793Y-39736D01*
X51906Y-39689D01*
X51992Y-39603D01*
X52039Y-39490D01*
X52039Y-39368D01*
X52039Y-40460D01*
X51590Y-40460D01*
X51342Y-40212D01*
X51342Y-40212D01*
X51086Y-39956D01*
X51012Y-39906D01*
X50925Y-39889D01*
X50531Y-39889D01*
X50443Y-39906D01*
X50411Y-39928D01*
X50352Y-39928D01*
X50239Y-39975D01*
X50152Y-40061D01*
X50105Y-40174D01*
X50105Y-40297D01*
X50152Y-40410D01*
X50238Y-40496D01*
X50351Y-40543D01*
X50464Y-40543D01*
X50506Y-40646D01*
X50593Y-40732D01*
X50706Y-40779D01*
X50828Y-40779D01*
X50941Y-40733D01*
X51028Y-40646D01*
X51058Y-40574D01*
X51290Y-40807D01*
X51200Y-40789D01*
X51047Y-40819D01*
X50917Y-40906D01*
X50850Y-41007D01*
X50783Y-40906D01*
X50653Y-40819D01*
X50500Y-40789D01*
X50347Y-40819D01*
X50217Y-40906D01*
X50209Y-40919D01*
X50118Y-40810D01*
X49945Y-40718D01*
X49927Y-40715D01*
X49850Y-40764D01*
X49850Y-41249D01*
X49858Y-41249D01*
X49858Y-41349D01*
X49850Y-41349D01*
X49850Y-41357D01*
X49750Y-41357D01*
X49750Y-41349D01*
X49742Y-41349D01*
X49742Y-41249D01*
X49750Y-41249D01*
X49750Y-40764D01*
X49673Y-40715D01*
X49655Y-40718D01*
X49482Y-40810D01*
X49392Y-40919D01*
X49383Y-40906D01*
X49253Y-40819D01*
X49171Y-40803D01*
X49171Y-37747D01*
X49161Y-37515D01*
X49092Y-37348D01*
X48993Y-37317D01*
X48653Y-37657D01*
X48993Y-37997D01*
X49092Y-37966D01*
X49171Y-37747D01*
X49171Y-40803D01*
X49100Y-40789D01*
X48947Y-40819D01*
X48817Y-40906D01*
X48731Y-41036D01*
X48700Y-41189D01*
X48700Y-41409D01*
X48731Y-41562D01*
X48731Y-41562D01*
X48315Y-41562D01*
X48315Y-40290D01*
X48403Y-40327D01*
X48525Y-40327D01*
X48638Y-40280D01*
X48725Y-40194D01*
X48771Y-40081D01*
X48772Y-39958D01*
X48725Y-39845D01*
X48638Y-39759D01*
X48525Y-39712D01*
X48403Y-39712D01*
X48315Y-39748D01*
X48315Y-38858D01*
X48485Y-38929D01*
X48678Y-38929D01*
X48856Y-38855D01*
X48993Y-38719D01*
X49067Y-38541D01*
X49067Y-38348D01*
X48993Y-38170D01*
X48915Y-38092D01*
X48922Y-38068D01*
X48582Y-37728D01*
X48577Y-37733D01*
X48506Y-37663D01*
X48511Y-37657D01*
X48506Y-37651D01*
X48577Y-37581D01*
X48582Y-37586D01*
X48922Y-37246D01*
X48915Y-37222D01*
X48993Y-37144D01*
X49067Y-36966D01*
X49067Y-36774D01*
X49054Y-36743D01*
X49151Y-36783D01*
X49273Y-36783D01*
X49386Y-36737D01*
X49473Y-36650D01*
X49520Y-36537D01*
X49520Y-36415D01*
X49473Y-36302D01*
X49468Y-36297D01*
X49596Y-36350D01*
X49773Y-36350D01*
X49936Y-36283D01*
X50062Y-36158D01*
X50087Y-36098D01*
X50089Y-36099D01*
X50401Y-35787D01*
X50396Y-35781D01*
X50466Y-35711D01*
X50472Y-35716D01*
X50478Y-35711D01*
X50548Y-35781D01*
X50543Y-35787D01*
X50548Y-35792D01*
X50478Y-35863D01*
X50472Y-35858D01*
X50160Y-36169D01*
X50187Y-36264D01*
X50391Y-36337D01*
X50608Y-36326D01*
X50705Y-36286D01*
X50676Y-36355D01*
X50676Y-36478D01*
X50723Y-36591D01*
X50809Y-36677D01*
X50922Y-36724D01*
X51045Y-36724D01*
X51158Y-36678D01*
X51244Y-36591D01*
X51291Y-36478D01*
X51291Y-36356D01*
X51289Y-36350D01*
X51348Y-36350D01*
X51511Y-36283D01*
X51637Y-36158D01*
X51681Y-36051D01*
X51794Y-36164D01*
X51958Y-36232D01*
X52092Y-36232D01*
X52022Y-36301D01*
X51976Y-36414D01*
X51975Y-36537D01*
X52022Y-36650D01*
X52109Y-36736D01*
X52222Y-36783D01*
X52344Y-36783D01*
X52457Y-36737D01*
X52529Y-36665D01*
X52581Y-36717D01*
X52694Y-36764D01*
X52816Y-36764D01*
X52929Y-36717D01*
X53016Y-36631D01*
X53063Y-36518D01*
X53063Y-36395D01*
X53027Y-36307D01*
X53086Y-36283D01*
X53211Y-36158D01*
X53256Y-36051D01*
X53369Y-36164D01*
X53533Y-36232D01*
X53710Y-36232D01*
X53873Y-36165D01*
X53964Y-36075D01*
X53964Y-36230D01*
X53986Y-36285D01*
X54029Y-36327D01*
X54084Y-36350D01*
X54143Y-36350D01*
X54734Y-36350D01*
X54789Y-36328D01*
X54831Y-36285D01*
X54854Y-36230D01*
X54854Y-36171D01*
X54854Y-35602D01*
X59120Y-35602D01*
X59120Y-35832D01*
X59182Y-35894D01*
X59713Y-35894D01*
X59713Y-35887D01*
X59813Y-35887D01*
X59813Y-35894D01*
X59821Y-35894D01*
X59821Y-35994D01*
X59813Y-35994D01*
X59813Y-36002D01*
X59713Y-36002D01*
X59713Y-35994D01*
X59182Y-35994D01*
X59120Y-36057D01*
X59120Y-36267D01*
X59053Y-36267D01*
X58940Y-36313D01*
X58853Y-36400D01*
X58806Y-36513D01*
X58806Y-36635D01*
X58853Y-36748D01*
X58939Y-36835D01*
X59052Y-36882D01*
X59175Y-36882D01*
X59288Y-36835D01*
X59374Y-36749D01*
X59401Y-36684D01*
X59372Y-36832D01*
X59402Y-36985D01*
X59489Y-37115D01*
X59589Y-37182D01*
X59489Y-37249D01*
X59402Y-37379D01*
X59372Y-37532D01*
X59402Y-37685D01*
X59489Y-37815D01*
X59589Y-37882D01*
X59489Y-37949D01*
X59402Y-38079D01*
X59372Y-38232D01*
X59402Y-38385D01*
X59489Y-38515D01*
X59502Y-38524D01*
X59392Y-38614D01*
X59300Y-38787D01*
X59298Y-38805D01*
X59347Y-38882D01*
X59831Y-38882D01*
X59831Y-38874D01*
X59931Y-38874D01*
X59931Y-38882D01*
X59939Y-38882D01*
X59939Y-38982D01*
X59939Y-38982D01*
G37*
G54D19*
X59939Y-38982D02*
X59931Y-38982D01*
X59931Y-38990D01*
X59831Y-38990D01*
X59831Y-38982D01*
X59347Y-38982D01*
X59298Y-39059D01*
X59300Y-39077D01*
X59392Y-39250D01*
X59502Y-39341D01*
X59489Y-39349D01*
X59402Y-39479D01*
X59372Y-39632D01*
X59402Y-39785D01*
X59489Y-39915D01*
X59589Y-39982D01*
X59489Y-40049D01*
X59402Y-40179D01*
X59372Y-40332D01*
X59402Y-40485D01*
X59489Y-40615D01*
X59580Y-40676D01*
X59340Y-40676D01*
X59285Y-40699D01*
X59242Y-40741D01*
X59220Y-40796D01*
X59220Y-40856D01*
X59220Y-41562D01*
X59185Y-41562D01*
X59185Y-37360D01*
X59138Y-37247D01*
X59052Y-37160D01*
X58939Y-37113D01*
X58817Y-37113D01*
X58704Y-37160D01*
X58617Y-37246D01*
X58570Y-37359D01*
X58570Y-37482D01*
X58617Y-37595D01*
X58703Y-37681D01*
X58816Y-37728D01*
X58938Y-37728D01*
X59051Y-37682D01*
X59138Y-37595D01*
X59185Y-37482D01*
X59185Y-37360D01*
X59185Y-41562D01*
X59173Y-41562D01*
X58516Y-41562D01*
X58516Y-37596D01*
X58469Y-37483D01*
X58383Y-37396D01*
X58270Y-37350D01*
X58220Y-37350D01*
X58220Y-37281D01*
X58174Y-37168D01*
X58087Y-37082D01*
X57974Y-37035D01*
X57852Y-37034D01*
X57739Y-37081D01*
X57652Y-37168D01*
X57605Y-37281D01*
X57605Y-37403D01*
X57652Y-37516D01*
X57738Y-37603D01*
X57851Y-37649D01*
X57901Y-37649D01*
X57901Y-37718D01*
X57947Y-37831D01*
X58034Y-37917D01*
X58147Y-37964D01*
X58269Y-37965D01*
X58382Y-37918D01*
X58469Y-37831D01*
X58516Y-37718D01*
X58516Y-37596D01*
X58516Y-41562D01*
X57256Y-41562D01*
X57256Y-37576D01*
X57209Y-37463D01*
X57123Y-37377D01*
X57010Y-37330D01*
X56887Y-37330D01*
X56774Y-37376D01*
X56722Y-37429D01*
X56670Y-37377D01*
X56557Y-37330D01*
X56537Y-37330D01*
X56591Y-37308D01*
X56677Y-37221D01*
X56724Y-37108D01*
X56724Y-36986D01*
X56678Y-36873D01*
X56591Y-36786D01*
X56478Y-36739D01*
X56356Y-36739D01*
X56243Y-36786D01*
X56156Y-36872D01*
X56109Y-36985D01*
X56109Y-37072D01*
X56099Y-37062D01*
X55986Y-37015D01*
X55864Y-37015D01*
X55751Y-37062D01*
X55664Y-37148D01*
X55617Y-37261D01*
X55617Y-37383D01*
X55664Y-37496D01*
X55750Y-37583D01*
X55863Y-37630D01*
X55986Y-37630D01*
X56099Y-37583D01*
X56185Y-37497D01*
X56232Y-37384D01*
X56232Y-37297D01*
X56242Y-37307D01*
X56355Y-37354D01*
X56376Y-37354D01*
X56322Y-37376D01*
X56235Y-37463D01*
X56188Y-37576D01*
X56188Y-37698D01*
X56235Y-37811D01*
X56321Y-37898D01*
X56434Y-37945D01*
X56556Y-37945D01*
X56670Y-37898D01*
X56722Y-37846D01*
X56774Y-37898D01*
X56887Y-37945D01*
X57009Y-37945D01*
X57122Y-37898D01*
X57209Y-37812D01*
X57256Y-37699D01*
X57256Y-37576D01*
X57256Y-41562D01*
X55425Y-41562D01*
X55425Y-37419D01*
X55378Y-37306D01*
X55292Y-37219D01*
X55179Y-37172D01*
X55057Y-37172D01*
X54944Y-37219D01*
X54857Y-37305D01*
X54810Y-37418D01*
X54810Y-37541D01*
X54857Y-37654D01*
X54943Y-37740D01*
X55056Y-37787D01*
X55179Y-37787D01*
X55292Y-37741D01*
X55378Y-37654D01*
X55425Y-37541D01*
X55425Y-37419D01*
X55425Y-41562D01*
X54598Y-41562D01*
X54598Y-36946D01*
X54552Y-36833D01*
X54465Y-36747D01*
X54352Y-36700D01*
X54230Y-36700D01*
X54191Y-36716D01*
X54158Y-36637D01*
X54072Y-36550D01*
X53959Y-36503D01*
X53836Y-36503D01*
X53723Y-36550D01*
X53637Y-36636D01*
X53590Y-36749D01*
X53590Y-36871D01*
X53636Y-36984D01*
X53723Y-37071D01*
X53836Y-37118D01*
X53958Y-37118D01*
X53997Y-37102D01*
X54030Y-37181D01*
X54116Y-37268D01*
X54229Y-37315D01*
X54352Y-37315D01*
X54465Y-37268D01*
X54551Y-37182D01*
X54598Y-37069D01*
X54598Y-36946D01*
X54598Y-41562D01*
X53669Y-41562D01*
X53670Y-41562D01*
X53700Y-41409D01*
X53700Y-41189D01*
X53670Y-41036D01*
X53591Y-40917D01*
X54055Y-40917D01*
X54142Y-40900D01*
X54216Y-40850D01*
X54287Y-40779D01*
X54332Y-40779D01*
X54445Y-40733D01*
X54532Y-40646D01*
X54579Y-40533D01*
X54579Y-40411D01*
X54532Y-40298D01*
X54446Y-40211D01*
X54333Y-40165D01*
X54210Y-40164D01*
X54097Y-40211D01*
X54011Y-40298D01*
X53964Y-40411D01*
X53964Y-40456D01*
X53960Y-40460D01*
X53673Y-40460D01*
X53673Y-38777D01*
X53626Y-38664D01*
X53540Y-38578D01*
X53427Y-38531D01*
X53407Y-38531D01*
X53461Y-38508D01*
X53547Y-38422D01*
X53594Y-38309D01*
X53594Y-38187D01*
X53548Y-38074D01*
X53461Y-37987D01*
X53360Y-37945D01*
X53427Y-37945D01*
X53540Y-37898D01*
X53626Y-37812D01*
X53673Y-37699D01*
X53673Y-37576D01*
X53626Y-37463D01*
X53540Y-37377D01*
X53427Y-37330D01*
X53305Y-37330D01*
X53192Y-37376D01*
X53105Y-37463D01*
X53077Y-37530D01*
X52974Y-37487D01*
X52852Y-37487D01*
X52739Y-37534D01*
X52652Y-37620D01*
X52649Y-37628D01*
X52635Y-37613D01*
X52522Y-37566D01*
X52399Y-37566D01*
X52286Y-37613D01*
X52200Y-37699D01*
X52153Y-37812D01*
X52153Y-37934D01*
X52199Y-38047D01*
X52286Y-38134D01*
X52399Y-38181D01*
X52486Y-38181D01*
X52385Y-38223D01*
X52298Y-38309D01*
X52251Y-38422D01*
X52251Y-38545D01*
X52298Y-38658D01*
X52384Y-38744D01*
X52497Y-38791D01*
X52619Y-38791D01*
X52727Y-38747D01*
X52692Y-38782D01*
X52645Y-38895D01*
X52645Y-39017D01*
X52691Y-39130D01*
X52778Y-39217D01*
X52891Y-39264D01*
X53013Y-39264D01*
X53126Y-39217D01*
X53213Y-39131D01*
X53221Y-39111D01*
X53304Y-39146D01*
X53427Y-39146D01*
X53540Y-39099D01*
X53626Y-39012D01*
X53673Y-38900D01*
X53673Y-38777D01*
X53673Y-40460D01*
X53417Y-40460D01*
X53417Y-39663D01*
X53371Y-39550D01*
X53284Y-39463D01*
X53171Y-39416D01*
X53049Y-39416D01*
X52936Y-39463D01*
X52903Y-39496D01*
X52871Y-39463D01*
X52758Y-39416D01*
X52635Y-39416D01*
X52522Y-39463D01*
X52436Y-39550D01*
X52389Y-39662D01*
X52389Y-39785D01*
X52436Y-39898D01*
X52522Y-39984D01*
X52635Y-40031D01*
X52757Y-40031D01*
X52870Y-39985D01*
X52903Y-39952D01*
X52935Y-39984D01*
X53048Y-40031D01*
X53171Y-40031D01*
X53284Y-39985D01*
X53370Y-39898D01*
X53417Y-39785D01*
X53417Y-39663D01*
X53417Y-40460D01*
X52039Y-40460D01*
X52039Y-39368D01*
X51993Y-39255D01*
X51906Y-39168D01*
X51793Y-39121D01*
X51764Y-39121D01*
X51764Y-39033D01*
X51717Y-38920D01*
X51685Y-38888D01*
X51685Y-37931D01*
X51638Y-37818D01*
X51576Y-37755D01*
X51599Y-37733D01*
X51646Y-37620D01*
X51646Y-37498D01*
X51599Y-37385D01*
X51512Y-37298D01*
X51400Y-37251D01*
X51277Y-37251D01*
X51164Y-37298D01*
X51078Y-37384D01*
X51031Y-37497D01*
X51031Y-37619D01*
X51077Y-37733D01*
X51139Y-37795D01*
X51117Y-37817D01*
X51070Y-37930D01*
X51070Y-38053D01*
X51117Y-38166D01*
X51120Y-38169D01*
X51058Y-38231D01*
X51011Y-38344D01*
X51011Y-38466D01*
X51058Y-38579D01*
X51144Y-38666D01*
X51257Y-38712D01*
X51379Y-38713D01*
X51492Y-38666D01*
X51579Y-38579D01*
X51626Y-38466D01*
X51626Y-38344D01*
X51579Y-38231D01*
X51576Y-38228D01*
X51638Y-38166D01*
X51685Y-38053D01*
X51685Y-37931D01*
X51685Y-38888D01*
X51631Y-38833D01*
X51518Y-38787D01*
X51395Y-38786D01*
X51282Y-38833D01*
X51196Y-38920D01*
X51149Y-39033D01*
X51149Y-39155D01*
X51180Y-39232D01*
X51144Y-39247D01*
X51058Y-39333D01*
X51011Y-39446D01*
X51011Y-39568D01*
X51058Y-39681D01*
X51144Y-39768D01*
X51257Y-39815D01*
X51379Y-39815D01*
X51492Y-39768D01*
X51567Y-39693D01*
X51670Y-39736D01*
X51793Y-39736D01*
X51906Y-39689D01*
X51992Y-39603D01*
X52039Y-39490D01*
X52039Y-39368D01*
X52039Y-40460D01*
X51590Y-40460D01*
X51342Y-40212D01*
X51342Y-40212D01*
X51086Y-39956D01*
X51012Y-39906D01*
X50925Y-39889D01*
X50531Y-39889D01*
X50443Y-39906D01*
X50411Y-39928D01*
X50352Y-39928D01*
X50239Y-39975D01*
X50152Y-40061D01*
X50105Y-40174D01*
X50105Y-40297D01*
X50152Y-40410D01*
X50238Y-40496D01*
X50351Y-40543D01*
X50464Y-40543D01*
X50506Y-40646D01*
X50593Y-40732D01*
X50706Y-40779D01*
X50828Y-40779D01*
X50941Y-40733D01*
X51028Y-40646D01*
X51058Y-40574D01*
X51290Y-40807D01*
X51200Y-40789D01*
X51047Y-40819D01*
X50917Y-40906D01*
X50850Y-41007D01*
X50783Y-40906D01*
X50653Y-40819D01*
X50500Y-40789D01*
X50347Y-40819D01*
X50217Y-40906D01*
X50209Y-40919D01*
X50118Y-40810D01*
X49945Y-40718D01*
X49927Y-40715D01*
X49850Y-40764D01*
X49850Y-41249D01*
X49858Y-41249D01*
X49858Y-41349D01*
X49850Y-41349D01*
X49850Y-41357D01*
X49750Y-41357D01*
X49750Y-41349D01*
X49742Y-41349D01*
X49742Y-41249D01*
X49750Y-41249D01*
X49750Y-40764D01*
X49673Y-40715D01*
X49655Y-40718D01*
X49482Y-40810D01*
X49392Y-40919D01*
X49383Y-40906D01*
X49253Y-40819D01*
X49171Y-40803D01*
X49171Y-37747D01*
X49161Y-37515D01*
X49092Y-37348D01*
X48993Y-37317D01*
X48653Y-37657D01*
X48993Y-37997D01*
X49092Y-37966D01*
X49171Y-37747D01*
X49171Y-40803D01*
X49100Y-40789D01*
X48947Y-40819D01*
X48817Y-40906D01*
X48731Y-41036D01*
X48700Y-41189D01*
X48700Y-41409D01*
X48731Y-41562D01*
X48731Y-41562D01*
X48315Y-41562D01*
X48315Y-40290D01*
X48403Y-40327D01*
X48525Y-40327D01*
X48638Y-40280D01*
X48725Y-40194D01*
X48771Y-40081D01*
X48772Y-39958D01*
X48725Y-39845D01*
X48638Y-39759D01*
X48525Y-39712D01*
X48403Y-39712D01*
X48315Y-39748D01*
X48315Y-38858D01*
X48485Y-38929D01*
X48678Y-38929D01*
X48856Y-38855D01*
X48993Y-38719D01*
X49067Y-38541D01*
X49067Y-38348D01*
X48993Y-38170D01*
X48915Y-38092D01*
X48922Y-38068D01*
X48582Y-37728D01*
X48577Y-37733D01*
X48506Y-37663D01*
X48511Y-37657D01*
X48506Y-37651D01*
X48577Y-37581D01*
X48582Y-37586D01*
X48922Y-37246D01*
X48915Y-37222D01*
X48993Y-37144D01*
X49067Y-36966D01*
X49067Y-36774D01*
X49054Y-36743D01*
X49151Y-36783D01*
X49273Y-36783D01*
X49386Y-36737D01*
X49473Y-36650D01*
X49520Y-36537D01*
X49520Y-36415D01*
X49473Y-36302D01*
X49468Y-36297D01*
X49596Y-36350D01*
X49773Y-36350D01*
X49936Y-36283D01*
X50062Y-36158D01*
X50087Y-36098D01*
X50089Y-36099D01*
X50401Y-35787D01*
X50396Y-35781D01*
X50466Y-35711D01*
X50472Y-35716D01*
X50478Y-35711D01*
X50548Y-35781D01*
X50543Y-35787D01*
X50548Y-35792D01*
X50478Y-35863D01*
X50472Y-35858D01*
X50160Y-36169D01*
X50187Y-36264D01*
X50391Y-36337D01*
X50608Y-36326D01*
X50705Y-36286D01*
X50676Y-36355D01*
X50676Y-36478D01*
X50723Y-36591D01*
X50809Y-36677D01*
X50922Y-36724D01*
X51045Y-36724D01*
X51158Y-36678D01*
X51244Y-36591D01*
X51291Y-36478D01*
X51291Y-36356D01*
X51289Y-36350D01*
X51348Y-36350D01*
X51511Y-36283D01*
X51637Y-36158D01*
X51681Y-36051D01*
X51794Y-36164D01*
X51958Y-36232D01*
X52092Y-36232D01*
X52022Y-36301D01*
X51976Y-36414D01*
X51975Y-36537D01*
X52022Y-36650D01*
X52109Y-36736D01*
X52222Y-36783D01*
X52344Y-36783D01*
X52457Y-36737D01*
X52529Y-36665D01*
X52581Y-36717D01*
X52694Y-36764D01*
X52816Y-36764D01*
X52929Y-36717D01*
X53016Y-36631D01*
X53063Y-36518D01*
X53063Y-36395D01*
X53027Y-36307D01*
X53086Y-36283D01*
X53211Y-36158D01*
X53256Y-36051D01*
X53369Y-36164D01*
X53533Y-36232D01*
X53710Y-36232D01*
X53873Y-36165D01*
X53964Y-36075D01*
X53964Y-36230D01*
X53986Y-36285D01*
X54029Y-36327D01*
X54084Y-36350D01*
X54143Y-36350D01*
X54734Y-36350D01*
X54789Y-36328D01*
X54831Y-36285D01*
X54854Y-36230D01*
X54854Y-36171D01*
X54854Y-35602D01*
X59120Y-35602D01*
X59120Y-35832D01*
X59182Y-35894D01*
X59713Y-35894D01*
X59713Y-35887D01*
X59813Y-35887D01*
X59813Y-35894D01*
X59821Y-35894D01*
X59821Y-35994D01*
X59813Y-35994D01*
X59813Y-36002D01*
X59713Y-36002D01*
X59713Y-35994D01*
X59182Y-35994D01*
X59120Y-36057D01*
X59120Y-36267D01*
X59053Y-36267D01*
X58940Y-36313D01*
X58853Y-36400D01*
X58806Y-36513D01*
X58806Y-36635D01*
X58853Y-36748D01*
X58939Y-36835D01*
X59052Y-36882D01*
X59175Y-36882D01*
X59288Y-36835D01*
X59374Y-36749D01*
X59401Y-36684D01*
X59372Y-36832D01*
X59402Y-36985D01*
X59489Y-37115D01*
X59589Y-37182D01*
X59489Y-37249D01*
X59402Y-37379D01*
X59372Y-37532D01*
X59402Y-37685D01*
X59489Y-37815D01*
X59589Y-37882D01*
X59489Y-37949D01*
X59402Y-38079D01*
X59372Y-38232D01*
X59402Y-38385D01*
X59489Y-38515D01*
X59502Y-38524D01*
X59392Y-38614D01*
X59300Y-38787D01*
X59298Y-38805D01*
X59347Y-38882D01*
X59831Y-38882D01*
X59831Y-38874D01*
X59931Y-38874D01*
X59931Y-38882D01*
X59939Y-38882D01*
X59939Y-38982D01*
M02*
